{"glyphs":{"0":{"ha":683,"x_min":-28,"x_max":711,"o":"m -28 388 l 28 388 l 28 167 q 39 153 28 165 q 65 125 49 141 q 98 92 81 108 q 126 66 115 76 q 140 56 138 56 q 140 56 140 56 q 140 56 140 56 q 140 56 140 56 q 140 56 140 56 q 171 56 149 56 q 223 56 194 56 q 280 56 251 56 q 327 56 308 56 q 350 56 347 56 q 350 28 350 42 q 350 0 350 14 q 350 0 350 0 q 350 0 350 0 q 350 0 350 0 q 350 0 350 0 q 350 0 350 0 q 323 0 350 0 q 252 0 295 0 q 161 0 210 0 q 70 0 113 0 q 0 0 27 0 q -28 0 -28 0 q -28 0 -28 0 q -28 0 -28 0 q -28 0 -28 0 q -28 0 -28 0 q -28 19 -28 0 q -28 72 -28 39 q -28 147 -28 106 q -28 231 -28 188 q -28 315 -28 274 q -28 388 -28 356 m 711 388 q 711 315 711 356 q 711 231 711 274 q 711 147 711 188 q 711 72 711 106 q 711 19 711 39 q 711 0 711 0 q 711 0 711 0 q 711 0 711 0 q 711 0 711 0 q 711 0 711 0 q 684 0 711 0 q 614 0 656 0 q 522 0 571 0 q 431 0 474 0 q 361 0 388 0 q 333 0 333 0 q 333 0 333 0 q 333 0 333 0 q 333 0 333 0 q 333 0 333 0 q 333 0 333 0 q 333 28 333 14 q 333 56 333 42 q 356 56 337 56 q 404 56 376 56 q 461 56 432 56 q 512 56 490 56 q 543 56 535 56 q 543 56 543 56 q 543 56 543 56 q 543 56 543 56 q 543 56 543 56 q 557 66 545 56 q 585 92 569 76 q 618 125 602 108 q 645 153 634 141 q 656 167 656 165 l 656 388 l 711 388 m -28 426 q -28 499 -28 458 q -28 583 -28 539 q -28 667 -28 626 q -28 742 -28 708 q -28 794 -28 775 q -28 814 -28 814 q -28 814 -28 814 q -28 814 -28 814 q -28 814 -28 814 q -28 814 -28 814 q 0 814 -28 814 q 70 814 27 814 q 161 814 113 814 q 252 814 210 814 q 323 814 295 814 q 350 814 350 814 q 350 814 350 814 q 350 814 350 814 q 350 814 350 814 q 350 814 350 814 q 350 814 350 814 q 350 786 350 801 q 350 758 350 772 q 327 758 347 758 q 280 758 308 758 q 223 758 251 758 q 171 758 194 758 q 140 758 149 758 q 140 758 140 758 q 140 758 140 758 q 140 758 140 758 q 140 758 140 758 q 126 748 138 758 q 98 722 115 738 q 65 689 81 706 q 39 661 49 673 q 28 647 28 649 l 28 426 l -28 426 m 711 426 l 656 426 l 656 647 q 645 661 656 649 q 618 689 634 673 q 585 722 602 706 q 557 748 569 738 q 543 758 545 758 q 543 758 543 758 q 543 758 543 758 q 543 758 543 758 q 543 758 543 758 q 512 758 535 758 q 461 758 490 758 q 404 758 432 758 q 356 758 376 758 q 333 758 337 758 q 333 786 333 772 q 333 814 333 801 q 333 814 333 814 q 333 814 333 814 q 333 814 333 814 q 333 814 333 814 q 333 814 333 814 q 361 814 333 814 q 431 814 388 814 q 522 814 474 814 q 614 814 571 814 q 684 814 656 814 q 711 814 711 814 q 711 814 711 814 q 711 814 711 814 q 711 814 711 814 q 711 814 711 814 q 711 794 711 814 q 711 742 711 775 q 711 667 711 708 q 711 583 711 626 q 711 499 711 539 q 711 426 711 458 m 711 261 l 656 261 q 656 283 656 261 q 656 334 656 305 q 656 385 656 363 q 656 407 656 407 q 656 407 656 407 q 656 407 656 407 q 656 407 656 407 q 656 407 656 407 q 656 429 656 407 q 656 480 656 451 q 656 531 656 509 q 656 553 656 553 l 711 553 l 711 261 m -28 261 l -28 553 l 28 553 q 28 531 28 553 q 28 480 28 509 q 28 429 28 451 q 28 407 28 407 q 28 407 28 407 q 28 407 28 407 q 28 407 28 407 q 28 407 28 407 q 28 385 28 407 q 28 334 28 363 q 28 283 28 305 q 28 261 28 261 l -28 261 m 426 436 q 426 436 426 436 q 426 436 426 436 q 426 436 426 436 q 426 436 426 436 q 426 436 426 436 q 426 436 426 436 q 426 436 426 436 q 431 435 431 436 q 432 431 432 435 q 432 416 432 423 q 432 401 432 408 q 432 386 432 394 q 431 381 432 382 q 426 381 431 381 q 426 381 426 381 q 426 381 426 381 q 426 381 426 381 q 426 381 426 381 q 426 381 426 381 q 426 381 426 381 q 426 381 426 381 q 400 381 426 381 q 340 381 374 381 q 280 381 306 381 q 254 381 254 381 q 254 381 254 381 q 254 381 254 381 q 249 381 250 381 q 249 386 249 382 q 249 401 249 394 q 249 416 249 408 q 249 431 249 423 q 249 435 249 435 q 254 436 250 436 q 254 436 254 436 q 254 436 254 436 q 280 436 254 436 q 340 436 306 436 q 400 436 374 436 q 426 436 426 436 z "},"1":{"ha":490,"x_min":-28,"x_max":518,"o":"m 518 346 q 518 284 518 317 q 518 214 518 250 q 518 140 518 177 q 518 67 518 103 q 518 0 518 32 q 496 0 518 0 q 442 0 474 0 q 377 0 410 0 q 323 0 345 0 q 301 0 301 0 q 301 0 301 0 q 301 0 301 0 q 301 0 301 0 q 301 0 301 0 q 297 28 297 10 q 301 56 297 45 q 334 56 316 56 q 373 56 352 56 q 416 56 393 56 q 463 56 439 56 q 463 56 463 56 q 463 56 463 56 q 463 56 463 56 q 463 56 463 56 q 463 56 463 56 q 463 56 463 56 q 463 56 463 56 q 463 56 463 56 q 463 85 463 56 q 463 157 463 114 q 463 244 463 201 q 463 317 463 288 q 463 346 463 346 l 518 346 m 518 261 l 463 261 q 463 283 463 261 q 463 334 463 305 q 463 385 463 363 q 463 407 463 407 q 463 407 463 407 q 463 407 463 407 q 463 407 463 407 q 463 407 463 407 q 463 429 463 407 q 463 480 463 451 q 463 531 463 509 q 463 553 463 553 l 518 553 l 518 261 m -28 349 l -26 814 q 1 814 -26 814 q 69 814 28 814 q 151 814 110 814 q 220 814 192 814 q 251 814 249 814 q 251 814 251 814 q 251 814 251 814 q 251 814 251 814 q 251 814 251 814 q 251 814 251 814 q 251 814 251 814 q 251 814 251 814 q 251 814 251 814 q 251 814 251 814 q 251 814 251 814 q 251 814 251 814 q 251 814 251 814 q 251 814 251 814 q 251 814 251 814 q 280 814 253 814 q 347 814 308 814 q 426 814 387 814 q 492 814 465 814 q 518 814 518 814 l 518 464 l 463 464 l 463 761 q 463 761 463 761 q 463 761 463 761 q 463 761 463 761 q 451 761 463 761 q 424 761 440 761 q 392 761 408 761 q 365 761 376 761 q 354 761 354 761 q 354 761 354 761 q 354 761 354 761 q 354 761 354 761 q 354 761 354 761 q 321 751 354 761 q 240 727 288 742 q 142 698 191 713 q 61 674 94 683 q 28 664 28 664 q 28 664 28 664 q 28 664 28 664 q 28 664 28 664 q 28 664 28 664 l 28 349 l -28 349 m 306 0 q 273 0 287 0 q 249 0 258 0 q 233 0 239 0 q 224 0 227 0 q 221 0 222 0 q 221 0 221 0 q 221 0 221 0 q 221 0 221 0 q 221 0 221 0 q 221 0 221 0 q 221 0 221 0 q 221 0 221 0 q 221 0 221 0 q 201 0 219 0 q 154 0 182 0 q 94 0 126 0 q 35 0 63 0 q -10 0 8 0 q -28 0 -28 0 q -28 0 -28 0 q -28 0 -28 0 q -28 31 -28 0 q -28 114 -28 63 q -28 226 -28 165 q -28 349 -28 288 q -28 461 -28 410 q -28 544 -28 513 q -28 575 -28 575 l 28 575 q 28 575 28 575 q 28 575 28 575 q 28 553 28 575 q 28 498 28 531 q 28 432 28 465 q 28 376 28 399 q 28 354 28 354 q 28 354 28 354 q 28 354 28 354 q 28 354 28 354 q 28 354 28 354 q 47 357 28 354 q 91 365 66 360 q 135 372 116 369 q 154 375 154 375 q 154 375 154 375 q 154 375 154 375 q 154 375 154 375 q 154 353 154 375 q 154 295 154 331 q 154 220 154 260 q 154 143 154 180 q 154 83 154 107 q 154 56 154 58 q 154 56 154 56 q 154 56 154 56 q 154 56 154 56 q 154 56 154 56 q 154 56 154 56 q 154 56 154 56 q 154 56 154 56 q 192 56 172 56 q 240 56 213 56 q 306 56 267 56 l 306 0 z "},"2":{"ha":683,"x_min":-28,"x_max":711,"o":"m -28 346 l 28 346 q 28 317 28 346 q 28 244 28 288 q 28 157 28 201 q 28 85 28 114 q 28 56 28 56 q 28 56 28 56 q 28 56 28 56 q 28 56 28 56 q 28 56 28 56 q 28 56 28 56 q 28 56 28 56 q 28 56 28 56 q 28 56 28 56 q 28 56 28 56 q 28 56 28 56 q 28 56 28 56 q 60 56 28 56 q 141 56 93 56 q 237 56 189 56 q 317 56 285 56 q 350 56 350 56 q 350 28 350 42 q 350 0 350 14 q 350 0 350 0 q 350 0 350 0 q 350 0 350 0 q 350 0 350 0 q 350 0 350 0 q 323 0 350 0 q 252 0 295 0 q 161 0 210 0 q 70 0 113 0 q 0 0 27 0 q -28 0 -28 0 q -28 0 -28 0 q -28 0 -28 0 q -28 0 -28 0 q -28 0 -28 0 q -28 25 -28 0 q -28 89 -28 50 q -28 173 -28 128 q -28 257 -28 217 q -28 321 -28 296 q -28 346 -28 346 m 711 426 l 656 426 l 656 647 q 645 661 656 649 q 618 689 634 673 q 585 722 602 706 q 557 748 569 738 q 543 758 545 758 q 543 758 543 758 q 543 758 543 758 q 543 758 543 758 q 543 758 543 758 q 512 758 535 758 q 461 758 490 758 q 404 758 432 758 q 356 758 376 758 q 333 758 337 758 q 333 786 333 772 q 333 814 333 801 q 333 814 333 814 q 333 814 333 814 q 333 814 333 814 q 333 814 333 814 q 333 814 333 814 q 361 814 333 814 q 431 814 388 814 q 522 814 474 814 q 614 814 571 814 q 684 814 656 814 q 711 814 711 814 q 711 814 711 814 q 711 814 711 814 q 711 814 711 814 q 711 814 711 814 q 711 794 711 814 q 711 742 711 775 q 711 667 711 708 q 711 583 711 626 q 711 499 711 539 q 711 426 711 458 m 711 346 q 711 321 711 346 q 711 257 711 296 q 711 173 711 217 q 711 89 711 128 q 711 25 711 50 q 711 0 711 0 q 711 0 711 0 q 711 0 711 0 q 711 0 711 0 q 711 0 711 0 q 684 0 711 0 q 614 0 656 0 q 522 0 571 0 q 431 0 474 0 q 361 0 388 0 q 333 0 333 0 q 333 0 333 0 q 333 0 333 0 q 333 0 333 0 q 333 0 333 0 q 333 0 333 0 q 333 28 333 14 q 333 56 333 42 q 366 56 333 56 q 447 56 399 56 q 542 56 494 56 q 623 56 590 56 q 656 56 656 56 q 656 56 656 56 q 656 56 656 56 q 656 56 656 56 q 656 56 656 56 q 656 56 656 56 q 656 56 656 56 q 656 56 656 56 q 656 56 656 56 q 656 56 656 56 q 656 56 656 56 q 656 56 656 56 q 656 85 656 56 q 656 157 656 114 q 656 244 656 201 q 656 317 656 288 q 656 346 656 346 l 711 346 m -28 468 q -28 493 -28 468 q -28 557 -28 518 q -28 641 -28 597 q -28 725 -28 685 q -28 789 -28 764 q -28 814 -28 814 q -28 814 -28 814 q -28 814 -28 814 q -28 814 -28 814 q -28 814 -28 814 q 0 814 -28 814 q 70 814 27 814 q 161 814 113 814 q 252 814 210 814 q 323 814 295 814 q 350 814 350 814 q 350 814 350 814 q 350 814 350 814 q 350 814 350 814 q 350 814 350 814 q 350 814 350 814 q 350 786 350 801 q 350 758 350 772 q 317 758 350 758 q 237 758 285 758 q 141 758 189 758 q 60 758 93 758 q 28 758 28 758 q 28 758 28 758 q 28 758 28 758 q 28 758 28 758 q 28 758 28 758 q 28 758 28 758 q 28 758 28 758 q 28 758 28 758 q 28 758 28 758 q 28 758 28 758 q 28 758 28 758 q 28 758 28 758 q 28 729 28 758 q 28 657 28 700 q 28 570 28 613 q 28 497 28 526 q 28 468 28 468 l -28 468 m 711 136 l 656 136 q 656 191 656 136 q 656 372 656 247 q 656 376 656 372 q 656 379 656 379 q 656 383 656 379 q 656 386 656 386 q 656 586 656 523 q 656 650 656 650 l 711 650 l 711 136 m -28 136 l -28 650 l 28 650 q 28 586 28 650 q 28 386 28 523 q 28 383 28 386 q 28 379 28 379 q 28 376 28 379 q 28 372 28 372 q 28 191 28 247 q 28 136 28 136 l -28 136 m 0 515 l 26 515 q 26 510 26 515 q 26 501 26 506 q 26 496 26 496 q 55 500 26 496 q 124 510 83 504 q 207 522 165 516 q 276 532 248 528 q 304 536 304 536 q 305 533 304 536 q 306 525 305 531 q 308 510 307 519 q 311 494 310 501 q 312 485 312 488 q 313 482 313 482 q 284 478 313 482 q 212 467 255 474 q 127 455 169 461 q 55 444 84 449 q 26 440 26 440 q 26 434 26 440 q 26 420 26 427 q 26 414 26 414 l 0 414 l 0 515 m 682 290 l 656 290 q 656 295 656 290 q 656 305 656 300 q 656 310 656 310 q 627 306 656 310 q 558 295 599 301 q 475 284 517 290 q 406 274 434 278 q 378 269 378 269 q 377 272 378 269 q 376 281 377 275 q 374 296 375 287 q 371 311 372 305 q 370 320 370 317 q 369 324 369 324 q 398 328 369 324 q 470 338 427 332 q 555 351 513 344 q 627 361 598 357 q 656 365 656 365 q 656 372 656 365 q 656 385 656 378 q 656 392 656 392 l 682 392 l 682 290 z "},"3":{"ha":683,"x_min":-28,"x_max":711,"o":"m -28 136 l -28 650 l 28 650 q 28 586 28 650 q 28 386 28 523 q 28 383 28 386 q 28 379 28 379 q 28 376 28 379 q 28 372 28 372 q 28 191 28 247 q 28 136 28 136 l -28 136 m 711 388 q 711 315 711 356 q 711 231 711 274 q 711 147 711 188 q 711 72 711 106 q 711 19 711 39 q 711 0 711 0 q 711 0 711 0 q 711 0 711 0 q 711 0 711 0 q 711 0 711 0 q 684 0 711 0 q 614 0 656 0 q 522 0 571 0 q 431 0 474 0 q 361 0 388 0 q 333 0 333 0 q 333 0 333 0 q 333 0 333 0 q 333 0 333 0 q 333 0 333 0 q 333 0 333 0 q 333 28 333 14 q 333 56 333 42 q 356 56 337 56 q 404 56 376 56 q 461 56 432 56 q 512 56 490 56 q 543 56 535 56 q 543 56 543 56 q 543 56 543 56 q 543 56 543 56 q 543 56 543 56 q 557 66 545 56 q 585 92 569 76 q 618 125 602 108 q 645 153 634 141 q 656 167 656 165 l 656 388 l 711 388 m 711 426 l 656 426 l 656 647 q 645 661 656 649 q 618 689 634 673 q 585 722 602 706 q 557 748 569 738 q 543 758 545 758 q 543 758 543 758 q 543 758 543 758 q 543 758 543 758 q 543 758 543 758 q 512 758 535 758 q 461 758 490 758 q 404 758 432 758 q 356 758 376 758 q 333 758 337 758 q 333 786 333 772 q 333 814 333 801 q 333 814 333 814 q 333 814 333 814 q 333 814 333 814 q 333 814 333 814 q 333 814 333 814 q 361 814 333 814 q 431 814 388 814 q 522 814 474 814 q 614 814 571 814 q 684 814 656 814 q 711 814 711 814 q 711 814 711 814 q 711 814 711 814 q 711 814 711 814 q 711 814 711 814 q 711 794 711 814 q 711 742 711 775 q 711 667 711 708 q 711 583 711 626 q 711 499 711 539 q 711 426 711 458 m -28 346 l 28 346 q 28 317 28 346 q 28 244 28 288 q 28 157 28 201 q 28 85 28 114 q 28 56 28 56 q 28 56 28 56 q 28 56 28 56 q 28 56 28 56 q 28 56 28 56 q 28 56 28 56 q 28 56 28 56 q 28 56 28 56 q 28 56 28 56 q 28 56 28 56 q 28 56 28 56 q 28 56 28 56 q 60 56 28 56 q 141 56 93 56 q 237 56 189 56 q 317 56 285 56 q 350 56 350 56 q 350 28 350 42 q 350 0 350 14 q 350 0 350 0 q 350 0 350 0 q 350 0 350 0 q 350 0 350 0 q 350 0 350 0 q 323 0 350 0 q 252 0 295 0 q 161 0 210 0 q 70 0 113 0 q 0 0 27 0 q -28 0 -28 0 q -28 0 -28 0 q -28 0 -28 0 q -28 0 -28 0 q -28 0 -28 0 q -28 25 -28 0 q -28 89 -28 50 q -28 173 -28 128 q -28 257 -28 217 q -28 321 -28 296 q -28 346 -28 346 m -28 468 q -28 493 -28 468 q -28 557 -28 518 q -28 641 -28 597 q -28 725 -28 685 q -28 789 -28 764 q -28 814 -28 814 q -28 814 -28 814 q -28 814 -28 814 q -28 814 -28 814 q -28 814 -28 814 q 0 814 -28 814 q 70 814 27 814 q 161 814 113 814 q 252 814 210 814 q 323 814 295 814 q 350 814 350 814 q 350 814 350 814 q 350 814 350 814 q 350 814 350 814 q 350 814 350 814 q 350 814 350 814 q 350 786 350 801 q 350 758 350 772 q 317 758 350 758 q 237 758 285 758 q 141 758 189 758 q 60 758 93 758 q 28 758 28 758 q 28 758 28 758 q 28 758 28 758 q 28 758 28 758 q 28 758 28 758 q 28 758 28 758 q 28 758 28 758 q 28 758 28 758 q 28 758 28 758 q 28 758 28 758 q 28 758 28 758 q 28 758 28 758 q 28 729 28 758 q 28 657 28 700 q 28 570 28 613 q 28 497 28 526 q 28 468 28 468 l -28 468 m 297 543 q 297 532 297 543 q 297 510 297 521 q 297 499 297 499 q 297 495 297 496 q 295 493 297 494 q 292 493 294 493 q 263 493 292 493 q 192 493 235 493 q 108 493 150 493 q 37 493 65 493 q 8 493 8 493 q 8 493 8 493 q 8 493 8 493 q 8 493 8 493 q 8 493 8 493 q 8 493 8 493 q 3 494 4 493 q 3 499 3 494 q 3 503 3 499 q 3 514 3 508 q 3 527 3 521 q 3 539 3 534 q 3 543 3 543 q 3 547 3 546 q 5 548 3 548 q 8 549 6 549 q 8 549 8 549 q 8 549 8 549 q 8 549 8 549 q 8 549 8 549 q 8 549 8 549 q 37 549 8 549 q 108 549 65 549 q 192 549 150 549 q 263 549 235 549 q 292 549 292 549 q 295 548 294 549 q 297 547 297 548 q 297 543 297 546 m 297 257 q 297 253 297 254 q 295 252 297 252 q 292 251 294 251 q 263 251 292 251 q 192 251 235 251 q 108 251 150 251 q 37 251 65 251 q 8 251 8 251 q 8 251 8 251 q 8 251 8 251 q 8 251 8 251 q 8 251 8 251 q 8 251 8 251 q 5 252 6 251 q 3 253 3 252 q 3 257 3 254 q 3 261 3 257 q 3 273 3 266 q 3 286 3 279 q 3 297 3 292 q 3 301 3 301 q 3 306 3 306 q 8 307 4 307 q 8 307 8 307 q 8 307 8 307 q 8 307 8 307 q 8 307 8 307 q 8 307 8 307 q 37 307 8 307 q 108 307 65 307 q 192 307 150 307 q 263 307 235 307 q 292 307 292 307 q 295 307 294 307 q 297 305 297 306 q 297 301 297 304 q 297 290 297 301 q 297 268 297 279 q 297 257 297 257 m 558 407 q 558 407 558 407 q 558 407 558 407 q 573 419 558 407 q 607 447 588 431 q 641 474 626 463 q 656 486 656 486 l 656 556 l 682 556 l 711 556 q 711 526 711 556 q 711 451 711 496 q 711 363 711 407 q 711 288 711 318 q 711 258 711 258 l 682 258 l 656 258 l 656 328 q 641 340 656 328 q 607 367 626 351 q 573 395 588 383 q 558 407 558 407 q 558 407 558 407 q 558 407 558 407 z "},"4":{"ha":736,"x_min":-28,"x_max":764,"o":"m 764 403 l 764 0 q 734 0 764 0 q 658 0 705 0 q 559 0 611 0 q 460 0 507 0 q 384 0 413 0 q 354 0 354 0 q 354 0 354 0 q 354 0 354 0 q 354 0 354 0 q 354 0 354 0 q 354 0 354 0 q 354 0 354 0 q 354 0 354 0 q 354 0 354 0 q 354 0 354 0 q 354 0 354 0 q 354 0 354 0 q 354 0 354 0 q 354 0 354 0 q 354 0 354 0 q 354 0 354 0 q 354 0 354 0 q 354 0 354 0 q 354 0 354 0 q 354 0 354 0 q 354 0 354 0 q 354 0 354 0 q 354 0 354 0 q 354 0 354 0 q 354 0 354 0 q 354 0 354 0 q 354 0 354 0 q 354 0 354 0 q 354 0 354 0 q 354 0 354 0 q 351 0 354 0 q 330 0 347 0 q 272 0 313 0 q 159 0 231 0 q -28 0 87 0 l -28 415 l 28 415 q 28 415 28 415 q 28 415 28 415 q 28 390 28 415 q 28 328 28 365 q 28 255 28 292 q 28 193 28 218 q 28 168 28 168 q 28 168 28 168 q 28 168 28 168 q 28 168 28 168 q 28 168 28 168 q 28 168 28 168 q 28 168 28 168 q 28 168 28 168 q 28 168 28 168 q 28 168 28 168 q 55 168 28 168 q 123 168 81 168 q 212 168 165 168 q 301 168 259 168 q 369 168 342 168 q 396 168 396 168 q 396 168 396 168 q 396 168 396 168 q 396 168 396 168 q 396 168 396 168 l 396 56 q 396 56 396 56 q 396 56 396 56 q 418 56 396 56 q 471 56 441 56 q 523 56 501 56 q 546 56 546 56 q 570 56 546 56 q 627 56 595 56 q 684 56 659 56 q 708 56 708 56 q 708 56 708 56 q 708 56 708 56 l 708 403 l 764 403 m -28 399 l -26 814 q -26 814 -26 814 q -26 814 -26 814 q -26 814 -26 814 q -26 814 -26 814 q 15 814 -6 814 q 55 814 35 814 q 93 814 75 814 q 126 814 111 814 q 151 814 140 814 q 167 814 162 814 q 176 814 168 814 q 199 814 184 814 q 234 814 214 814 q 280 814 255 814 q 335 814 306 814 q 399 814 365 814 q 399 814 399 814 q 399 814 399 814 q 399 814 399 814 q 399 786 399 801 q 399 758 399 772 q 384 758 399 758 q 350 758 369 758 q 316 758 331 758 q 301 758 301 758 q 301 758 301 758 q 301 758 301 758 q 301 758 301 758 q 301 758 301 758 q 280 739 301 758 q 229 687 260 719 q 163 620 198 656 q 98 553 128 585 q 47 500 67 521 q 28 479 28 480 q 28 479 28 479 q 28 479 28 479 q 28 479 28 479 q 28 479 28 479 q 28 462 28 473 q 28 439 28 451 q 28 416 28 426 q 28 399 28 405 l -28 399 m 764 468 l 708 468 q 708 497 708 468 q 708 570 708 526 q 708 657 708 613 q 708 729 708 700 q 708 758 708 758 q 708 758 708 758 q 708 758 708 758 q 708 758 708 758 q 708 758 708 758 q 708 758 708 758 q 708 758 708 758 q 708 758 708 758 q 708 758 708 758 q 708 758 708 758 q 708 758 708 758 q 708 758 708 758 q 676 758 708 758 q 595 758 643 758 q 499 758 547 758 q 419 758 451 758 q 386 758 386 758 q 386 786 386 772 q 386 814 386 801 q 386 814 386 814 q 386 814 386 814 q 386 814 386 814 q 386 814 386 814 q 386 814 386 814 q 414 814 386 814 q 484 814 441 814 q 575 814 526 814 q 666 814 624 814 q 736 814 709 814 q 764 814 764 814 q 764 814 764 814 q 764 814 764 814 q 764 814 764 814 q 764 814 764 814 q 764 789 764 814 q 764 725 764 764 q 764 641 764 685 q 764 557 764 597 q 764 493 764 518 q 764 468 764 468 m 764 261 l 708 261 q 708 283 708 261 q 708 334 708 305 q 708 385 708 363 q 708 407 708 407 q 708 407 708 407 q 708 407 708 407 q 708 407 708 407 q 708 407 708 407 q 708 429 708 407 q 708 480 708 451 q 708 531 708 509 q 708 553 708 553 l 764 553 l 764 261 m 354 364 q 354 390 354 364 q 354 450 354 416 q 354 510 354 484 q 354 536 354 536 q 354 536 354 536 q 354 536 354 536 q 355 541 354 540 q 360 542 356 542 q 375 542 367 542 q 389 542 382 542 q 404 542 397 542 q 409 541 408 542 q 410 536 410 540 q 410 536 410 536 q 410 536 410 536 q 410 510 410 536 q 410 450 410 484 q 410 390 410 416 q 410 364 410 364 q 410 364 410 364 q 410 364 410 364 q 410 364 410 364 q 410 364 410 364 q 410 364 410 364 q 410 364 410 364 q 410 364 410 364 q 409 359 410 360 q 404 358 408 358 q 382 358 393 358 q 360 358 372 358 q 355 359 356 358 q 354 364 354 360 q 354 364 354 364 q 354 364 354 364 q 354 364 354 364 q 354 364 354 364 q 354 364 354 364 q 354 364 354 364 q 354 364 354 364 z "},"5":{"ha":683,"x_min":-28,"x_max":711,"o":"m 711 135 l 656 135 q 656 190 656 135 q 656 371 656 245 q 656 374 656 371 q 656 378 656 378 q 656 381 656 378 q 656 385 656 385 q 656 585 656 522 q 656 649 656 649 l 711 649 l 711 135 m -28 136 l -28 650 l 28 650 q 28 586 28 650 q 28 386 28 523 q 28 383 28 386 q 28 379 28 379 q 28 376 28 379 q 28 372 28 372 q 28 191 28 247 q 28 136 28 136 l -28 136 m 0 290 l 0 392 l 26 392 q 26 385 26 392 q 26 372 26 378 q 26 365 26 365 q 55 361 26 365 q 127 351 84 357 q 212 338 169 344 q 284 328 255 332 q 313 324 313 324 q 312 320 313 324 q 311 311 312 317 q 308 296 310 305 q 306 281 307 287 q 305 272 305 275 q 304 269 304 269 q 276 274 304 269 q 207 284 248 278 q 124 295 165 290 q 55 306 83 301 q 26 310 26 310 q 26 305 26 310 q 26 295 26 300 q 26 290 26 290 l 0 290 m 379 540 q 380 544 379 543 q 381 545 380 545 q 385 546 382 546 q 413 546 385 546 q 484 546 442 546 q 569 546 526 546 q 640 546 611 546 q 668 546 668 546 q 668 546 668 546 q 668 546 668 546 q 668 546 668 546 q 668 546 668 546 q 668 546 668 546 q 672 545 671 546 q 673 544 673 545 q 674 540 674 543 q 674 536 674 540 q 674 525 674 531 q 674 511 674 518 q 674 500 674 505 q 674 496 674 496 q 673 491 674 492 q 668 490 672 490 q 668 490 668 490 q 668 490 668 490 q 668 490 668 490 q 668 490 668 490 q 668 490 668 490 q 640 490 668 490 q 569 490 611 490 q 484 490 526 490 q 413 490 442 490 q 385 490 385 490 q 381 491 382 490 q 380 492 380 491 q 379 496 379 493 q 379 507 379 496 q 379 529 379 518 q 379 540 379 540 m -28 346 l 28 346 q 28 317 28 346 q 28 244 28 288 q 28 157 28 201 q 28 85 28 114 q 28 56 28 56 q 28 56 28 56 q 28 56 28 56 q 28 56 28 56 q 28 56 28 56 q 28 56 28 56 q 28 56 28 56 q 28 56 28 56 q 28 56 28 56 q 28 56 28 56 q 28 56 28 56 q 28 56 28 56 q 60 56 28 56 q 141 56 93 56 q 237 56 189 56 q 317 56 285 56 q 350 56 350 56 q 350 28 350 42 q 350 0 350 14 q 350 0 350 0 q 350 0 350 0 q 350 0 350 0 q 350 0 350 0 q 350 0 350 0 q 323 0 350 0 q 252 0 295 0 q 161 0 210 0 q 70 0 113 0 q 0 0 27 0 q -28 0 -28 0 q -28 0 -28 0 q -28 0 -28 0 q -28 0 -28 0 q -28 0 -28 0 q -28 25 -28 0 q -28 89 -28 50 q -28 173 -28 128 q -28 257 -28 217 q -28 321 -28 296 q -28 346 -28 346 m 711 468 l 656 468 q 656 497 656 468 q 656 570 656 526 q 656 657 656 613 q 656 729 656 700 q 656 758 656 758 q 656 758 656 758 q 656 758 656 758 q 656 758 656 758 q 656 758 656 758 q 656 758 656 758 q 656 758 656 758 q 656 758 656 758 q 656 758 656 758 q 656 758 656 758 q 656 758 656 758 q 656 758 656 758 q 623 758 656 758 q 542 758 590 758 q 447 758 494 758 q 366 758 399 758 q 333 758 333 758 q 333 786 333 772 q 333 814 333 801 q 333 814 333 814 q 333 814 333 814 q 333 814 333 814 q 333 814 333 814 q 333 814 333 814 q 361 814 333 814 q 431 814 388 814 q 522 814 474 814 q 614 814 571 814 q 684 814 656 814 q 711 814 711 814 q 711 814 711 814 q 711 814 711 814 q 711 814 711 814 q 711 814 711 814 q 711 789 711 814 q 711 725 711 764 q 711 641 711 685 q 711 557 711 597 q 711 493 711 518 q 711 468 711 468 m -28 468 q -28 493 -28 468 q -28 557 -28 518 q -28 641 -28 597 q -28 725 -28 685 q -28 789 -28 764 q -28 814 -28 814 q -28 814 -28 814 q -28 814 -28 814 q -28 814 -28 814 q -28 814 -28 814 q 0 814 -28 814 q 70 814 27 814 q 161 814 113 814 q 252 814 210 814 q 323 814 295 814 q 350 814 350 814 q 350 814 350 814 q 350 814 350 814 q 350 814 350 814 q 350 814 350 814 q 350 814 350 814 q 350 786 350 801 q 350 758 350 772 q 317 758 350 758 q 237 758 285 758 q 141 758 189 758 q 60 758 93 758 q 28 758 28 758 q 28 758 28 758 q 28 758 28 758 q 28 758 28 758 q 28 758 28 758 q 28 758 28 758 q 28 758 28 758 q 28 758 28 758 q 28 758 28 758 q 28 758 28 758 q 28 758 28 758 q 28 758 28 758 q 28 729 28 758 q 28 657 28 700 q 28 570 28 613 q 28 497 28 526 q 28 468 28 468 l -28 468 m 711 388 q 711 315 711 356 q 711 231 711 274 q 711 147 711 188 q 711 72 711 106 q 711 19 711 39 q 711 0 711 0 q 711 0 711 0 q 711 0 711 0 q 711 0 711 0 q 711 0 711 0 q 684 0 711 0 q 614 0 656 0 q 522 0 571 0 q 431 0 474 0 q 361 0 388 0 q 333 0 333 0 q 333 0 333 0 q 333 0 333 0 q 333 0 333 0 q 333 0 333 0 q 333 0 333 0 q 333 28 333 14 q 333 56 333 42 q 356 56 337 56 q 404 56 376 56 q 461 56 432 56 q 512 56 490 56 q 543 56 535 56 q 543 56 543 56 q 543 56 543 56 q 543 56 543 56 q 543 56 543 56 q 557 66 545 56 q 585 92 569 76 q 618 125 602 108 q 645 153 634 141 q 656 167 656 165 l 656 388 l 711 388 z "},"6":{"ha":736,"x_min":-28,"x_max":764,"o":"m -28 388 l 28 388 l 28 167 q 39 153 28 165 q 65 125 49 141 q 98 92 81 108 q 126 66 115 76 q 140 56 138 56 q 140 56 140 56 q 140 56 140 56 q 140 56 140 56 q 164 56 140 56 q 224 56 188 56 q 294 56 259 56 q 354 56 330 56 q 378 56 378 56 q 378 28 378 42 q 378 0 378 14 q 378 0 378 0 q 378 0 378 0 q 378 0 378 0 q 378 0 378 0 q 378 0 378 0 q 342 0 373 0 q 264 0 310 0 q 168 0 218 0 q 73 0 117 0 q 0 0 28 0 q -28 0 -28 0 q -28 0 -28 0 q -28 0 -28 0 q -28 0 -28 0 q -28 0 -28 0 q -28 28 -28 0 q -28 100 -28 56 q -28 194 -28 144 q -28 287 -28 243 q -28 359 -28 331 q -28 388 -28 388 m 764 388 q 764 359 764 388 q 764 287 764 331 q 764 194 764 243 q 764 100 764 144 q 764 28 764 56 q 764 0 764 0 q 764 0 764 0 q 764 0 764 0 q 764 0 764 0 q 764 0 764 0 q 736 0 764 0 q 663 0 708 0 q 568 0 619 0 q 472 0 518 0 q 394 0 426 0 q 358 0 363 0 q 358 0 358 0 q 358 0 358 0 q 358 0 358 0 q 358 0 358 0 q 358 0 358 0 q 358 28 358 14 q 358 56 358 42 q 382 56 358 56 q 442 56 406 56 q 513 56 477 56 q 572 56 548 56 q 596 56 596 56 q 596 56 596 56 q 596 56 596 56 q 596 56 596 56 q 610 66 598 56 q 638 92 622 76 q 671 125 655 108 q 698 153 687 141 q 708 167 708 165 l 708 388 l 764 388 m -28 426 q -28 455 -28 426 q -28 527 -28 483 q -28 620 -28 571 q -28 714 -28 669 q -28 786 -28 758 q -28 814 -28 814 q -28 814 -28 814 q -28 814 -28 814 q -28 814 -28 814 q -28 814 -28 814 q 0 814 -28 814 q 73 814 28 814 q 168 814 117 814 q 264 814 218 814 q 342 814 310 814 q 378 814 373 814 q 378 814 378 814 q 378 814 378 814 q 378 814 378 814 q 378 814 378 814 q 378 814 378 814 q 378 786 378 801 q 378 758 378 772 q 354 758 378 758 q 294 758 330 758 q 224 758 259 758 q 164 758 188 758 q 140 758 140 758 q 140 758 140 758 q 140 758 140 758 q 140 758 140 758 q 126 748 138 758 q 98 722 115 738 q 65 689 81 706 q 39 661 49 673 q 28 647 28 649 l 28 426 l -28 426 m 764 426 l 708 426 q 708 450 708 426 q 708 512 708 474 q 708 592 708 550 q 708 673 708 635 q 708 734 708 710 q 708 758 708 758 q 708 758 708 758 q 708 758 708 758 q 708 758 708 758 q 708 758 708 758 q 708 758 708 758 q 708 758 708 758 q 708 758 708 758 q 708 758 708 758 q 708 758 708 758 q 708 758 708 758 q 708 758 708 758 q 708 758 708 758 q 683 758 708 758 q 618 758 658 758 q 533 758 578 758 q 449 758 489 758 q 384 758 409 758 q 358 758 358 758 q 358 786 358 772 q 358 814 358 801 q 358 814 358 814 q 358 814 358 814 q 358 814 358 814 q 358 814 358 814 q 358 814 358 814 q 388 814 358 814 q 463 814 417 814 q 561 814 509 814 q 659 814 613 814 q 735 814 706 814 q 764 814 764 814 q 764 814 764 814 q 764 814 764 814 q 764 814 764 814 q 764 814 764 814 q 764 786 764 814 q 764 714 764 758 q 764 620 764 669 q 764 527 764 571 q 764 455 764 483 q 764 426 764 426 m 764 679 l 764 165 l 708 165 q 708 229 708 165 q 708 429 708 293 q 708 433 708 429 q 708 436 708 436 q 708 440 708 436 q 708 443 708 443 q 708 624 708 569 q 708 679 708 679 l 764 679 m 469 313 q 469 313 469 313 q 469 313 469 313 q 469 313 469 313 q 469 313 469 313 q 469 313 469 313 q 469 313 469 313 q 469 313 469 313 q 474 312 474 313 q 475 307 475 311 q 475 292 475 299 q 475 277 475 285 q 475 263 475 270 q 474 258 475 258 q 469 257 474 257 q 469 257 469 257 q 469 257 469 257 q 469 257 469 257 q 469 257 469 257 q 469 257 469 257 q 469 257 469 257 q 469 257 469 257 q 443 257 469 257 q 383 257 417 257 q 323 257 349 257 q 297 257 297 257 q 297 257 297 257 q 297 257 297 257 q 292 258 293 257 q 292 263 292 258 q 292 277 292 270 q 292 292 292 285 q 292 307 292 299 q 292 312 292 311 q 297 313 293 313 q 297 313 297 313 q 297 313 297 313 q 323 313 297 313 q 383 313 349 313 q 443 313 417 313 q 469 313 469 313 m 601 497 q 583 497 601 497 q 535 497 564 497 q 472 497 506 497 q 410 497 439 497 q 362 497 381 497 q 343 497 343 497 q 343 505 343 497 q 343 519 343 512 q 343 526 343 526 q 343 533 343 526 q 343 546 343 540 q 343 553 343 553 q 390 553 361 553 q 456 553 419 553 q 531 553 492 553 q 606 553 569 553 q 673 553 642 553 q 721 553 703 553 q 721 553 721 553 q 721 553 721 553 q 721 553 721 553 q 721 516 721 542 q 721 455 721 489 q 721 388 721 421 q 721 331 721 354 q 721 301 721 307 l 710 301 q 710 326 710 311 q 710 359 710 340 q 710 400 710 378 q 699 413 710 402 q 674 437 689 423 q 642 465 658 451 q 615 488 626 479 q 601 497 603 497 m -28 261 l -28 553 l 28 553 q 28 531 28 553 q 28 480 28 509 q 28 429 28 451 q 28 407 28 407 q 28 407 28 407 q 28 407 28 407 q 28 407 28 407 q 28 407 28 407 q 28 385 28 407 q 28 334 28 363 q 28 283 28 305 q 28 261 28 261 l -28 261 z "},"7":{"ha":683,"x_min":-28,"x_max":711,"o":"m 711 553 l 711 261 l 656 261 q 656 283 656 261 q 656 334 656 305 q 656 385 656 363 q 656 407 656 407 q 656 407 656 407 q 656 407 656 407 q 656 407 656 407 q 656 407 656 407 q 656 429 656 407 q 656 480 656 451 q 656 531 656 509 q 656 553 656 553 l 711 553 m 711 468 l 656 468 q 656 497 656 468 q 656 570 656 526 q 656 657 656 613 q 656 729 656 700 q 656 758 656 758 q 656 758 656 758 q 656 758 656 758 q 656 758 656 758 q 656 758 656 758 q 656 758 656 758 q 656 758 656 758 q 656 758 656 758 q 656 758 656 758 q 656 758 656 758 q 656 758 656 758 q 656 758 656 758 q 623 758 656 758 q 542 758 590 758 q 447 758 494 758 q 366 758 399 758 q 333 758 333 758 q 333 786 333 772 q 333 814 333 801 q 333 814 333 814 q 333 814 333 814 q 333 814 333 814 q 333 814 333 814 q 333 814 333 814 q 361 814 333 814 q 431 814 388 814 q 522 814 474 814 q 614 814 571 814 q 684 814 656 814 q 711 814 711 814 q 711 814 711 814 q 711 814 711 814 q 711 814 711 814 q 711 814 711 814 q 711 789 711 814 q 711 725 711 764 q 711 641 711 685 q 711 557 711 597 q 711 493 711 518 q 711 468 711 468 m -28 468 q -28 493 -28 468 q -28 557 -28 518 q -28 641 -28 597 q -28 725 -28 685 q -28 789 -28 764 q -28 814 -28 814 q -28 814 -28 814 q -28 814 -28 814 q -28 814 -28 814 q -28 814 -28 814 q 0 814 -28 814 q 70 814 27 814 q 161 814 113 814 q 252 814 210 814 q 323 814 295 814 q 350 814 350 814 q 350 814 350 814 q 350 814 350 814 q 350 814 350 814 q 350 814 350 814 q 350 814 350 814 q 350 786 350 801 q 350 758 350 772 q 317 758 350 758 q 237 758 285 758 q 141 758 189 758 q 60 758 93 758 q 28 758 28 758 q 28 758 28 758 q 28 758 28 758 q 28 758 28 758 q 28 758 28 758 q 28 758 28 758 q 28 758 28 758 q 28 758 28 758 q 28 758 28 758 q 28 758 28 758 q 28 758 28 758 q 28 758 28 758 q 28 729 28 758 q 28 657 28 700 q 28 570 28 613 q 28 497 28 526 q 28 468 28 468 l -28 468 m 656 318 l 711 318 l 711 0 q 711 0 711 0 q 711 0 711 0 q 711 0 711 0 q 711 0 711 0 q 711 0 711 0 q 711 0 711 0 q 559 0 622 0 q 457 0 497 0 q 394 0 417 0 q 362 0 372 0 q 351 0 353 0 q 351 0 351 0 q 351 0 351 0 q 351 0 351 0 q 351 0 351 0 q 351 0 351 0 q 351 0 351 0 q 343 0 351 0 q 320 0 336 0 q 276 0 304 0 q 207 0 249 0 q 108 0 166 0 q -28 0 50 0 q -28 0 -28 0 q -28 0 -28 0 q -28 0 -28 0 q -28 0 -28 0 q -28 0 -28 0 q -28 0 -28 0 q -28 0 -28 0 q -28 0 -28 0 l -28 571 l 28 571 l 28 340 q 28 340 28 340 q 28 340 28 340 q 28 340 28 340 q 28 340 28 340 q 28 340 28 340 q 28 340 28 340 q 28 340 28 340 q 28 340 28 340 q 48 340 28 340 q 99 340 67 340 q 165 340 130 340 q 231 340 199 340 q 282 340 262 340 q 301 340 301 340 q 301 360 301 340 q 301 409 301 380 q 301 466 301 438 q 301 515 301 495 q 301 535 301 535 q 301 535 301 535 q 301 535 301 535 q 301 535 301 535 q 315 535 301 535 q 342 535 328 535 q 356 535 356 535 q 356 522 356 535 q 356 488 356 510 q 356 437 356 466 q 356 375 356 408 q 356 307 356 342 q 356 238 356 272 q 356 148 356 189 q 356 81 356 106 q 356 56 356 56 q 356 56 356 56 q 356 56 356 56 q 356 56 356 56 q 356 56 356 56 q 356 56 356 56 q 356 56 356 56 q 356 56 356 56 q 386 56 356 56 q 461 56 416 56 q 550 56 506 56 q 625 56 595 56 q 656 56 656 56 q 656 56 656 56 q 656 56 656 56 q 656 56 656 56 q 656 56 656 56 q 656 56 656 56 q 656 56 656 56 l 656 318 z "},"8":{"ha":736,"x_min":-28,"x_max":764,"o":"m 764 388 q 764 359 764 388 q 764 287 764 331 q 764 194 764 243 q 764 100 764 144 q 764 28 764 56 q 764 0 764 0 q 764 0 764 0 q 764 0 764 0 q 764 0 764 0 q 764 0 764 0 q 736 0 764 0 q 663 0 708 0 q 568 0 619 0 q 472 0 518 0 q 394 0 426 0 q 358 0 363 0 q 358 0 358 0 q 358 0 358 0 q 358 0 358 0 q 358 0 358 0 q 358 0 358 0 q 358 28 358 14 q 358 56 358 42 q 382 56 358 56 q 442 56 406 56 q 513 56 477 56 q 572 56 548 56 q 596 56 596 56 q 596 56 596 56 q 596 56 596 56 q 596 56 596 56 q 610 66 598 56 q 638 92 622 76 q 671 125 655 108 q 698 153 687 141 q 708 167 708 165 l 708 388 l 764 388 m 764 426 l 708 426 l 708 647 q 698 661 708 649 q 671 689 687 673 q 638 722 655 706 q 610 748 622 738 q 596 758 598 758 q 596 758 596 758 q 596 758 596 758 q 596 758 596 758 q 572 758 596 758 q 513 758 548 758 q 442 758 477 758 q 382 758 406 758 q 358 758 358 758 q 358 786 358 772 q 358 814 358 801 q 358 814 358 814 q 358 814 358 814 q 358 814 358 814 q 358 814 358 814 q 358 814 358 814 q 394 814 363 814 q 472 814 426 814 q 568 814 518 814 q 663 814 619 814 q 736 814 708 814 q 764 814 764 814 q 764 814 764 814 q 764 814 764 814 q 764 814 764 814 q 764 814 764 814 q 764 786 764 814 q 764 714 764 758 q 764 620 764 669 q 764 527 764 571 q 764 455 764 483 q 764 426 764 426 m -28 388 l 28 388 l 28 167 q 39 153 28 165 q 65 125 49 141 q 98 92 81 108 q 126 66 115 76 q 140 56 138 56 q 140 56 140 56 q 140 56 140 56 q 140 56 140 56 q 164 56 140 56 q 224 56 188 56 q 294 56 259 56 q 354 56 330 56 q 378 56 378 56 q 378 28 378 42 q 378 0 378 14 q 378 0 378 0 q 378 0 378 0 q 378 0 378 0 q 378 0 378 0 q 378 0 378 0 q 342 0 373 0 q 264 0 310 0 q 168 0 218 0 q 73 0 117 0 q 0 0 28 0 q -28 0 -28 0 q -28 0 -28 0 q -28 0 -28 0 q -28 0 -28 0 q -28 0 -28 0 q -28 28 -28 0 q -28 100 -28 56 q -28 194 -28 144 q -28 287 -28 243 q -28 359 -28 331 q -28 388 -28 388 m -28 426 q -28 455 -28 426 q -28 527 -28 483 q -28 620 -28 571 q -28 714 -28 669 q -28 786 -28 758 q -28 814 -28 814 q -28 814 -28 814 q -28 814 -28 814 q -28 814 -28 814 q -28 814 -28 814 q 0 814 -28 814 q 73 814 28 814 q 168 814 117 814 q 264 814 218 814 q 342 814 310 814 q 378 814 373 814 q 378 814 378 814 q 378 814 378 814 q 378 814 378 814 q 378 814 378 814 q 378 814 378 814 q 378 786 378 801 q 378 758 378 772 q 354 758 378 758 q 294 758 330 758 q 224 758 259 758 q 164 758 188 758 q 140 758 140 758 q 140 758 140 758 q 140 758 140 758 q 140 758 140 758 q 126 748 138 758 q 98 722 115 738 q 65 689 81 706 q 39 661 49 673 q 28 647 28 649 l 28 426 l -28 426 m 456 549 q 456 549 456 549 q 456 549 456 549 q 456 549 456 549 q 456 549 456 549 q 456 549 456 549 q 456 549 456 549 q 456 549 456 549 q 460 548 460 549 q 461 543 461 547 q 461 528 461 535 q 461 514 461 521 q 461 499 461 506 q 460 494 461 494 q 456 493 460 493 q 456 493 456 493 q 456 493 456 493 q 456 493 456 493 q 456 493 456 493 q 456 493 456 493 q 456 493 456 493 q 456 493 456 493 q 430 493 456 493 q 369 493 403 493 q 309 493 335 493 q 283 493 283 493 q 283 493 283 493 q 283 493 283 493 q 278 494 279 493 q 278 499 278 494 q 278 514 278 506 q 278 528 278 521 q 278 543 278 535 q 278 548 278 547 q 283 549 279 549 q 283 549 283 549 q 283 549 283 549 q 309 549 283 549 q 369 549 335 549 q 430 549 403 549 q 456 549 456 549 m 283 267 q 283 267 283 267 q 283 267 283 267 q 283 267 283 267 q 283 267 283 267 q 283 267 283 267 q 283 267 283 267 q 283 267 283 267 q 278 267 279 267 q 278 272 278 268 q 278 287 278 280 q 278 302 278 294 q 278 317 278 309 q 278 322 278 321 q 283 322 279 322 q 283 322 283 322 q 283 322 283 322 q 283 322 283 322 q 283 322 283 322 q 283 322 283 322 q 283 322 283 322 q 283 322 283 322 q 309 322 283 322 q 369 322 335 322 q 430 322 403 322 q 456 322 456 322 q 456 322 456 322 q 456 322 456 322 q 460 322 460 322 q 461 317 461 321 q 461 302 461 309 q 461 287 461 294 q 461 272 461 280 q 460 267 461 268 q 456 267 460 267 q 456 267 456 267 q 456 267 456 267 q 430 267 456 267 q 369 267 403 267 q 309 267 335 267 q 283 267 283 267 m 611 407 q 611 407 611 407 q 611 407 611 407 q 626 419 611 407 q 660 447 640 431 q 694 474 679 463 q 708 486 708 486 l 708 556 l 735 556 l 764 556 q 764 526 764 556 q 764 451 764 496 q 764 363 764 407 q 764 288 764 318 q 764 258 764 258 l 735 258 l 708 258 l 708 328 q 694 340 708 328 q 660 367 679 351 q 626 395 640 383 q 611 407 611 407 q 611 407 611 407 q 611 407 611 407 m 125 407 q 125 407 125 407 q 125 407 125 407 q 110 395 125 407 q 76 367 96 383 q 42 340 57 351 q 28 328 28 328 l 28 258 l 1 258 l -28 258 q -28 288 -28 258 q -28 363 -28 318 q -28 451 -28 407 q -28 526 -28 496 q -28 556 -28 556 l 1 556 l 28 556 l 28 486 q 42 474 28 486 q 76 447 57 463 q 110 419 96 431 q 125 407 125 407 q 125 407 125 407 q 125 407 125 407 z "},"9":{"ha":736,"x_min":-28,"x_max":764,"o":"m -28 388 l 28 388 q 28 364 28 388 q 28 302 28 340 q 28 222 28 264 q 28 141 28 179 q 28 80 28 103 q 28 56 28 56 q 28 56 28 56 q 28 56 28 56 q 28 56 28 56 q 28 56 28 56 q 28 56 28 56 q 28 56 28 56 q 28 56 28 56 q 28 56 28 56 q 28 56 28 56 q 28 56 28 56 q 28 56 28 56 q 28 56 28 56 q 53 56 28 56 q 118 56 78 56 q 203 56 158 56 q 287 56 247 56 q 352 56 327 56 q 378 56 378 56 q 378 28 378 42 q 378 0 378 14 q 378 0 378 0 q 378 0 378 0 q 378 0 378 0 q 378 0 378 0 q 378 0 378 0 q 349 0 378 0 q 273 0 319 0 q 175 0 227 0 q 77 0 123 0 q 1 0 31 0 q -28 0 -28 0 q -28 0 -28 0 q -28 0 -28 0 q -28 0 -28 0 q -28 0 -28 0 q -28 28 -28 0 q -28 100 -28 56 q -28 194 -28 144 q -28 287 -28 243 q -28 359 -28 331 q -28 388 -28 388 m 764 388 q 764 359 764 388 q 764 287 764 331 q 764 194 764 243 q 764 100 764 144 q 764 28 764 56 q 764 0 764 0 q 764 0 764 0 q 764 0 764 0 q 764 0 764 0 q 764 0 764 0 q 736 0 764 0 q 663 0 708 0 q 568 0 619 0 q 472 0 518 0 q 394 0 426 0 q 358 0 363 0 q 358 0 358 0 q 358 0 358 0 q 358 0 358 0 q 358 0 358 0 q 358 0 358 0 q 358 28 358 14 q 358 56 358 42 q 382 56 358 56 q 442 56 406 56 q 513 56 477 56 q 572 56 548 56 q 596 56 596 56 q 596 56 596 56 q 596 56 596 56 q 596 56 596 56 q 610 66 598 56 q 638 92 622 76 q 671 125 655 108 q 698 153 687 141 q 708 167 708 165 l 708 388 l 764 388 m -28 426 q -28 455 -28 426 q -28 527 -28 483 q -28 620 -28 571 q -28 714 -28 669 q -28 786 -28 758 q -28 814 -28 814 q -28 814 -28 814 q -28 814 -28 814 q -28 814 -28 814 q -28 814 -28 814 q 0 814 -28 814 q 73 814 28 814 q 168 814 117 814 q 264 814 218 814 q 342 814 310 814 q 378 814 373 814 q 378 814 378 814 q 378 814 378 814 q 378 814 378 814 q 378 814 378 814 q 378 814 378 814 q 378 786 378 801 q 378 758 378 772 q 354 758 378 758 q 294 758 330 758 q 224 758 259 758 q 164 758 188 758 q 140 758 140 758 q 140 758 140 758 q 140 758 140 758 q 140 758 140 758 q 126 748 138 758 q 98 722 115 738 q 65 689 81 706 q 39 661 49 673 q 28 647 28 649 l 28 426 l -28 426 m 764 426 l 708 426 l 708 647 q 698 661 708 649 q 671 689 687 673 q 638 722 655 706 q 610 748 622 738 q 596 758 598 758 q 596 758 596 758 q 596 758 596 758 q 596 758 596 758 q 572 758 596 758 q 513 758 548 758 q 442 758 477 758 q 382 758 406 758 q 358 758 358 758 q 358 786 358 772 q 358 814 358 801 q 358 814 358 814 q 358 814 358 814 q 358 814 358 814 q 358 814 358 814 q 358 814 358 814 q 394 814 363 814 q 472 814 426 814 q 568 814 518 814 q 663 814 619 814 q 736 814 708 814 q 764 814 764 814 q 764 814 764 814 q 764 814 764 814 q 764 814 764 814 q 764 814 764 814 q 764 786 764 814 q 764 714 764 758 q 764 620 764 669 q 764 527 764 571 q 764 455 764 483 q 764 426 764 426 m 460 535 q 460 535 460 535 q 460 535 460 535 q 460 535 460 535 q 460 535 460 535 q 460 535 460 535 q 460 535 460 535 q 460 535 460 535 q 465 534 464 535 q 465 529 465 533 q 465 514 465 522 q 465 500 465 507 q 465 485 465 492 q 465 480 465 481 q 460 479 464 479 q 460 479 460 479 q 460 479 460 479 q 460 479 460 479 q 460 479 460 479 q 460 479 460 479 q 460 479 460 479 q 460 479 460 479 q 434 479 460 479 q 374 479 408 479 q 314 479 340 479 q 288 479 288 479 q 288 479 288 479 q 288 479 288 479 q 283 480 283 479 q 282 485 282 481 q 282 500 282 492 q 282 514 282 507 q 282 529 282 522 q 283 534 282 533 q 288 535 283 535 q 288 535 288 535 q 288 535 288 535 q 314 535 288 535 q 374 535 340 535 q 434 535 408 535 q 460 535 460 535 m 136 293 q 155 293 136 293 q 203 293 174 293 q 265 293 232 293 q 328 293 299 293 q 376 293 357 293 q 394 293 394 293 q 394 286 394 293 q 394 271 394 278 q 394 264 394 264 q 394 257 394 264 q 394 244 394 251 q 394 238 394 238 q 348 238 377 238 q 282 238 318 238 q 207 238 245 238 q 132 238 168 238 q 65 238 95 238 q 17 238 35 238 q 17 238 17 238 q 17 238 17 238 q 17 238 17 238 q 17 275 17 248 q 17 335 17 301 q 17 403 17 369 q 17 460 17 436 q 17 489 17 483 l 28 489 q 28 465 28 479 q 28 431 28 450 q 28 390 28 413 q 38 378 28 388 q 64 353 49 367 q 95 325 79 339 q 123 302 111 311 q 136 293 134 293 m 764 553 l 764 261 l 708 261 q 708 283 708 261 q 708 334 708 305 q 708 385 708 363 q 708 407 708 407 q 708 407 708 407 q 708 407 708 407 q 708 407 708 407 q 708 407 708 407 q 708 429 708 407 q 708 480 708 451 q 708 531 708 509 q 708 553 708 553 l 764 553 m -28 263 l -28 554 l 28 554 q 28 532 28 554 q 28 481 28 510 q 28 430 28 452 q 28 408 28 408 q 28 408 28 408 q 28 408 28 408 q 28 408 28 408 q 28 408 28 408 q 28 386 28 408 q 28 335 28 365 q 28 284 28 306 q 28 263 28 263 l -28 263 z "},"\r":{"ha":2390,"x_min":0,"x_max":0,"o":""}," ":{"ha":389,"x_min":0,"x_max":0,"o":""},"A":{"ha":736,"x_min":-28,"x_max":764,"o":"m -28 388 l 28 388 q 28 364 28 388 q 28 302 28 340 q 28 222 28 264 q 28 141 28 179 q 28 80 28 103 q 28 56 28 56 q 28 56 28 56 q 28 56 28 56 q 28 56 28 56 q 28 56 28 56 q 28 56 28 56 q 28 56 28 56 q 28 56 28 56 q 28 56 28 56 q 28 56 28 56 q 28 56 28 56 q 28 56 28 56 q 28 56 28 56 q 28 56 28 56 q 53 56 28 56 q 118 56 78 56 q 203 56 158 56 q 287 56 247 56 q 352 56 327 56 q 378 56 378 56 q 378 28 378 42 q 378 0 378 14 q 378 0 378 0 q 378 0 378 0 q 378 0 378 0 q 378 0 378 0 q 378 0 378 0 q 349 0 378 0 q 273 0 319 0 q 175 0 227 0 q 77 0 123 0 q 1 0 31 0 q -28 0 -28 0 q -28 0 -28 0 q -28 0 -28 0 q -28 0 -28 0 q -28 0 -28 0 q -28 28 -28 0 q -28 100 -28 56 q -28 194 -28 144 q -28 287 -28 243 q -28 359 -28 331 q -28 388 -28 388 m 764 388 q 764 359 764 388 q 764 287 764 331 q 764 194 764 243 q 764 100 764 144 q 764 28 764 56 q 764 0 764 0 q 764 0 764 0 q 764 0 764 0 q 764 0 764 0 q 764 0 764 0 q 735 0 764 0 q 659 0 706 0 q 561 0 613 0 q 463 0 509 0 q 388 0 417 0 q 358 0 358 0 q 358 0 358 0 q 358 0 358 0 q 358 0 358 0 q 358 0 358 0 q 358 0 358 0 q 358 28 358 14 q 358 56 358 42 q 384 56 358 56 q 449 56 409 56 q 533 56 489 56 q 618 56 578 56 q 683 56 658 56 q 708 56 708 56 q 708 56 708 56 q 708 56 708 56 q 708 56 708 56 q 708 56 708 56 q 708 56 708 56 q 708 56 708 56 q 708 56 708 56 q 708 56 708 56 q 708 56 708 56 q 708 56 708 56 q 708 56 708 56 q 708 56 708 56 q 708 56 708 56 q 708 80 708 56 q 708 141 708 103 q 708 222 708 179 q 708 302 708 264 q 708 364 708 340 q 708 388 708 388 l 764 388 m -28 426 q -28 455 -28 426 q -28 527 -28 483 q -28 620 -28 571 q -28 714 -28 669 q -28 786 -28 758 q -28 814 -28 814 q -28 814 -28 814 q -28 814 -28 814 q -28 814 -28 814 q -28 814 -28 814 q 0 814 -28 814 q 73 814 28 814 q 168 814 117 814 q 264 814 218 814 q 342 814 310 814 q 378 814 373 814 q 378 814 378 814 q 378 814 378 814 q 378 814 378 814 q 378 814 378 814 q 378 814 378 814 q 378 786 378 801 q 378 758 378 772 q 354 758 378 758 q 294 758 330 758 q 224 758 259 758 q 164 758 188 758 q 140 758 140 758 q 140 758 140 758 q 140 758 140 758 q 140 758 140 758 q 126 748 138 758 q 98 722 115 738 q 65 689 81 706 q 39 661 49 673 q 28 647 28 649 l 28 426 l -28 426 m 764 426 l 708 426 l 708 647 q 698 661 708 649 q 671 689 687 673 q 638 722 655 706 q 610 748 622 738 q 596 758 598 758 q 596 758 596 758 q 596 758 596 758 q 596 758 596 758 q 572 758 596 758 q 513 758 548 758 q 442 758 477 758 q 382 758 406 758 q 358 758 358 758 q 358 786 358 772 q 358 814 358 801 q 358 814 358 814 q 358 814 358 814 q 358 814 358 814 q 358 814 358 814 q 358 814 358 814 q 394 814 363 814 q 472 814 426 814 q 568 814 518 814 q 663 814 619 814 q 736 814 708 814 q 764 814 764 814 q 764 814 764 814 q 764 814 764 814 q 764 814 764 814 q 764 814 764 814 q 764 786 764 814 q 764 714 764 758 q 764 620 764 669 q 764 527 764 571 q 764 455 764 483 q 764 426 764 426 m 342 381 q 342 407 342 381 q 342 467 342 433 q 342 527 342 501 q 342 553 342 553 q 342 553 342 553 q 342 553 342 553 q 342 558 342 558 q 347 559 343 559 q 362 559 355 559 q 377 559 369 559 q 392 559 384 559 q 397 558 396 559 q 397 553 397 558 q 397 553 397 553 q 397 553 397 553 q 397 527 397 553 q 397 467 397 501 q 397 407 397 433 q 397 381 397 381 q 397 381 397 381 q 397 381 397 381 q 397 381 397 381 q 397 381 397 381 q 397 381 397 381 q 397 381 397 381 q 397 381 397 381 q 397 376 397 377 q 392 376 396 376 q 370 376 381 376 q 347 376 359 376 q 342 376 343 376 q 342 381 342 377 q 342 381 342 381 q 342 381 342 381 q 342 381 342 381 q 342 381 342 381 q 342 381 342 381 q 342 381 342 381 q 342 381 342 381 m 394 247 q 398 247 397 247 q 400 245 399 247 q 400 242 400 244 q 400 223 400 242 q 400 176 400 204 q 400 121 400 149 q 400 74 400 93 q 400 56 400 56 q 400 56 400 56 q 400 56 400 56 q 400 56 400 56 q 400 56 400 56 q 400 56 400 56 q 400 52 400 53 q 399 51 400 51 q 398 50 399 50 q 394 50 397 50 q 383 50 394 50 q 361 50 372 50 q 350 50 350 50 q 347 50 348 50 q 345 51 346 50 q 344 52 344 51 q 344 56 344 53 q 344 56 344 56 q 344 56 344 56 q 344 56 344 56 q 344 56 344 56 q 344 56 344 56 q 344 74 344 56 q 344 121 344 93 q 344 176 344 149 q 344 223 344 204 q 344 242 344 242 q 345 245 344 244 q 346 247 345 247 q 350 247 347 247 q 361 247 350 247 q 383 247 372 247 q 394 247 394 247 m 764 261 l 708 261 q 708 283 708 261 q 708 334 708 305 q 708 385 708 363 q 708 407 708 407 q 708 407 708 407 q 708 407 708 407 q 708 407 708 407 q 708 407 708 407 q 708 429 708 407 q 708 480 708 451 q 708 531 708 509 q 708 553 708 553 l 764 553 l 764 261 m -28 261 l -28 553 l 28 553 q 28 531 28 553 q 28 480 28 509 q 28 429 28 451 q 28 407 28 407 q 28 407 28 407 q 28 407 28 407 q 28 407 28 407 q 28 407 28 407 q 28 385 28 407 q 28 334 28 363 q 28 283 28 305 q 28 261 28 261 l -28 261 z "},"B":{"ha":736,"x_min":-28,"x_max":764,"o":"m -28 261 l -28 553 l 28 553 q 28 531 28 553 q 28 480 28 509 q 28 429 28 451 q 28 407 28 407 q 28 407 28 407 q 28 407 28 407 q 28 407 28 407 q 28 407 28 407 q 28 385 28 407 q 28 334 28 363 q 28 283 28 305 q 28 261 28 261 l -28 261 m 764 388 q 764 359 764 388 q 764 287 764 331 q 764 194 764 243 q 764 100 764 144 q 764 28 764 56 q 764 0 764 0 q 764 0 764 0 q 764 0 764 0 q 764 0 764 0 q 764 0 764 0 q 736 0 764 0 q 663 0 708 0 q 568 0 619 0 q 472 0 518 0 q 394 0 426 0 q 358 0 363 0 q 358 0 358 0 q 358 0 358 0 q 358 0 358 0 q 358 0 358 0 q 358 0 358 0 q 358 28 358 14 q 358 56 358 42 q 382 56 358 56 q 442 56 406 56 q 513 56 477 56 q 572 56 548 56 q 596 56 596 56 q 596 56 596 56 q 596 56 596 56 q 596 56 596 56 q 610 66 598 56 q 638 92 622 76 q 671 125 655 108 q 698 153 687 141 q 708 167 708 165 l 708 388 l 764 388 m 764 426 l 708 426 l 708 647 q 698 661 708 649 q 671 689 687 673 q 638 722 655 706 q 610 748 622 738 q 596 758 598 758 q 596 758 596 758 q 596 758 596 758 q 596 758 596 758 q 572 758 596 758 q 513 758 548 758 q 442 758 477 758 q 382 758 406 758 q 358 758 358 758 q 358 786 358 772 q 358 814 358 801 q 358 814 358 814 q 358 814 358 814 q 358 814 358 814 q 358 814 358 814 q 358 814 358 814 q 394 814 363 814 q 472 814 426 814 q 568 814 518 814 q 663 814 619 814 q 736 814 708 814 q 764 814 764 814 q 764 814 764 814 q 764 814 764 814 q 764 814 764 814 q 764 814 764 814 q 764 786 764 814 q 764 714 764 758 q 764 620 764 669 q 764 527 764 571 q 764 455 764 483 q 764 426 764 426 m 611 393 q 611 393 611 393 q 611 393 611 393 q 626 405 611 393 q 660 433 640 417 q 694 460 679 449 q 708 472 708 472 l 708 542 l 735 542 l 764 542 q 764 512 764 542 q 764 438 764 482 q 764 349 764 393 q 764 274 764 304 q 764 244 764 244 l 735 244 l 708 244 l 708 314 q 694 326 708 314 q 660 353 679 338 q 626 381 640 369 q 611 393 611 393 q 611 393 611 393 q 611 393 611 393 m -28 388 l 28 388 q 28 364 28 388 q 28 302 28 340 q 28 222 28 264 q 28 141 28 179 q 28 80 28 103 q 28 56 28 56 q 28 56 28 56 q 28 56 28 56 q 28 56 28 56 q 28 56 28 56 q 28 56 28 56 q 28 56 28 56 q 28 56 28 56 q 28 56 28 56 q 28 56 28 56 q 28 56 28 56 q 28 56 28 56 q 28 56 28 56 q 28 56 28 56 q 53 56 28 56 q 118 56 78 56 q 203 56 158 56 q 287 56 247 56 q 352 56 327 56 q 378 56 378 56 q 378 28 378 42 q 378 0 378 14 q 378 0 378 0 q 378 0 378 0 q 378 0 378 0 q 378 0 378 0 q 378 0 378 0 q 349 0 378 0 q 273 0 319 0 q 175 0 227 0 q 77 0 123 0 q 1 0 31 0 q -28 0 -28 0 q -28 0 -28 0 q -28 0 -28 0 q -28 0 -28 0 q -28 0 -28 0 q -28 28 -28 0 q -28 100 -28 56 q -28 194 -28 144 q -28 287 -28 243 q -28 359 -28 331 q -28 388 -28 388 m -28 426 q -28 455 -28 426 q -28 527 -28 483 q -28 620 -28 571 q -28 714 -28 669 q -28 786 -28 758 q -28 814 -28 814 q -28 814 -28 814 q -28 814 -28 814 q -28 814 -28 814 q -28 814 -28 814 q 1 814 -28 814 q 77 814 31 814 q 175 814 123 814 q 273 814 227 814 q 349 814 319 814 q 378 814 378 814 q 378 814 378 814 q 378 814 378 814 q 378 814 378 814 q 378 814 378 814 q 378 814 378 814 q 378 786 378 801 q 378 758 378 772 q 352 758 378 758 q 287 758 327 758 q 203 758 247 758 q 118 758 158 758 q 53 758 78 758 q 28 758 28 758 q 28 758 28 758 q 28 758 28 758 q 28 758 28 758 q 28 758 28 758 q 28 758 28 758 q 28 758 28 758 q 28 758 28 758 q 28 758 28 758 q 28 758 28 758 q 28 758 28 758 q 28 758 28 758 q 28 758 28 758 q 28 758 28 758 q 28 734 28 758 q 28 673 28 710 q 28 592 28 635 q 28 512 28 550 q 28 450 28 474 q 28 426 28 426 l -28 426 m 458 547 q 458 547 458 547 q 458 547 458 547 q 458 547 458 547 q 458 547 458 547 q 458 547 458 547 q 458 547 458 547 q 458 547 458 547 q 463 547 463 547 q 464 542 464 546 q 464 527 464 534 q 464 512 464 519 q 464 497 464 505 q 463 492 464 493 q 458 492 463 492 q 458 492 458 492 q 458 492 458 492 q 458 492 458 492 q 458 492 458 492 q 458 492 458 492 q 458 492 458 492 q 458 492 458 492 q 432 492 458 492 q 372 492 406 492 q 312 492 338 492 q 286 492 286 492 q 286 492 286 492 q 286 492 286 492 q 281 492 282 492 q 281 497 281 493 q 281 512 281 505 q 281 527 281 519 q 281 542 281 534 q 281 547 281 546 q 286 547 282 547 q 286 547 286 547 q 286 547 286 547 q 312 547 286 547 q 372 547 338 547 q 432 547 406 547 q 458 547 458 547 m 458 267 q 432 267 458 267 q 372 267 406 267 q 312 267 338 267 q 286 267 286 267 q 286 267 286 267 q 286 267 286 267 q 281 267 282 267 q 281 272 281 268 q 281 287 281 280 q 281 302 281 294 q 281 317 281 309 q 281 322 281 321 q 286 322 282 322 q 286 322 286 322 q 286 322 286 322 q 312 322 286 322 q 372 322 338 322 q 432 322 406 322 q 458 322 458 322 q 458 322 458 322 q 458 322 458 322 q 458 322 458 322 q 458 322 458 322 q 458 322 458 322 q 458 322 458 322 q 458 322 458 322 q 463 322 463 322 q 464 317 464 321 q 464 302 464 309 q 464 287 464 294 q 464 272 464 280 q 463 267 464 268 q 458 267 463 267 q 458 267 458 267 q 458 267 458 267 q 458 267 458 267 q 458 267 458 267 q 458 267 458 267 q 458 267 458 267 q 458 267 458 267 z "},"C":{"ha":683,"x_min":-28,"x_max":711,"o":"m -28 388 l 28 388 l 28 167 q 39 153 28 165 q 65 125 49 141 q 98 92 81 108 q 126 66 115 76 q 140 56 138 56 q 140 56 140 56 q 140 56 140 56 q 140 56 140 56 q 140 56 140 56 q 171 56 149 56 q 223 56 194 56 q 280 56 251 56 q 327 56 308 56 q 350 56 347 56 q 350 28 350 42 q 350 0 350 14 q 350 0 350 0 q 350 0 350 0 q 350 0 350 0 q 350 0 350 0 q 350 0 350 0 q 323 0 350 0 q 252 0 295 0 q 161 0 210 0 q 70 0 113 0 q 0 0 27 0 q -28 0 -28 0 q -28 0 -28 0 q -28 0 -28 0 q -28 0 -28 0 q -28 0 -28 0 q -28 19 -28 0 q -28 72 -28 39 q -28 147 -28 106 q -28 231 -28 188 q -28 315 -28 274 q -28 388 -28 356 m -28 426 q -28 499 -28 458 q -28 583 -28 539 q -28 667 -28 626 q -28 742 -28 708 q -28 794 -28 775 q -28 814 -28 814 q -28 814 -28 814 q -28 814 -28 814 q -28 814 -28 814 q -28 814 -28 814 q 0 814 -28 814 q 70 814 27 814 q 161 814 113 814 q 252 814 210 814 q 323 814 295 814 q 350 814 350 814 q 350 814 350 814 q 350 814 350 814 q 350 814 350 814 q 350 814 350 814 q 350 814 350 814 q 350 786 350 801 q 350 758 350 772 q 327 758 347 758 q 280 758 308 758 q 223 758 251 758 q 171 758 194 758 q 140 758 149 758 q 140 758 140 758 q 140 758 140 758 q 140 758 140 758 q 140 758 140 758 q 126 748 138 758 q 98 722 115 738 q 65 689 81 706 q 39 661 49 673 q 28 647 28 649 l 28 426 l -28 426 m -28 261 l -28 553 l 28 553 q 28 531 28 553 q 28 480 28 509 q 28 429 28 451 q 28 407 28 407 q 28 407 28 407 q 28 407 28 407 q 28 407 28 407 q 28 407 28 407 q 28 385 28 407 q 28 334 28 363 q 28 283 28 305 q 28 261 28 261 l -28 261 m 711 346 q 711 321 711 346 q 711 257 711 296 q 711 173 711 217 q 711 89 711 128 q 711 25 711 50 q 711 0 711 0 q 711 0 711 0 q 711 0 711 0 q 711 0 711 0 q 711 0 711 0 q 684 0 711 0 q 614 0 656 0 q 522 0 571 0 q 431 0 474 0 q 361 0 388 0 q 333 0 333 0 q 333 0 333 0 q 333 0 333 0 q 333 0 333 0 q 333 0 333 0 q 333 0 333 0 q 333 28 333 14 q 333 56 333 42 q 366 56 333 56 q 447 56 399 56 q 542 56 494 56 q 623 56 590 56 q 656 56 656 56 q 656 56 656 56 q 656 56 656 56 q 656 56 656 56 q 656 56 656 56 q 656 56 656 56 q 656 56 656 56 q 656 56 656 56 q 656 56 656 56 q 656 56 656 56 q 656 56 656 56 q 656 56 656 56 q 656 85 656 56 q 656 157 656 114 q 656 244 656 201 q 656 317 656 288 q 656 346 656 346 l 711 346 m 711 468 l 656 468 q 656 497 656 468 q 656 570 656 526 q 656 657 656 613 q 656 729 656 700 q 656 758 656 758 q 656 758 656 758 q 656 758 656 758 q 656 758 656 758 q 656 758 656 758 q 656 758 656 758 q 656 758 656 758 q 656 758 656 758 q 656 758 656 758 q 656 758 656 758 q 656 758 656 758 q 656 758 656 758 q 623 758 656 758 q 542 758 590 758 q 447 758 494 758 q 366 758 399 758 q 333 758 333 758 q 333 786 333 772 q 333 814 333 801 q 333 814 333 814 q 333 814 333 814 q 333 814 333 814 q 333 814 333 814 q 333 814 333 814 q 361 814 333 814 q 431 814 388 814 q 522 814 474 814 q 614 814 571 814 q 684 814 656 814 q 711 814 711 814 q 711 814 711 814 q 711 814 711 814 q 711 814 711 814 q 711 814 711 814 q 711 789 711 814 q 711 725 711 764 q 711 641 711 685 q 711 557 711 597 q 711 493 711 518 q 711 468 711 468 m 382 432 q 382 436 382 435 q 384 437 383 437 q 388 438 385 438 q 416 438 388 438 q 487 438 444 438 q 572 438 529 438 q 642 438 614 438 q 671 438 671 438 q 671 438 671 438 q 671 438 671 438 q 671 438 671 438 q 671 438 671 438 q 671 438 671 438 q 675 437 674 438 q 676 436 676 437 q 676 432 676 435 q 676 427 676 432 q 676 416 676 423 q 676 403 676 410 q 676 392 676 397 q 676 388 676 388 q 676 383 676 383 q 671 382 675 382 q 671 382 671 382 q 671 382 671 382 q 671 382 671 382 q 671 382 671 382 q 671 382 671 382 q 642 382 671 382 q 572 382 614 382 q 487 382 529 382 q 416 382 444 382 q 388 382 388 382 q 384 382 385 382 q 382 384 383 383 q 382 388 382 385 q 382 399 382 388 q 382 421 382 410 q 382 432 382 432 m 711 136 l 656 136 q 656 191 656 136 q 656 372 656 247 q 656 376 656 372 q 656 379 656 379 q 656 383 656 379 q 656 386 656 386 q 656 586 656 523 q 656 650 656 650 l 711 650 l 711 136 z "},"D":{"ha":738,"x_min":-28,"x_max":765,"o":"m -28 261 l -28 553 l 28 553 q 28 531 28 553 q 28 480 28 509 q 28 429 28 451 q 28 407 28 407 q 28 407 28 407 q 28 407 28 407 q 28 407 28 407 q 28 407 28 407 q 28 385 28 407 q 28 334 28 363 q 28 283 28 305 q 28 261 28 261 l -28 261 m 324 400 q 324 417 324 400 q 324 458 324 433 q 324 506 324 482 q 324 547 324 531 q 324 564 324 564 q 324 564 324 564 q 324 564 324 564 q 324 568 324 567 q 325 569 324 569 q 329 569 326 569 q 344 569 337 569 q 359 569 351 569 q 374 569 366 569 q 377 569 376 569 q 379 568 378 569 q 379 564 379 567 q 379 564 379 564 q 379 564 379 564 q 379 547 379 564 q 379 506 379 531 q 379 458 379 482 q 379 417 379 433 q 379 400 379 400 q 379 389 379 400 q 379 362 379 378 q 379 326 379 345 q 379 291 379 308 q 379 264 379 274 q 379 253 379 253 q 379 253 379 253 q 379 253 379 253 q 379 249 379 250 q 377 248 378 248 q 374 247 376 247 q 352 247 363 247 q 329 247 341 247 q 325 248 326 247 q 324 249 324 248 q 324 253 324 250 q 324 253 324 253 q 324 253 324 253 q 324 264 324 253 q 324 291 324 274 q 324 326 324 308 q 324 362 324 345 q 324 389 324 378 q 324 400 324 400 m -28 388 l 28 388 q 28 364 28 388 q 28 302 28 340 q 28 222 28 264 q 28 141 28 179 q 28 80 28 103 q 28 56 28 56 q 28 56 28 56 q 28 56 28 56 q 28 56 28 56 q 28 56 28 56 q 28 56 28 56 q 28 56 28 56 q 28 56 28 56 q 28 56 28 56 q 28 56 28 56 q 28 56 28 56 q 28 56 28 56 q 28 56 28 56 q 28 56 28 56 q 53 56 28 56 q 118 56 78 56 q 203 56 158 56 q 287 56 247 56 q 352 56 327 56 q 378 56 378 56 q 378 28 378 42 q 378 0 378 14 q 378 0 378 0 q 378 0 378 0 q 378 0 378 0 q 378 0 378 0 q 378 0 378 0 q 349 0 378 0 q 273 0 319 0 q 175 0 227 0 q 77 0 123 0 q 1 0 31 0 q -28 0 -28 0 q -28 0 -28 0 q -28 0 -28 0 q -28 0 -28 0 q -28 0 -28 0 q -28 28 -28 0 q -28 100 -28 56 q -28 194 -28 144 q -28 287 -28 243 q -28 359 -28 331 q -28 388 -28 388 m -28 426 q -28 455 -28 426 q -28 527 -28 483 q -28 620 -28 571 q -28 714 -28 669 q -28 786 -28 758 q -28 814 -28 814 q -28 814 -28 814 q -28 814 -28 814 q -28 814 -28 814 q -28 814 -28 814 q 1 814 -28 814 q 77 814 31 814 q 175 814 123 814 q 273 814 227 814 q 349 814 319 814 q 378 814 378 814 q 378 814 378 814 q 378 814 378 814 q 378 814 378 814 q 378 814 378 814 q 378 814 378 814 q 378 786 378 801 q 378 758 378 772 q 352 758 378 758 q 287 758 327 758 q 203 758 247 758 q 118 758 158 758 q 53 758 78 758 q 28 758 28 758 q 28 758 28 758 q 28 758 28 758 q 28 758 28 758 q 28 758 28 758 q 28 758 28 758 q 28 758 28 758 q 28 758 28 758 q 28 758 28 758 q 28 758 28 758 q 28 758 28 758 q 28 758 28 758 q 28 758 28 758 q 28 758 28 758 q 28 734 28 758 q 28 673 28 710 q 28 592 28 635 q 28 512 28 550 q 28 450 28 474 q 28 426 28 426 l -28 426 m 765 136 l 710 136 q 710 191 710 136 q 710 372 710 247 q 710 376 710 372 q 710 379 710 379 q 710 383 710 379 q 710 386 710 386 q 710 586 710 523 q 710 650 710 650 l 765 650 l 765 136 m 765 388 q 765 359 765 388 q 765 287 765 331 q 765 194 765 243 q 765 100 765 144 q 765 28 765 56 q 765 0 765 0 q 765 0 765 0 q 765 0 765 0 q 765 0 765 0 q 765 0 765 0 q 736 0 765 0 q 661 0 707 0 q 563 0 615 0 q 464 0 510 0 q 389 0 418 0 q 360 0 360 0 q 360 0 360 0 q 360 0 360 0 q 360 0 360 0 q 360 0 360 0 q 360 0 360 0 l 360 56 q 380 56 360 56 q 428 56 399 56 q 487 56 458 56 q 536 56 516 56 q 556 56 556 56 q 556 56 556 56 q 556 56 556 56 q 556 56 556 56 q 574 76 558 56 q 613 128 590 97 q 658 190 635 159 q 695 244 680 222 q 710 268 710 266 q 710 280 710 268 q 710 310 710 292 q 710 345 710 328 q 710 375 710 363 q 710 388 710 388 l 765 388 m 765 426 l 710 426 q 710 439 710 426 q 710 468 710 451 q 710 504 710 486 q 710 534 710 522 q 710 546 710 546 q 695 570 710 548 q 658 624 680 592 q 613 686 635 655 q 574 738 590 717 q 556 758 558 758 q 556 758 556 758 q 556 758 556 758 q 556 758 556 758 q 536 758 556 758 q 487 758 516 758 q 428 758 458 758 q 380 758 399 758 q 360 758 360 758 l 360 814 q 360 814 360 814 q 360 814 360 814 q 360 814 360 814 q 360 814 360 814 q 360 814 360 814 q 389 814 360 814 q 464 814 418 814 q 563 814 510 814 q 661 814 615 814 q 736 814 707 814 q 765 814 765 814 q 765 814 765 814 q 765 814 765 814 q 765 814 765 814 q 765 814 765 814 q 765 786 765 814 q 765 714 765 758 q 765 620 765 669 q 765 527 765 571 q 765 455 765 483 q 765 426 765 426 z "},"E":{"ha":683,"x_min":-28,"x_max":711,"o":"m -28 261 l -28 553 l 28 553 q 28 531 28 553 q 28 480 28 509 q 28 429 28 451 q 28 407 28 407 q 28 407 28 407 q 28 407 28 407 q 28 407 28 407 q 28 407 28 407 q 28 385 28 407 q 28 334 28 363 q 28 283 28 305 q 28 261 28 261 l -28 261 m -28 346 l 28 346 q 28 317 28 346 q 28 244 28 288 q 28 157 28 201 q 28 85 28 114 q 28 56 28 56 q 28 56 28 56 q 28 56 28 56 q 28 56 28 56 q 28 56 28 56 q 28 56 28 56 q 28 56 28 56 q 28 56 28 56 q 28 56 28 56 q 28 56 28 56 q 28 56 28 56 q 28 56 28 56 q 60 56 28 56 q 141 56 93 56 q 237 56 189 56 q 317 56 285 56 q 350 56 350 56 q 350 28 350 42 q 350 0 350 14 q 350 0 350 0 q 350 0 350 0 q 350 0 350 0 q 350 0 350 0 q 350 0 350 0 q 323 0 350 0 q 252 0 295 0 q 161 0 210 0 q 70 0 113 0 q 0 0 27 0 q -28 0 -28 0 q -28 0 -28 0 q -28 0 -28 0 q -28 0 -28 0 q -28 0 -28 0 q -28 25 -28 0 q -28 89 -28 50 q -28 173 -28 128 q -28 257 -28 217 q -28 321 -28 296 q -28 346 -28 346 m -28 468 q -28 493 -28 468 q -28 557 -28 518 q -28 641 -28 597 q -28 725 -28 685 q -28 789 -28 764 q -28 814 -28 814 q -28 814 -28 814 q -28 814 -28 814 q -28 814 -28 814 q -28 814 -28 814 q 0 814 -28 814 q 70 814 27 814 q 161 814 113 814 q 252 814 210 814 q 323 814 295 814 q 350 814 350 814 q 350 814 350 814 q 350 814 350 814 q 350 814 350 814 q 350 814 350 814 q 350 814 350 814 q 350 786 350 801 q 350 758 350 772 q 317 758 350 758 q 237 758 285 758 q 141 758 189 758 q 60 758 93 758 q 28 758 28 758 q 28 758 28 758 q 28 758 28 758 q 28 758 28 758 q 28 758 28 758 q 28 758 28 758 q 28 758 28 758 q 28 758 28 758 q 28 758 28 758 q 28 758 28 758 q 28 758 28 758 q 28 758 28 758 q 28 729 28 758 q 28 657 28 700 q 28 570 28 613 q 28 497 28 526 q 28 468 28 468 l -28 468 m 386 543 q 386 547 386 546 q 388 548 387 548 q 392 549 389 549 q 420 549 392 549 q 491 549 449 549 q 576 549 533 549 q 647 549 618 549 q 675 549 675 549 q 675 549 675 549 q 675 549 675 549 q 675 549 675 549 q 675 549 675 549 q 675 549 675 549 q 679 548 678 549 q 680 547 680 548 q 681 543 681 546 q 681 539 681 543 q 681 527 681 534 q 681 514 681 521 q 681 503 681 508 q 681 499 681 499 q 680 494 681 494 q 675 493 679 493 q 675 493 675 493 q 675 493 675 493 q 675 493 675 493 q 675 493 675 493 q 675 493 675 493 q 647 493 675 493 q 576 493 618 493 q 491 493 533 493 q 420 493 449 493 q 392 493 392 493 q 388 493 389 493 q 386 495 387 494 q 386 499 386 496 q 386 510 386 499 q 386 532 386 521 q 386 543 386 543 m 386 257 q 386 268 386 257 q 386 290 386 279 q 386 301 386 301 q 386 305 386 304 q 388 307 387 306 q 392 307 389 307 q 420 307 392 307 q 491 307 449 307 q 576 307 533 307 q 647 307 618 307 q 675 307 675 307 q 675 307 675 307 q 675 307 675 307 q 675 307 675 307 q 675 307 675 307 q 675 307 675 307 q 680 306 679 307 q 681 301 681 306 q 681 297 681 301 q 681 286 681 292 q 681 273 681 279 q 681 261 681 266 q 681 257 681 257 q 680 253 681 254 q 679 252 680 252 q 675 251 678 251 q 675 251 675 251 q 675 251 675 251 q 675 251 675 251 q 675 251 675 251 q 675 251 675 251 q 647 251 675 251 q 576 251 618 251 q 491 251 533 251 q 420 251 449 251 q 392 251 392 251 q 388 252 389 251 q 386 253 387 252 q 386 257 386 254 m 711 136 l 656 136 q 656 191 656 136 q 656 372 656 247 q 656 376 656 372 q 656 379 656 379 q 656 383 656 379 q 656 386 656 386 q 656 586 656 523 q 656 650 656 650 l 711 650 l 711 136 m 711 346 q 711 321 711 346 q 711 257 711 296 q 711 173 711 217 q 711 89 711 128 q 711 25 711 50 q 711 0 711 0 q 711 0 711 0 q 711 0 711 0 q 711 0 711 0 q 711 0 711 0 q 684 0 711 0 q 614 0 656 0 q 522 0 571 0 q 431 0 474 0 q 361 0 388 0 q 333 0 333 0 q 333 0 333 0 q 333 0 333 0 q 333 0 333 0 q 333 0 333 0 q 333 0 333 0 q 333 28 333 14 q 333 56 333 42 q 366 56 333 56 q 447 56 399 56 q 542 56 494 56 q 623 56 590 56 q 656 56 656 56 q 656 56 656 56 q 656 56 656 56 q 656 56 656 56 q 656 56 656 56 q 656 56 656 56 q 656 56 656 56 q 656 56 656 56 q 656 56 656 56 q 656 56 656 56 q 656 56 656 56 q 656 56 656 56 q 656 85 656 56 q 656 157 656 114 q 656 244 656 201 q 656 317 656 288 q 656 346 656 346 l 711 346 m 711 468 l 656 468 q 656 497 656 468 q 656 570 656 526 q 656 657 656 613 q 656 729 656 700 q 656 758 656 758 q 656 758 656 758 q 656 758 656 758 q 656 758 656 758 q 656 758 656 758 q 656 758 656 758 q 656 758 656 758 q 656 758 656 758 q 656 758 656 758 q 656 758 656 758 q 656 758 656 758 q 656 758 656 758 q 623 758 656 758 q 542 758 590 758 q 447 758 494 758 q 366 758 399 758 q 333 758 333 758 q 333 786 333 772 q 333 814 333 801 q 333 814 333 814 q 333 814 333 814 q 333 814 333 814 q 333 814 333 814 q 333 814 333 814 q 361 814 333 814 q 431 814 388 814 q 522 814 474 814 q 614 814 571 814 q 684 814 656 814 q 711 814 711 814 q 711 814 711 814 q 711 814 711 814 q 711 814 711 814 q 711 814 711 814 q 711 789 711 814 q 711 725 711 764 q 711 641 711 685 q 711 557 711 597 q 711 493 711 518 q 711 468 711 468 z "},"F":{"ha":683,"x_min":-28,"x_max":711,"o":"m 417 531 q 417 534 417 533 q 418 536 417 535 q 422 536 419 536 q 451 536 422 536 q 522 536 479 536 q 606 536 564 536 q 677 536 649 536 q 706 536 706 536 q 706 536 706 536 q 706 536 706 536 q 706 536 706 536 q 706 536 706 536 q 706 536 706 536 q 709 536 708 536 q 711 534 710 535 q 711 531 711 533 q 711 526 711 531 q 711 515 711 522 q 711 502 711 508 q 711 491 711 495 q 711 486 711 486 q 710 481 711 482 q 706 481 710 481 q 706 481 706 481 q 706 481 706 481 q 706 481 706 481 q 706 481 706 481 q 706 481 706 481 q 677 481 706 481 q 606 481 649 481 q 522 481 564 481 q 451 481 479 481 q 422 481 422 481 q 418 481 419 481 q 417 482 417 481 q 417 486 417 483 q 417 497 417 486 q 417 519 417 508 q 417 531 417 531 m -28 468 q -28 493 -28 468 q -28 557 -28 518 q -28 641 -28 597 q -28 725 -28 685 q -28 789 -28 764 q -28 814 -28 814 q -28 814 -28 814 q -28 814 -28 814 q -28 814 -28 814 q -28 814 -28 814 q 0 814 -28 814 q 70 814 27 814 q 161 814 113 814 q 252 814 210 814 q 323 814 295 814 q 350 814 350 814 q 350 814 350 814 q 350 814 350 814 q 350 814 350 814 q 350 814 350 814 q 350 814 350 814 q 350 786 350 801 q 350 758 350 772 q 317 758 350 758 q 237 758 285 758 q 141 758 189 758 q 60 758 93 758 q 28 758 28 758 q 28 758 28 758 q 28 758 28 758 q 28 758 28 758 q 28 758 28 758 q 28 758 28 758 q 28 758 28 758 q 28 758 28 758 q 28 758 28 758 q 28 758 28 758 q 28 758 28 758 q 28 758 28 758 q 28 729 28 758 q 28 657 28 700 q 28 570 28 613 q 28 497 28 526 q 28 468 28 468 l -28 468 m 711 468 l 656 468 q 656 497 656 468 q 656 570 656 526 q 656 657 656 613 q 656 729 656 700 q 656 758 656 758 q 656 758 656 758 q 656 758 656 758 q 656 758 656 758 q 656 758 656 758 q 656 758 656 758 q 656 758 656 758 q 656 758 656 758 q 656 758 656 758 q 656 758 656 758 q 656 758 656 758 q 656 758 656 758 q 623 758 656 758 q 542 758 590 758 q 447 758 494 758 q 366 758 399 758 q 333 758 333 758 q 333 786 333 772 q 333 814 333 801 q 333 814 333 814 q 333 814 333 814 q 333 814 333 814 q 333 814 333 814 q 333 814 333 814 q 361 814 333 814 q 431 814 388 814 q 522 814 474 814 q 614 814 571 814 q 684 814 656 814 q 711 814 711 814 q 711 814 711 814 q 711 814 711 814 q 711 814 711 814 q 711 814 711 814 q 711 789 711 814 q 711 725 711 764 q 711 641 711 685 q 711 557 711 597 q 711 493 711 518 q 711 468 711 468 m 369 0 q 369 0 369 0 q 369 0 369 0 q 369 0 369 0 q 369 0 369 0 q 369 0 369 0 q 369 0 369 0 q 337 0 367 0 q 262 0 307 0 q 167 0 217 0 q 72 0 117 0 q 0 0 28 0 q -28 0 -28 0 q -28 0 -28 0 q -28 0 -28 0 q -28 0 -28 0 l -28 358 l 28 358 l 28 56 q 28 56 28 56 q 28 56 28 56 q 28 56 28 56 q 52 56 28 56 q 108 56 76 56 q 165 56 140 56 q 189 56 189 56 q 189 56 189 56 q 189 56 189 56 q 189 56 189 56 q 189 56 189 56 q 189 56 189 56 q 213 56 189 56 q 269 56 238 56 q 326 56 301 56 q 350 56 350 56 q 350 56 350 56 q 350 56 350 56 q 350 59 350 56 q 350 80 350 63 q 350 138 350 97 q 350 251 350 178 q 350 251 350 251 q 350 251 350 251 q 350 251 350 251 q 350 251 350 251 q 350 251 350 251 q 381 251 350 251 q 457 251 412 251 q 548 251 503 251 q 625 251 594 251 q 656 251 656 251 q 656 251 656 251 q 656 251 656 251 q 656 251 656 251 q 656 251 656 251 q 656 251 656 251 q 656 274 656 251 q 656 328 656 296 q 656 394 656 361 q 656 449 656 426 q 656 471 656 471 q 656 471 656 471 q 656 471 656 471 q 656 471 656 471 q 656 471 656 471 q 656 471 656 471 l 711 471 l 711 0 q 687 0 711 0 q 625 0 663 0 q 543 0 587 0 q 461 0 500 0 q 397 0 422 0 q 369 0 372 0 q 369 0 369 0 q 369 0 369 0 q 369 0 369 0 q 369 0 369 0 m -28 261 l -28 553 l 28 553 q 28 531 28 553 q 28 480 28 509 q 28 429 28 451 q 28 407 28 407 q 28 407 28 407 q 28 407 28 407 q 28 407 28 407 q 28 407 28 407 q 28 385 28 407 q 28 334 28 363 q 28 283 28 305 q 28 261 28 261 l -28 261 z "},"G":{"ha":736,"x_min":-28,"x_max":764,"o":"m -28 388 l 28 388 l 28 167 q 39 153 28 165 q 65 125 49 141 q 98 92 81 108 q 126 66 115 76 q 140 56 138 56 q 140 56 140 56 q 140 56 140 56 q 140 56 140 56 q 164 56 140 56 q 224 56 188 56 q 294 56 259 56 q 354 56 330 56 q 378 56 378 56 q 378 28 378 42 q 378 0 378 14 q 378 0 378 0 q 378 0 378 0 q 378 0 378 0 q 378 0 378 0 q 378 0 378 0 q 342 0 373 0 q 264 0 310 0 q 168 0 218 0 q 73 0 117 0 q 0 0 28 0 q -28 0 -28 0 q -28 0 -28 0 q -28 0 -28 0 q -28 0 -28 0 q -28 0 -28 0 q -28 28 -28 0 q -28 100 -28 56 q -28 194 -28 144 q -28 287 -28 243 q -28 359 -28 331 q -28 388 -28 388 m -28 426 q -28 455 -28 426 q -28 527 -28 483 q -28 620 -28 571 q -28 714 -28 669 q -28 786 -28 758 q -28 814 -28 814 q -28 814 -28 814 q -28 814 -28 814 q -28 814 -28 814 q -28 814 -28 814 q 0 814 -28 814 q 73 814 28 814 q 168 814 117 814 q 264 814 218 814 q 342 814 310 814 q 378 814 373 814 q 378 814 378 814 q 378 814 378 814 q 378 814 378 814 q 378 814 378 814 q 378 814 378 814 q 378 786 378 801 q 378 758 378 772 q 354 758 378 758 q 294 758 330 758 q 224 758 259 758 q 164 758 188 758 q 140 758 140 758 q 140 758 140 758 q 140 758 140 758 q 140 758 140 758 q 126 748 138 758 q 98 722 115 738 q 65 689 81 706 q 39 661 49 673 q 28 647 28 649 l 28 426 l -28 426 m -28 261 l -28 553 l 28 553 q 28 531 28 553 q 28 480 28 509 q 28 429 28 451 q 28 407 28 407 q 28 407 28 407 q 28 407 28 407 q 28 407 28 407 q 28 407 28 407 q 28 385 28 407 q 28 334 28 363 q 28 283 28 305 q 28 261 28 261 l -28 261 m 410 435 q 410 424 410 435 q 410 395 410 413 q 410 358 410 378 q 410 322 410 339 q 410 293 410 304 q 410 282 410 282 q 410 280 410 281 q 409 279 410 279 q 407 279 408 279 l 361 279 q 359 279 360 279 q 358 280 358 279 q 358 282 358 281 q 358 297 358 282 q 358 336 358 312 q 358 386 358 360 q 358 436 358 413 q 358 475 358 460 q 358 490 358 490 q 358 490 358 490 q 358 490 358 490 q 358 490 358 490 q 385 490 358 490 q 452 490 411 490 q 540 490 494 490 q 628 490 587 490 q 696 490 669 490 q 722 490 722 490 q 722 490 722 490 q 722 490 722 490 q 722 490 722 490 q 722 490 722 490 l 729 463 l 722 435 q 722 435 722 435 q 722 435 722 435 q 700 435 722 435 q 642 435 677 435 q 566 435 606 435 q 491 435 526 435 q 432 435 455 435 q 410 435 410 435 m 764 388 q 764 359 764 388 q 764 287 764 331 q 764 194 764 243 q 764 100 764 144 q 764 28 764 56 q 764 0 764 0 q 764 0 764 0 q 764 0 764 0 q 764 0 764 0 q 764 0 764 0 q 735 0 764 0 q 659 0 706 0 q 561 0 613 0 q 463 0 509 0 q 388 0 417 0 q 358 0 358 0 q 358 0 358 0 q 358 0 358 0 q 358 0 358 0 q 358 0 358 0 q 358 0 358 0 q 358 28 358 14 q 358 56 358 42 q 384 56 358 56 q 449 56 409 56 q 533 56 489 56 q 618 56 578 56 q 683 56 658 56 q 708 56 708 56 q 708 56 708 56 q 708 56 708 56 q 708 56 708 56 q 708 56 708 56 q 708 56 708 56 q 708 56 708 56 q 708 56 708 56 q 708 56 708 56 q 708 56 708 56 q 708 56 708 56 q 708 56 708 56 q 708 56 708 56 q 708 56 708 56 q 708 80 708 56 q 708 141 708 103 q 708 222 708 179 q 708 302 708 264 q 708 364 708 340 q 708 388 708 388 l 764 388 m 764 426 l 708 426 q 708 450 708 426 q 708 512 708 474 q 708 592 708 550 q 708 673 708 635 q 708 734 708 710 q 708 758 708 758 q 708 758 708 758 q 708 758 708 758 q 708 758 708 758 q 708 758 708 758 q 708 758 708 758 q 708 758 708 758 q 708 758 708 758 q 708 758 708 758 q 708 758 708 758 q 708 758 708 758 q 708 758 708 758 q 708 758 708 758 q 708 758 708 758 q 683 758 708 758 q 618 758 658 758 q 533 758 578 758 q 449 758 489 758 q 384 758 409 758 q 358 758 358 758 q 358 786 358 772 q 358 814 358 801 q 358 814 358 814 q 358 814 358 814 q 358 814 358 814 q 358 814 358 814 q 358 814 358 814 q 388 814 358 814 q 463 814 417 814 q 561 814 509 814 q 659 814 613 814 q 735 814 706 814 q 764 814 764 814 q 764 814 764 814 q 764 814 764 814 q 764 814 764 814 q 764 814 764 814 q 764 786 764 814 q 764 714 764 758 q 764 620 764 669 q 764 527 764 571 q 764 455 764 483 q 764 426 764 426 m 764 135 l 708 135 q 708 190 708 135 q 708 371 708 245 q 708 374 708 371 q 708 378 708 378 q 708 381 708 378 q 708 385 708 385 q 708 585 708 522 q 708 649 708 649 l 764 649 l 764 135 z "},"H":{"ha":736,"x_min":-28,"x_max":764,"o":"m -28 388 l 28 388 q 28 364 28 388 q 28 302 28 340 q 28 222 28 264 q 28 141 28 179 q 28 80 28 103 q 28 56 28 56 q 28 56 28 56 q 28 56 28 56 q 28 56 28 56 q 28 56 28 56 q 28 56 28 56 q 28 56 28 56 q 28 56 28 56 q 28 56 28 56 q 28 56 28 56 q 28 56 28 56 q 28 56 28 56 q 28 56 28 56 q 28 56 28 56 q 53 56 28 56 q 118 56 78 56 q 203 56 158 56 q 287 56 247 56 q 352 56 327 56 q 378 56 378 56 q 378 28 378 42 q 378 0 378 14 q 378 0 378 0 q 378 0 378 0 q 378 0 378 0 q 378 0 378 0 q 378 0 378 0 q 349 0 378 0 q 273 0 319 0 q 175 0 227 0 q 77 0 123 0 q 1 0 31 0 q -28 0 -28 0 q -28 0 -28 0 q -28 0 -28 0 q -28 0 -28 0 q -28 0 -28 0 q -28 28 -28 0 q -28 100 -28 56 q -28 194 -28 144 q -28 287 -28 243 q -28 359 -28 331 q -28 388 -28 388 m -28 261 l -28 553 l 28 553 q 28 531 28 553 q 28 480 28 509 q 28 429 28 451 q 28 407 28 407 q 28 407 28 407 q 28 407 28 407 q 28 407 28 407 q 28 407 28 407 q 28 385 28 407 q 28 334 28 363 q 28 283 28 305 q 28 261 28 261 l -28 261 m 764 388 q 764 359 764 388 q 764 287 764 331 q 764 194 764 243 q 764 100 764 144 q 764 28 764 56 q 764 0 764 0 q 764 0 764 0 q 764 0 764 0 q 764 0 764 0 q 764 0 764 0 q 735 0 764 0 q 659 0 706 0 q 561 0 613 0 q 463 0 509 0 q 388 0 417 0 q 358 0 358 0 q 358 0 358 0 q 358 0 358 0 q 358 0 358 0 q 358 0 358 0 q 358 0 358 0 q 358 28 358 14 q 358 56 358 42 q 384 56 358 56 q 449 56 409 56 q 533 56 489 56 q 618 56 578 56 q 683 56 658 56 q 708 56 708 56 q 708 56 708 56 q 708 56 708 56 q 708 56 708 56 q 708 56 708 56 q 708 56 708 56 q 708 56 708 56 q 708 56 708 56 q 708 56 708 56 q 708 56 708 56 q 708 56 708 56 q 708 56 708 56 q 708 56 708 56 q 708 56 708 56 q 708 80 708 56 q 708 141 708 103 q 708 222 708 179 q 708 302 708 264 q 708 364 708 340 q 708 388 708 388 l 764 388 m -28 426 q -28 455 -28 426 q -28 527 -28 483 q -28 620 -28 571 q -28 714 -28 669 q -28 786 -28 758 q -28 814 -28 814 q -28 814 -28 814 q -28 814 -28 814 q -28 814 -28 814 q -28 814 -28 814 q 1 814 -28 814 q 77 814 31 814 q 175 814 123 814 q 273 814 227 814 q 349 814 319 814 q 378 814 378 814 q 378 814 378 814 q 378 814 378 814 q 378 814 378 814 q 378 814 378 814 q 378 814 378 814 q 378 786 378 801 q 378 758 378 772 q 352 758 378 758 q 287 758 327 758 q 203 758 247 758 q 118 758 158 758 q 53 758 78 758 q 28 758 28 758 q 28 758 28 758 q 28 758 28 758 q 28 758 28 758 q 28 758 28 758 q 28 758 28 758 q 28 758 28 758 q 28 758 28 758 q 28 758 28 758 q 28 758 28 758 q 28 758 28 758 q 28 758 28 758 q 28 758 28 758 q 28 758 28 758 q 28 734 28 758 q 28 673 28 710 q 28 592 28 635 q 28 512 28 550 q 28 450 28 474 q 28 426 28 426 l -28 426 m 764 261 l 708 261 q 708 283 708 261 q 708 334 708 305 q 708 385 708 363 q 708 407 708 407 q 708 407 708 407 q 708 407 708 407 q 708 407 708 407 q 708 407 708 407 q 708 429 708 407 q 708 480 708 451 q 708 531 708 509 q 708 553 708 553 l 764 553 l 764 261 m 764 426 l 708 426 q 708 450 708 426 q 708 512 708 474 q 708 592 708 550 q 708 673 708 635 q 708 734 708 710 q 708 758 708 758 q 708 758 708 758 q 708 758 708 758 q 708 758 708 758 q 708 758 708 758 q 708 758 708 758 q 708 758 708 758 q 708 758 708 758 q 708 758 708 758 q 708 758 708 758 q 708 758 708 758 q 708 758 708 758 q 708 758 708 758 q 708 758 708 758 q 683 758 708 758 q 618 758 658 758 q 533 758 578 758 q 449 758 489 758 q 384 758 409 758 q 358 758 358 758 q 358 786 358 772 q 358 814 358 801 q 358 814 358 814 q 358 814 358 814 q 358 814 358 814 q 358 814 358 814 q 358 814 358 814 q 388 814 358 814 q 463 814 417 814 q 561 814 509 814 q 659 814 613 814 q 735 814 706 814 q 764 814 764 814 q 764 814 764 814 q 764 814 764 814 q 764 814 764 814 q 764 814 764 814 q 764 786 764 814 q 764 714 764 758 q 764 620 764 669 q 764 527 764 571 q 764 455 764 483 q 764 426 764 426 m 346 346 q 357 346 346 346 q 379 346 368 346 q 390 346 390 346 q 394 345 393 346 q 395 344 395 345 q 396 340 396 343 q 396 312 396 340 q 396 241 396 283 q 396 156 396 199 q 396 85 396 114 q 396 57 396 57 q 396 57 396 57 q 396 57 396 57 q 396 57 396 57 q 396 57 396 57 q 396 57 396 57 q 395 52 396 53 q 390 51 394 51 q 384 51 390 51 q 368 51 377 51 q 352 51 359 51 q 346 51 346 51 q 342 52 343 51 q 341 53 341 52 q 340 57 340 54 q 340 57 340 57 q 340 57 340 57 q 340 57 340 57 q 340 57 340 57 q 340 57 340 57 q 340 85 340 57 q 340 156 340 114 q 340 241 340 199 q 340 312 340 283 q 340 340 340 340 q 341 344 340 343 q 342 345 341 345 q 346 346 343 346 m 392 468 q 381 468 392 468 q 358 468 369 468 q 347 468 347 468 q 343 468 344 468 q 342 470 342 469 q 342 474 342 471 q 342 502 342 474 q 342 573 342 531 q 342 658 342 615 q 342 728 342 700 q 342 757 342 757 q 342 757 342 757 q 342 757 342 757 q 342 757 342 757 q 342 757 342 757 q 342 757 342 757 q 342 762 342 761 q 347 763 343 763 q 354 763 347 763 q 369 763 360 763 q 385 763 378 763 q 392 763 392 763 q 395 762 394 763 q 397 761 397 762 q 397 757 397 760 q 397 757 397 757 q 397 757 397 757 q 397 757 397 757 q 397 757 397 757 q 397 757 397 757 q 397 728 397 757 q 397 658 397 700 q 397 573 397 615 q 397 502 397 531 q 397 474 397 474 q 397 470 397 471 q 395 468 397 469 q 392 468 394 468 z "},"I":{"ha":376,"x_min":-28,"x_max":404,"o":"m 404 346 q 404 284 404 317 q 404 214 404 250 q 404 140 404 177 q 404 67 404 103 q 404 0 404 32 q 382 0 404 0 q 328 0 360 0 q 264 0 296 0 q 209 0 231 0 q 188 0 188 0 q 188 0 188 0 q 188 0 188 0 q 188 0 188 0 q 188 0 188 0 q 183 28 183 10 q 188 56 183 45 q 220 56 202 56 q 259 56 238 56 q 302 56 279 56 q 349 56 325 56 q 349 56 349 56 q 349 56 349 56 q 349 56 349 56 q 349 56 349 56 q 349 56 349 56 q 349 56 349 56 q 349 56 349 56 q 349 56 349 56 q 349 85 349 56 q 349 157 349 114 q 349 244 349 201 q 349 317 349 288 q 349 346 349 346 l 404 346 m -28 346 l 28 346 q 28 317 28 346 q 28 244 28 288 q 28 157 28 201 q 28 85 28 114 q 28 56 28 56 q 28 56 28 56 q 28 56 28 56 q 28 56 28 56 q 28 56 28 56 q 28 56 28 56 q 28 56 28 56 q 28 56 28 56 q 28 56 28 56 q 75 56 52 56 q 118 56 97 56 q 156 56 138 56 q 189 56 174 56 q 194 28 194 45 q 189 0 194 10 q 189 0 189 0 q 189 0 189 0 q 189 0 189 0 q 189 0 189 0 q 167 0 189 0 q 113 0 145 0 q 48 0 81 0 q -6 0 16 0 q -28 0 -28 0 q -28 67 -28 32 q -28 140 -28 103 q -28 214 -28 177 q -28 284 -28 250 q -28 346 -28 317 m 404 261 l 349 261 q 349 283 349 261 q 349 334 349 305 q 349 385 349 363 q 349 407 349 407 q 349 407 349 407 q 349 407 349 407 q 349 407 349 407 q 349 407 349 407 q 349 429 349 407 q 349 480 349 451 q 349 531 349 509 q 349 553 349 553 l 404 553 l 404 261 m -28 261 l -28 553 l 28 553 q 28 531 28 553 q 28 480 28 509 q 28 429 28 451 q 28 407 28 407 q 28 407 28 407 q 28 407 28 407 q 28 407 28 407 q 28 407 28 407 q 28 385 28 407 q 28 334 28 363 q 28 283 28 305 q 28 261 28 261 l -28 261 m 404 468 l 349 468 q 349 497 349 468 q 349 570 349 526 q 349 657 349 613 q 349 729 349 700 q 349 758 349 758 q 349 758 349 758 q 349 758 349 758 q 349 758 349 758 q 349 758 349 758 q 349 758 349 758 q 349 758 349 758 q 349 758 349 758 q 349 758 349 758 q 302 758 325 758 q 259 758 279 758 q 220 758 238 758 q 188 758 202 758 q 183 786 183 769 q 188 814 183 803 q 188 814 188 814 q 188 814 188 814 q 188 814 188 814 q 188 814 188 814 q 209 814 188 814 q 264 814 231 814 q 328 814 296 814 q 382 814 360 814 q 404 814 404 814 q 404 747 404 782 q 404 674 404 711 q 404 600 404 637 q 404 530 404 564 q 404 468 404 497 m -28 468 q -28 530 -28 497 q -28 600 -28 564 q -28 674 -28 637 q -28 747 -28 711 q -28 814 -28 782 q -6 814 -28 814 q 48 814 16 814 q 113 814 81 814 q 167 814 145 814 q 189 814 189 814 q 189 814 189 814 q 189 814 189 814 q 189 814 189 814 q 189 814 189 814 q 194 786 194 803 q 189 758 194 769 q 156 758 174 758 q 118 758 138 758 q 75 758 97 758 q 28 758 52 758 q 28 758 28 758 q 28 758 28 758 q 28 758 28 758 q 28 758 28 758 q 28 758 28 758 q 28 758 28 758 q 28 758 28 758 q 28 758 28 758 q 28 729 28 758 q 28 657 28 700 q 28 570 28 613 q 28 497 28 526 q 28 468 28 468 l -28 468 z "},"J":{"ha":683,"x_min":-28,"x_max":711,"o":"m 711 261 l 656 261 q 656 283 656 261 q 656 334 656 305 q 656 385 656 363 q 656 407 656 407 q 656 407 656 407 q 656 407 656 407 q 656 407 656 407 q 656 407 656 407 q 656 429 656 407 q 656 480 656 451 q 656 531 656 509 q 656 553 656 553 l 711 553 l 711 261 m 711 388 q 711 315 711 356 q 711 231 711 274 q 711 147 711 188 q 711 72 711 106 q 711 19 711 39 q 711 0 711 0 q 711 0 711 0 q 711 0 711 0 q 711 0 711 0 q 711 0 711 0 q 684 0 711 0 q 614 0 656 0 q 522 0 571 0 q 431 0 474 0 q 361 0 388 0 q 333 0 333 0 q 333 0 333 0 q 333 0 333 0 q 333 0 333 0 q 333 0 333 0 q 333 0 333 0 q 333 28 333 14 q 333 56 333 42 q 356 56 337 56 q 404 56 376 56 q 461 56 432 56 q 512 56 490 56 q 543 56 535 56 q 543 56 543 56 q 543 56 543 56 q 543 56 543 56 q 543 56 543 56 q 557 66 545 56 q 585 92 569 76 q 618 125 602 108 q 645 153 634 141 q 656 167 656 165 l 656 388 l 711 388 m -28 346 l 28 346 q 28 317 28 346 q 28 244 28 288 q 28 157 28 201 q 28 85 28 114 q 28 56 28 56 q 28 56 28 56 q 28 56 28 56 q 28 56 28 56 q 28 56 28 56 q 28 56 28 56 q 28 56 28 56 q 28 56 28 56 q 28 56 28 56 q 28 56 28 56 q 28 56 28 56 q 28 56 28 56 q 60 56 28 56 q 141 56 93 56 q 237 56 189 56 q 317 56 285 56 q 350 56 350 56 q 350 28 350 42 q 350 0 350 14 q 350 0 350 0 q 350 0 350 0 q 350 0 350 0 q 350 0 350 0 q 350 0 350 0 q 323 0 350 0 q 252 0 295 0 q 161 0 210 0 q 70 0 113 0 q 0 0 27 0 q -28 0 -28 0 q -28 0 -28 0 q -28 0 -28 0 q -28 0 -28 0 q -28 0 -28 0 q -28 25 -28 0 q -28 89 -28 50 q -28 173 -28 128 q -28 257 -28 217 q -28 321 -28 296 q -28 346 -28 346 m -28 758 l 28 758 l 28 492 q 28 492 28 492 q 28 492 28 492 q 28 492 28 492 q 37 492 28 492 q 63 492 47 492 q 101 492 80 492 q 148 492 123 492 q 197 492 172 492 q 275 492 238 492 q 335 492 312 492 q 358 492 358 492 q 358 476 358 492 q 358 437 358 461 q 358 385 358 413 q 358 334 358 358 q 358 294 358 310 q 358 279 358 279 q 352 279 358 279 q 341 279 347 279 q 335 279 335 279 q 328 279 335 279 q 314 279 321 279 q 307 279 307 279 q 307 279 307 279 q 307 279 307 279 q 307 279 307 279 q 307 279 307 279 q 307 279 307 279 q 307 279 307 279 q 307 302 307 279 q 307 356 307 326 q 307 410 307 387 q 307 433 307 433 q 279 433 307 433 q 209 433 251 433 q 126 433 167 433 q 56 433 84 433 q 28 433 28 433 q 28 433 28 433 q 28 433 28 433 q 28 433 28 433 q 28 433 28 433 l 28 258 l -28 258 l -28 758 m 711 468 l 656 468 q 656 497 656 468 q 656 570 656 526 q 656 657 656 613 q 656 729 656 700 q 656 758 656 758 q 656 758 656 758 q 656 758 656 758 q 656 758 656 758 q 656 758 656 758 q 656 758 656 758 q 656 758 656 758 q 656 758 656 758 q 656 758 656 758 q 656 758 656 758 q 656 758 656 758 q 656 758 656 758 q 623 758 656 758 q 542 758 590 758 q 447 758 494 758 q 366 758 399 758 q 333 758 333 758 q 333 786 333 772 q 333 814 333 801 q 333 814 333 814 q 333 814 333 814 q 333 814 333 814 q 333 814 333 814 q 333 814 333 814 q 361 814 333 814 q 431 814 388 814 q 522 814 474 814 q 614 814 571 814 q 684 814 656 814 q 711 814 711 814 q 711 814 711 814 q 711 814 711 814 q 711 814 711 814 q 711 814 711 814 q 711 789 711 814 q 711 725 711 764 q 711 641 711 685 q 711 557 711 597 q 711 493 711 518 q 711 468 711 468 m -28 468 q -28 493 -28 468 q -28 557 -28 518 q -28 641 -28 597 q -28 725 -28 685 q -28 789 -28 764 q -28 814 -28 814 q -28 814 -28 814 q -28 814 -28 814 q -28 814 -28 814 q -28 814 -28 814 q 0 814 -28 814 q 70 814 27 814 q 161 814 113 814 q 252 814 210 814 q 323 814 295 814 q 350 814 350 814 q 350 814 350 814 q 350 814 350 814 q 350 814 350 814 q 350 814 350 814 q 350 814 350 814 q 350 786 350 801 q 350 758 350 772 q 317 758 350 758 q 237 758 285 758 q 141 758 189 758 q 60 758 93 758 q 28 758 28 758 q 28 758 28 758 q 28 758 28 758 q 28 758 28 758 q 28 758 28 758 q 28 758 28 758 q 28 758 28 758 q 28 758 28 758 q 28 758 28 758 q 28 758 28 758 q 28 758 28 758 q 28 758 28 758 q 28 729 28 758 q 28 657 28 700 q 28 570 28 613 q 28 497 28 526 q 28 468 28 468 l -28 468 z "},"K":{"ha":736,"x_min":-28,"x_max":764,"o":"m -28 261 l -28 553 l 28 553 q 28 531 28 553 q 28 480 28 509 q 28 429 28 451 q 28 407 28 407 q 28 407 28 407 q 28 407 28 407 q 28 407 28 407 q 28 407 28 407 q 28 385 28 407 q 28 334 28 363 q 28 283 28 305 q 28 261 28 261 l -28 261 m -28 388 l 28 388 q 28 364 28 388 q 28 302 28 340 q 28 222 28 264 q 28 141 28 179 q 28 80 28 103 q 28 56 28 56 q 28 56 28 56 q 28 56 28 56 q 28 56 28 56 q 28 56 28 56 q 28 56 28 56 q 28 56 28 56 q 28 56 28 56 q 28 56 28 56 q 28 56 28 56 q 28 56 28 56 q 28 56 28 56 q 28 56 28 56 q 28 56 28 56 q 53 56 28 56 q 118 56 78 56 q 203 56 158 56 q 287 56 247 56 q 352 56 327 56 q 378 56 378 56 q 378 28 378 42 q 378 0 378 14 q 378 0 378 0 q 378 0 378 0 q 378 0 378 0 q 378 0 378 0 q 378 0 378 0 q 349 0 378 0 q 273 0 319 0 q 175 0 227 0 q 77 0 123 0 q 1 0 31 0 q -28 0 -28 0 q -28 0 -28 0 q -28 0 -28 0 q -28 0 -28 0 q -28 0 -28 0 q -28 28 -28 0 q -28 100 -28 56 q -28 194 -28 144 q -28 287 -28 243 q -28 359 -28 331 q -28 388 -28 388 m -28 426 q -28 455 -28 426 q -28 527 -28 483 q -28 620 -28 571 q -28 714 -28 669 q -28 786 -28 758 q -28 814 -28 814 q -28 814 -28 814 q -28 814 -28 814 q -28 814 -28 814 q -28 814 -28 814 q 1 814 -28 814 q 77 814 31 814 q 175 814 123 814 q 273 814 227 814 q 349 814 319 814 q 378 814 378 814 q 378 814 378 814 q 378 814 378 814 q 378 814 378 814 q 378 814 378 814 q 378 814 378 814 q 378 786 378 801 q 378 758 378 772 q 352 758 378 758 q 287 758 327 758 q 203 758 247 758 q 118 758 158 758 q 53 758 78 758 q 28 758 28 758 q 28 758 28 758 q 28 758 28 758 q 28 758 28 758 q 28 758 28 758 q 28 758 28 758 q 28 758 28 758 q 28 758 28 758 q 28 758 28 758 q 28 758 28 758 q 28 758 28 758 q 28 758 28 758 q 28 758 28 758 q 28 758 28 758 q 28 734 28 758 q 28 673 28 710 q 28 592 28 635 q 28 512 28 550 q 28 450 28 474 q 28 426 28 426 l -28 426 m 764 136 l 708 136 q 708 191 708 136 q 708 372 708 247 q 708 376 708 372 q 708 379 708 379 q 708 383 708 379 q 708 386 708 386 q 708 586 708 523 q 708 650 708 650 l 764 650 l 764 136 m 764 426 l 708 426 q 708 450 708 426 q 708 512 708 474 q 708 592 708 550 q 708 673 708 635 q 708 734 708 710 q 708 758 708 758 q 708 758 708 758 q 708 758 708 758 q 708 758 708 758 q 708 758 708 758 q 708 758 708 758 q 708 758 708 758 q 708 758 708 758 q 708 758 708 758 q 708 758 708 758 q 708 758 708 758 q 708 758 708 758 q 708 758 708 758 q 708 758 708 758 q 683 758 708 758 q 618 758 658 758 q 533 758 578 758 q 449 758 489 758 q 384 758 409 758 q 358 758 358 758 q 358 786 358 772 q 358 814 358 801 q 358 814 358 814 q 358 814 358 814 q 358 814 358 814 q 358 814 358 814 q 358 814 358 814 q 388 814 358 814 q 463 814 417 814 q 561 814 509 814 q 659 814 613 814 q 735 814 706 814 q 764 814 764 814 q 764 814 764 814 q 764 814 764 814 q 764 814 764 814 q 764 814 764 814 q 764 786 764 814 q 764 714 764 758 q 764 620 764 669 q 764 527 764 571 q 764 455 764 483 q 764 426 764 426 m 340 296 q 344 296 340 296 q 355 296 349 296 q 368 296 361 296 q 382 296 376 296 q 393 296 389 296 q 397 296 397 296 q 397 257 397 285 q 397 196 397 230 q 397 130 397 162 q 397 76 397 97 q 397 56 397 56 q 397 56 397 56 q 397 56 397 56 q 397 56 397 56 q 420 56 397 56 q 478 56 442 56 q 553 56 513 56 q 628 56 592 56 q 686 56 663 56 q 708 56 708 56 q 708 56 708 56 q 708 56 708 56 q 708 56 708 56 q 708 77 708 56 q 708 125 708 99 q 708 160 708 150 q 708 175 708 167 q 708 193 708 182 q 708 220 708 203 q 708 263 708 237 q 708 263 708 263 q 708 263 708 263 q 708 263 708 263 q 708 277 708 263 q 708 311 708 292 q 708 345 708 331 q 708 360 708 360 l 764 360 q 764 284 764 326 q 764 197 764 243 q 764 101 764 151 q 764 0 764 51 q 764 0 764 0 q 764 0 764 0 q 764 0 764 0 q 764 0 764 0 q 764 0 764 0 q 764 0 764 0 q 764 0 764 0 q 764 0 764 0 q 734 0 764 0 q 657 0 704 0 q 556 0 610 0 q 455 0 503 0 q 375 0 406 0 q 340 0 343 0 q 340 0 340 0 q 340 0 340 0 q 340 0 340 0 q 340 0 340 0 q 340 0 340 0 q 340 0 340 0 q 340 0 340 0 q 340 8 340 0 q 340 28 340 17 q 340 47 340 39 q 340 56 340 56 q 340 56 340 56 q 340 56 340 56 q 340 56 340 56 q 340 111 340 83 q 340 164 340 138 q 340 214 340 190 q 340 258 340 238 q 340 296 340 279 m 346 468 q 342 468 343 468 q 341 470 341 469 q 340 474 340 471 q 340 502 340 474 q 340 573 340 531 q 340 658 340 615 q 340 728 340 700 q 340 757 340 757 q 340 757 340 757 q 340 757 340 757 q 340 757 340 757 q 340 757 340 757 q 340 757 340 757 q 341 761 340 760 q 342 762 341 762 q 346 763 343 763 q 352 763 346 763 q 368 763 359 763 q 384 763 377 763 q 390 763 390 763 q 395 762 394 763 q 396 757 396 761 q 396 757 396 757 q 396 757 396 757 q 396 757 396 757 q 396 757 396 757 q 396 757 396 757 q 396 728 396 757 q 396 658 396 700 q 396 573 396 615 q 396 502 396 531 q 396 474 396 474 q 395 470 396 471 q 394 468 395 469 q 390 468 393 468 q 379 468 390 468 q 357 468 368 468 q 346 468 346 468 m 708 335 l 708 335 q 693 342 708 335 q 656 361 678 350 q 612 383 634 372 q 575 402 590 394 q 560 410 560 410 q 560 410 560 410 q 560 410 560 410 q 560 410 560 410 q 560 410 560 410 q 575 418 560 410 q 612 437 590 426 q 656 460 634 449 q 693 480 678 472 q 708 488 708 488 l 708 488 q 716 448 714 466 q 719 414 719 431 q 716 379 719 398 q 708 335 714 360 z "},"L":{"ha":683,"x_min":-28,"x_max":711,"o":"m -28 261 l -28 553 l 28 553 q 28 531 28 553 q 28 480 28 509 q 28 429 28 451 q 28 407 28 407 q 28 407 28 407 q 28 407 28 407 q 28 407 28 407 q 28 407 28 407 q 28 385 28 407 q 28 334 28 363 q 28 283 28 305 q 28 261 28 261 l -28 261 m -28 346 l 28 346 q 28 317 28 346 q 28 244 28 288 q 28 157 28 201 q 28 85 28 114 q 28 56 28 56 q 28 56 28 56 q 28 56 28 56 q 28 56 28 56 q 28 56 28 56 q 28 56 28 56 q 28 56 28 56 q 28 56 28 56 q 28 56 28 56 q 28 56 28 56 q 28 56 28 56 q 28 56 28 56 q 60 56 28 56 q 141 56 93 56 q 237 56 189 56 q 317 56 285 56 q 350 56 350 56 q 350 28 350 42 q 350 0 350 14 q 350 0 350 0 q 350 0 350 0 q 350 0 350 0 q 350 0 350 0 q 350 0 350 0 q 323 0 350 0 q 252 0 295 0 q 161 0 210 0 q 70 0 113 0 q 0 0 27 0 q -28 0 -28 0 q -28 0 -28 0 q -28 0 -28 0 q -28 0 -28 0 q -28 0 -28 0 q -28 25 -28 0 q -28 89 -28 50 q -28 173 -28 128 q -28 257 -28 217 q -28 321 -28 296 q -28 346 -28 346 m 711 346 q 711 321 711 346 q 711 257 711 296 q 711 173 711 217 q 711 89 711 128 q 711 25 711 50 q 711 0 711 0 q 711 0 711 0 q 711 0 711 0 q 711 0 711 0 q 711 0 711 0 q 684 0 711 0 q 614 0 656 0 q 522 0 571 0 q 431 0 474 0 q 361 0 388 0 q 333 0 333 0 q 333 0 333 0 q 333 0 333 0 q 333 0 333 0 q 333 0 333 0 q 333 0 333 0 q 333 28 333 14 q 333 56 333 42 q 366 56 333 56 q 447 56 399 56 q 542 56 494 56 q 623 56 590 56 q 656 56 656 56 q 656 56 656 56 q 656 56 656 56 q 656 56 656 56 q 656 56 656 56 q 656 56 656 56 q 656 56 656 56 q 656 56 656 56 q 656 56 656 56 q 656 56 656 56 q 656 56 656 56 q 656 56 656 56 q 656 85 656 56 q 656 157 656 114 q 656 244 656 201 q 656 317 656 288 q 656 346 656 346 l 711 346 m 28 496 l -28 496 l -28 814 q -28 814 -28 814 q -28 814 -28 814 q -28 814 -28 814 q -28 814 -28 814 q -28 814 -28 814 q -28 814 -28 814 q 124 814 62 814 q 226 814 186 814 q 289 814 267 814 q 321 814 312 814 q 332 814 331 814 q 332 814 332 814 q 332 814 332 814 q 332 814 332 814 q 332 814 332 814 q 332 814 332 814 q 332 814 332 814 q 340 814 333 814 q 363 814 347 814 q 407 814 379 814 q 476 814 435 814 q 576 814 517 814 q 711 814 634 814 q 711 814 711 814 q 711 814 711 814 q 711 814 711 814 q 711 814 711 814 q 711 814 711 814 q 711 814 711 814 q 711 814 711 814 q 711 814 711 814 l 711 243 l 656 243 l 656 474 q 656 474 656 474 q 656 474 656 474 q 656 474 656 474 q 656 474 656 474 q 656 474 656 474 q 656 474 656 474 q 656 474 656 474 q 656 474 656 474 q 636 474 656 474 q 585 474 616 474 q 519 474 553 474 q 453 474 484 474 q 402 474 422 474 q 382 474 382 474 q 382 454 382 474 q 382 405 382 434 q 382 348 382 376 q 382 299 382 319 q 382 279 382 279 q 382 279 382 279 q 382 279 382 279 q 382 279 382 279 q 368 279 382 279 q 341 279 355 279 q 328 279 328 279 q 328 292 328 279 q 328 326 328 304 q 328 377 328 348 q 328 439 328 406 q 328 507 328 472 q 328 576 328 542 q 328 666 328 625 q 328 733 328 708 q 328 758 328 758 q 328 758 328 758 q 328 758 328 758 q 328 758 328 758 q 328 758 328 758 q 328 758 328 758 q 328 758 328 758 q 328 758 328 758 q 298 758 328 758 q 223 758 267 758 q 133 758 178 758 q 58 758 88 758 q 28 758 28 758 q 28 758 28 758 q 28 758 28 758 q 28 758 28 758 q 28 758 28 758 q 28 758 28 758 q 28 758 28 758 l 28 496 z "},"M":{"ha":875,"x_min":-28,"x_max":903,"o":"m 903 261 l 847 261 q 847 283 847 261 q 847 334 847 305 q 847 385 847 363 q 847 407 847 407 q 847 407 847 407 q 847 407 847 407 q 847 407 847 407 q 847 407 847 407 q 847 429 847 407 q 847 480 847 451 q 847 531 847 509 q 847 553 847 553 l 903 553 l 903 261 m -28 261 l -28 553 l 28 553 q 28 531 28 553 q 28 480 28 509 q 28 429 28 451 q 28 407 28 407 q 28 407 28 407 q 28 407 28 407 q 28 407 28 407 q 28 407 28 407 q 28 385 28 407 q 28 334 28 363 q 28 283 28 305 q 28 261 28 261 l -28 261 m 438 814 q 440 780 439 797 q 441 743 441 762 q 442 707 442 725 q 441 670 442 688 q 438 636 440 653 q 433 636 438 636 q 429 636 429 636 q 421 649 429 636 q 400 679 413 661 q 375 715 388 697 q 354 746 363 733 q 346 758 346 758 q 346 758 346 758 q 346 758 346 758 q 346 758 346 758 q 230 758 287 758 q 128 758 174 758 q 55 758 82 758 q 28 758 28 758 q 28 758 28 758 q 28 758 28 758 q 28 758 28 758 q 28 758 28 758 q 28 758 28 758 q 28 758 28 758 q 28 758 28 758 q 28 758 28 758 q 28 755 28 758 q 28 737 28 752 q 28 687 28 722 q 28 589 28 652 q 28 426 28 526 l -28 426 q -28 483 -28 452 q -28 547 -28 513 q -28 616 -28 581 q -28 685 -28 651 q -28 752 -28 719 q -28 814 -28 785 q -28 814 -28 814 q -28 814 -28 814 q 6 814 -28 814 q 92 814 40 814 q 205 814 145 814 q 317 814 265 814 q 404 814 370 814 q 438 814 438 814 q 438 814 438 814 q 438 814 438 814 q 438 814 438 814 q 438 814 438 814 q 438 814 438 814 q 438 814 438 814 q 438 814 438 814 q 438 814 438 814 m -28 401 l 28 401 q 28 366 28 401 q 28 280 28 331 q 28 177 28 228 q 28 91 28 126 q 28 56 28 56 q 28 56 28 56 q 28 56 28 56 q 28 56 28 56 q 28 56 28 56 q 28 56 28 56 q 28 56 28 56 q 28 56 28 56 q 28 56 28 56 q 28 56 28 56 q 28 56 28 56 q 58 56 28 56 q 137 56 89 56 q 240 56 185 56 q 342 56 294 56 q 421 56 390 56 q 451 56 451 56 q 451 56 451 56 q 451 56 451 56 q 451 28 451 40 q 451 0 451 16 q 451 0 451 0 q 451 0 451 0 q 451 0 451 0 q 451 0 451 0 q 451 0 451 0 q 451 0 451 0 q 451 0 451 0 q 413 0 449 0 q 322 0 376 0 q 207 0 267 0 q 93 0 147 0 q 6 0 40 0 q -28 0 -28 0 q -28 0 -28 0 q -28 0 -28 0 q -28 0 -28 0 q -28 29 -28 0 q -28 103 -28 58 q -28 201 -28 149 q -28 298 -28 252 q -28 373 -28 344 q -28 401 -28 401 m 903 401 q 903 373 903 401 q 903 298 903 344 q 903 201 903 252 q 903 103 903 149 q 903 29 903 58 q 903 0 903 0 q 903 0 903 0 q 903 0 903 0 q 903 0 903 0 q 869 0 903 0 q 782 0 835 0 q 668 0 728 0 q 553 0 608 0 q 463 0 499 0 q 424 0 427 0 q 424 0 424 0 q 424 0 424 0 q 424 0 424 0 q 424 0 424 0 q 424 0 424 0 q 424 0 424 0 q 424 0 424 0 q 424 28 424 16 q 424 56 424 40 q 424 56 424 56 q 424 56 424 56 q 454 56 424 56 q 533 56 485 56 q 635 56 581 56 q 738 56 690 56 q 817 56 786 56 q 847 56 847 56 q 847 56 847 56 q 847 56 847 56 q 847 56 847 56 q 847 56 847 56 q 847 56 847 56 q 847 56 847 56 q 847 56 847 56 q 847 56 847 56 q 847 56 847 56 q 847 56 847 56 q 847 91 847 56 q 847 177 847 126 q 847 280 847 228 q 847 366 847 331 q 847 401 847 401 l 903 401 m 438 814 q 438 814 438 814 q 438 814 438 814 q 438 814 438 814 q 438 814 438 814 q 438 814 438 814 q 438 814 438 814 q 438 814 438 814 q 438 814 438 814 q 471 814 438 814 q 558 814 505 814 q 670 814 610 814 q 783 814 730 814 q 869 814 835 814 q 903 814 903 814 q 903 814 903 814 q 903 814 903 814 q 903 752 903 785 q 903 685 903 719 q 903 616 903 651 q 903 547 903 581 q 903 483 903 513 q 903 426 903 452 l 847 426 q 847 589 847 526 q 847 687 847 652 q 847 737 847 722 q 847 755 847 752 q 847 758 847 758 q 847 758 847 758 q 847 758 847 758 q 847 758 847 758 q 847 758 847 758 q 847 758 847 758 q 847 758 847 758 q 847 758 847 758 q 847 758 847 758 q 820 758 847 758 q 747 758 793 758 q 645 758 701 758 q 529 758 588 758 q 529 758 529 758 q 529 758 529 758 q 529 758 529 758 q 521 746 529 758 q 500 715 513 733 q 475 679 488 697 q 454 649 463 661 q 446 636 446 636 q 442 636 446 636 q 438 636 438 636 q 434 670 435 653 q 433 707 433 688 q 434 743 433 725 q 435 780 434 762 q 438 814 436 797 m 371 56 q 371 56 371 56 q 371 56 371 56 q 371 56 371 56 q 371 56 371 56 q 371 56 371 56 q 371 56 371 56 q 371 56 371 56 q 371 56 371 56 q 366 49 371 56 q 356 37 361 43 q 351 31 351 31 q 351 31 351 31 q 351 31 351 31 q 351 31 351 31 q 343 37 351 31 q 325 49 334 43 q 317 56 317 56 q 317 56 317 56 q 317 56 317 56 q 317 56 317 56 q 317 56 317 56 q 317 56 317 56 q 317 56 317 56 q 317 56 317 56 q 311 80 317 56 q 298 143 306 104 q 280 224 290 181 q 262 306 270 267 q 248 369 253 344 q 243 393 243 393 q 243 393 243 393 q 243 393 243 393 q 243 393 243 393 q 256 396 243 393 q 282 402 269 399 q 294 406 294 406 q 294 406 294 406 q 294 406 294 406 q 294 406 294 406 q 294 406 294 406 q 294 406 294 406 q 294 406 294 406 q 300 380 294 406 q 314 315 306 355 q 333 231 323 275 q 351 146 342 186 q 365 81 360 106 q 371 56 371 56 m 506 56 q 511 81 506 56 q 525 146 517 106 q 544 231 534 186 q 562 315 553 275 q 576 380 571 355 q 582 406 582 406 q 582 406 582 406 q 582 406 582 406 q 582 406 582 406 q 582 406 582 406 q 582 406 582 406 q 582 406 582 406 q 595 402 582 406 q 620 396 608 399 q 633 393 633 393 q 633 393 633 393 q 633 393 633 393 q 633 393 633 393 q 628 369 633 393 q 615 306 623 344 q 597 224 606 267 q 578 143 587 181 q 565 80 570 104 q 560 56 560 56 q 560 56 560 56 q 560 56 560 56 q 560 56 560 56 q 560 56 560 56 q 560 56 560 56 q 560 56 560 56 q 560 56 560 56 q 551 49 560 56 q 534 37 542 43 q 525 31 525 31 q 525 31 525 31 q 525 31 525 31 q 525 31 525 31 q 520 37 525 31 q 510 49 515 43 q 506 56 506 56 q 506 56 506 56 q 506 56 506 56 q 506 56 506 56 q 506 56 506 56 q 506 56 506 56 q 506 56 506 56 q 506 56 506 56 q 506 56 506 56 z "},"N":{"ha":736,"x_min":-28,"x_max":764,"o":"m 764 275 l 708 275 q 708 297 708 275 q 708 348 708 319 q 708 399 708 377 q 708 421 708 421 q 708 421 708 421 q 708 421 708 421 q 708 421 708 421 q 708 421 708 421 q 708 443 708 421 q 708 494 708 465 q 708 545 708 523 q 708 567 708 567 l 764 567 l 764 275 m -28 275 l -28 567 l 28 567 q 28 545 28 567 q 28 494 28 523 q 28 443 28 465 q 28 421 28 421 q 28 421 28 421 q 28 421 28 421 q 28 421 28 421 q 28 421 28 421 q 28 399 28 421 q 28 348 28 377 q 28 297 28 319 q 28 275 28 275 l -28 275 m 764 388 q 764 359 764 388 q 764 287 764 331 q 764 194 764 243 q 764 100 764 144 q 764 28 764 56 q 764 0 764 0 q 764 0 764 0 q 764 0 764 0 q 764 0 764 0 q 764 0 764 0 q 735 0 764 0 q 659 0 706 0 q 561 0 613 0 q 463 0 509 0 q 388 0 417 0 q 358 0 358 0 q 358 0 358 0 q 358 0 358 0 q 358 0 358 0 q 358 0 358 0 q 358 0 358 0 q 358 28 358 14 q 358 56 358 42 q 384 56 358 56 q 449 56 409 56 q 533 56 489 56 q 618 56 578 56 q 683 56 658 56 q 708 56 708 56 q 708 56 708 56 q 708 56 708 56 q 708 56 708 56 q 708 56 708 56 q 708 56 708 56 q 708 56 708 56 q 708 56 708 56 q 708 56 708 56 q 708 56 708 56 q 708 56 708 56 q 708 56 708 56 q 708 56 708 56 q 708 56 708 56 q 708 80 708 56 q 708 141 708 103 q 708 222 708 179 q 708 302 708 264 q 708 364 708 340 q 708 388 708 388 l 764 388 m -28 388 l 28 388 q 28 364 28 388 q 28 302 28 340 q 28 222 28 264 q 28 141 28 179 q 28 80 28 103 q 28 56 28 56 q 28 56 28 56 q 28 56 28 56 q 28 56 28 56 q 28 56 28 56 q 28 56 28 56 q 28 56 28 56 q 28 56 28 56 q 28 56 28 56 q 28 56 28 56 q 28 56 28 56 q 28 56 28 56 q 28 56 28 56 q 28 56 28 56 q 53 56 28 56 q 118 56 78 56 q 203 56 158 56 q 287 56 247 56 q 352 56 327 56 q 378 56 378 56 q 378 28 378 42 q 378 0 378 14 q 378 0 378 0 q 378 0 378 0 q 378 0 378 0 q 378 0 378 0 q 378 0 378 0 q 349 0 378 0 q 273 0 319 0 q 175 0 227 0 q 77 0 123 0 q 1 0 31 0 q -28 0 -28 0 q -28 0 -28 0 q -28 0 -28 0 q -28 0 -28 0 q -28 0 -28 0 q -28 28 -28 0 q -28 100 -28 56 q -28 194 -28 144 q -28 287 -28 243 q -28 359 -28 331 q -28 388 -28 388 m 764 426 l 708 426 q 708 450 708 426 q 708 512 708 474 q 708 592 708 550 q 708 673 708 635 q 708 734 708 710 q 708 758 708 758 q 708 758 708 758 q 708 758 708 758 q 708 758 708 758 q 708 758 708 758 q 708 758 708 758 q 708 758 708 758 q 708 758 708 758 q 708 758 708 758 q 708 758 708 758 q 708 758 708 758 q 708 758 708 758 q 708 758 708 758 q 708 758 708 758 q 683 758 708 758 q 618 758 658 758 q 533 758 578 758 q 449 758 489 758 q 384 758 409 758 q 358 758 358 758 q 358 786 358 772 q 358 814 358 801 q 358 814 358 814 q 358 814 358 814 q 358 814 358 814 q 358 814 358 814 q 358 814 358 814 q 388 814 358 814 q 463 814 417 814 q 561 814 509 814 q 659 814 613 814 q 735 814 706 814 q 764 814 764 814 q 764 814 764 814 q 764 814 764 814 q 764 814 764 814 q 764 814 764 814 q 764 786 764 814 q 764 714 764 758 q 764 620 764 669 q 764 527 764 571 q 764 455 764 483 q 764 426 764 426 m -28 426 q -28 455 -28 426 q -28 527 -28 483 q -28 620 -28 571 q -28 714 -28 669 q -28 786 -28 758 q -28 814 -28 814 q -28 814 -28 814 q -28 814 -28 814 q -28 814 -28 814 q -28 814 -28 814 q 1 814 -28 814 q 77 814 31 814 q 175 814 123 814 q 273 814 227 814 q 349 814 319 814 q 378 814 378 814 q 378 814 378 814 q 378 814 378 814 q 378 814 378 814 q 378 814 378 814 q 378 814 378 814 q 378 786 378 801 q 378 758 378 772 q 352 758 378 758 q 287 758 327 758 q 203 758 247 758 q 118 758 158 758 q 53 758 78 758 q 28 758 28 758 q 28 758 28 758 q 28 758 28 758 q 28 758 28 758 q 28 758 28 758 q 28 758 28 758 q 28 758 28 758 q 28 758 28 758 q 28 758 28 758 q 28 758 28 758 q 28 758 28 758 q 28 758 28 758 q 28 758 28 758 q 28 758 28 758 q 28 734 28 758 q 28 673 28 710 q 28 592 28 635 q 28 512 28 550 q 28 450 28 474 q 28 426 28 426 l -28 426 m 385 54 q 385 54 385 54 q 385 54 385 54 q 385 54 385 54 q 385 54 385 54 q 385 54 385 54 q 385 54 385 54 q 385 54 385 54 q 385 54 385 54 q 381 48 385 54 q 372 35 376 42 q 367 29 367 29 q 367 29 367 29 q 367 29 367 29 q 367 29 367 29 q 358 35 367 29 q 340 48 349 42 q 331 53 331 53 q 331 53 331 53 q 331 53 331 53 q 331 53 331 53 q 331 53 331 53 q 331 53 331 53 q 331 53 331 53 q 331 53 331 53 q 325 78 331 53 q 310 140 319 102 q 291 222 301 178 q 272 303 281 265 q 257 365 263 341 q 251 390 251 390 q 251 390 251 390 q 251 390 251 390 q 251 390 251 390 q 264 393 251 390 q 290 400 277 397 q 303 403 303 403 q 303 403 303 403 q 303 403 303 403 q 303 403 303 403 q 303 403 303 403 q 303 403 303 403 q 303 403 303 403 q 309 377 303 403 q 324 313 315 352 q 344 228 333 273 q 364 144 355 184 q 380 80 374 105 q 385 54 385 54 m 352 761 q 352 761 352 761 q 352 761 352 761 q 352 761 352 761 q 352 761 352 761 q 352 761 352 761 q 352 761 352 761 q 352 761 352 761 q 352 761 352 761 q 357 767 352 761 q 366 780 362 774 q 371 786 371 786 q 371 786 371 786 q 371 786 371 786 q 371 786 371 786 q 380 780 371 786 q 397 768 388 774 q 406 762 406 762 q 406 762 406 762 q 406 762 406 762 q 406 762 406 762 q 406 762 406 762 q 406 762 406 762 q 406 762 406 762 q 406 762 406 762 q 412 738 406 762 q 427 675 418 713 q 446 594 436 637 q 465 513 456 551 q 480 450 474 474 q 486 426 486 426 q 486 426 486 426 q 486 426 486 426 q 486 426 486 426 q 473 423 486 426 q 448 416 460 419 q 435 413 435 413 q 435 413 435 413 q 435 413 435 413 q 435 413 435 413 q 435 413 435 413 q 435 413 435 413 q 435 413 435 413 q 429 438 435 413 q 414 503 423 463 q 393 587 404 542 q 373 671 383 631 q 358 736 364 710 q 352 761 352 761 z "},"O":{"ha":736,"x_min":-28,"x_max":764,"o":"m -28 388 l 28 388 l 28 167 q 39 153 28 165 q 65 125 49 141 q 98 92 81 108 q 126 66 115 76 q 140 56 138 56 q 140 56 140 56 q 140 56 140 56 q 140 56 140 56 q 164 56 140 56 q 224 56 188 56 q 294 56 259 56 q 354 56 330 56 q 378 56 378 56 q 378 28 378 42 q 378 0 378 14 q 378 0 378 0 q 378 0 378 0 q 378 0 378 0 q 378 0 378 0 q 378 0 378 0 q 342 0 373 0 q 264 0 310 0 q 168 0 218 0 q 73 0 117 0 q 0 0 28 0 q -28 0 -28 0 q -28 0 -28 0 q -28 0 -28 0 q -28 0 -28 0 q -28 0 -28 0 q -28 28 -28 0 q -28 100 -28 56 q -28 194 -28 144 q -28 287 -28 243 q -28 359 -28 331 q -28 388 -28 388 m 764 388 q 764 359 764 388 q 764 287 764 331 q 764 194 764 243 q 764 100 764 144 q 764 28 764 56 q 764 0 764 0 q 764 0 764 0 q 764 0 764 0 q 764 0 764 0 q 764 0 764 0 q 736 0 764 0 q 663 0 708 0 q 568 0 619 0 q 472 0 518 0 q 394 0 426 0 q 358 0 363 0 q 358 0 358 0 q 358 0 358 0 q 358 0 358 0 q 358 0 358 0 q 358 0 358 0 q 358 28 358 14 q 358 56 358 42 q 382 56 358 56 q 442 56 406 56 q 513 56 477 56 q 572 56 548 56 q 596 56 596 56 q 596 56 596 56 q 596 56 596 56 q 596 56 596 56 q 610 66 598 56 q 638 92 622 76 q 671 125 655 108 q 698 153 687 141 q 708 167 708 165 l 708 388 l 764 388 m -28 426 q -28 455 -28 426 q -28 527 -28 483 q -28 620 -28 571 q -28 714 -28 669 q -28 786 -28 758 q -28 814 -28 814 q -28 814 -28 814 q -28 814 -28 814 q -28 814 -28 814 q -28 814 -28 814 q 0 814 -28 814 q 73 814 28 814 q 168 814 117 814 q 264 814 218 814 q 342 814 310 814 q 378 814 373 814 q 378 814 378 814 q 378 814 378 814 q 378 814 378 814 q 378 814 378 814 q 378 814 378 814 q 378 786 378 801 q 378 758 378 772 q 354 758 378 758 q 294 758 330 758 q 224 758 259 758 q 164 758 188 758 q 140 758 140 758 q 140 758 140 758 q 140 758 140 758 q 140 758 140 758 q 126 748 138 758 q 98 722 115 738 q 65 689 81 706 q 39 661 49 673 q 28 647 28 649 l 28 426 l -28 426 m 764 426 l 708 426 l 708 647 q 698 661 708 649 q 671 689 687 673 q 638 722 655 706 q 610 748 622 738 q 596 758 598 758 q 596 758 596 758 q 596 758 596 758 q 596 758 596 758 q 572 758 596 758 q 513 758 548 758 q 442 758 477 758 q 382 758 406 758 q 358 758 358 758 q 358 786 358 772 q 358 814 358 801 q 358 814 358 814 q 358 814 358 814 q 358 814 358 814 q 358 814 358 814 q 358 814 358 814 q 394 814 363 814 q 472 814 426 814 q 568 814 518 814 q 663 814 619 814 q 736 814 708 814 q 764 814 764 814 q 764 814 764 814 q 764 814 764 814 q 764 814 764 814 q 764 814 764 814 q 764 786 764 814 q 764 714 764 758 q 764 620 764 669 q 764 527 764 571 q 764 455 764 483 q 764 426 764 426 m 764 261 l 708 261 q 708 283 708 261 q 708 334 708 305 q 708 385 708 363 q 708 407 708 407 q 708 407 708 407 q 708 407 708 407 q 708 407 708 407 q 708 407 708 407 q 708 429 708 407 q 708 480 708 451 q 708 531 708 509 q 708 553 708 553 l 764 553 l 764 261 m -28 261 l -28 553 l 28 553 q 28 531 28 553 q 28 480 28 509 q 28 429 28 451 q 28 407 28 407 q 28 407 28 407 q 28 407 28 407 q 28 407 28 407 q 28 407 28 407 q 28 385 28 407 q 28 334 28 363 q 28 283 28 305 q 28 261 28 261 l -28 261 m 340 400 q 340 417 340 400 q 340 458 340 433 q 340 506 340 482 q 340 547 340 531 q 340 564 340 564 q 340 564 340 564 q 340 564 340 564 q 341 568 340 567 q 342 569 341 569 q 346 569 343 569 q 361 569 353 569 q 375 569 368 569 q 390 569 383 569 q 394 569 393 569 q 395 568 395 569 q 396 564 396 567 q 396 564 396 564 q 396 564 396 564 q 396 547 396 564 q 396 506 396 531 q 396 458 396 482 q 396 417 396 433 q 396 400 396 400 q 396 389 396 400 q 396 362 396 378 q 396 326 396 345 q 396 291 396 308 q 396 264 396 274 q 396 253 396 253 q 396 253 396 253 q 396 253 396 253 q 395 249 396 250 q 394 248 395 248 q 390 247 393 247 q 368 247 379 247 q 346 247 358 247 q 342 248 343 247 q 341 249 341 248 q 340 253 340 250 q 340 253 340 253 q 340 253 340 253 q 340 264 340 253 q 340 291 340 274 q 340 326 340 308 q 340 362 340 345 q 340 389 340 378 q 340 400 340 400 z "},"P":{"ha":736,"x_min":-28,"x_max":764,"o":"m -28 261 l -28 553 l 28 553 q 28 531 28 553 q 28 480 28 509 q 28 429 28 451 q 28 407 28 407 q 28 407 28 407 q 28 407 28 407 q 28 407 28 407 q 28 407 28 407 q 28 385 28 407 q 28 334 28 363 q 28 283 28 305 q 28 261 28 261 l -28 261 m 764 339 l 708 339 q 708 361 708 339 q 708 412 708 383 q 708 463 708 441 q 708 485 708 485 q 708 485 708 485 q 708 485 708 485 q 708 485 708 485 q 708 485 708 485 q 708 507 708 485 q 708 558 708 528 q 708 609 708 587 q 708 631 708 631 l 764 631 l 764 339 m -28 403 l 28 403 l 28 56 q 28 56 28 56 q 28 56 28 56 q 52 56 28 56 q 109 56 77 56 q 166 56 141 56 q 190 56 190 56 q 213 56 190 56 q 265 56 235 56 q 318 56 295 56 q 340 56 340 56 q 340 56 340 56 q 340 56 340 56 l 340 196 q 340 196 340 196 q 340 196 340 196 q 340 196 340 196 q 340 196 340 196 q 356 196 340 196 q 396 196 371 196 q 451 196 422 196 q 509 196 481 196 q 561 196 538 196 q 596 196 585 196 q 596 196 596 196 q 596 196 596 196 q 596 196 596 196 q 611 206 599 196 q 639 233 623 217 q 672 265 656 249 q 698 293 688 281 q 708 307 708 305 q 708 307 708 307 q 708 307 708 307 l 708 415 l 764 415 l 764 0 q 743 0 764 0 q 686 0 722 0 q 610 0 651 0 q 526 0 568 0 q 450 0 485 0 q 393 0 415 0 q 372 0 372 0 q 372 0 372 0 q 372 0 372 0 q 372 0 372 0 q 372 0 372 0 q 372 0 372 0 q 372 0 372 0 q 372 0 372 0 q 372 0 372 0 q 372 0 372 0 q 372 0 372 0 q 372 0 372 0 q 372 0 372 0 q 372 0 372 0 q 372 0 372 0 q 372 0 372 0 q 372 0 372 0 q 372 0 372 0 q 372 0 372 0 q 372 0 372 0 q 372 0 372 0 q 372 0 372 0 q 372 0 372 0 q 372 0 372 0 q 372 0 372 0 q 372 0 372 0 q 372 0 372 0 q 372 0 372 0 q 372 0 372 0 q 372 0 372 0 q 343 0 372 0 q 269 0 315 0 q 172 0 224 0 q 75 0 121 0 q 1 0 30 0 q -28 0 -28 0 l -28 403 m -28 426 q -28 455 -28 426 q -28 527 -28 483 q -28 620 -28 571 q -28 714 -28 669 q -28 786 -28 758 q -28 814 -28 814 q -28 814 -28 814 q -28 814 -28 814 q -28 814 -28 814 q -28 814 -28 814 q 1 814 -28 814 q 77 814 31 814 q 175 814 123 814 q 273 814 227 814 q 349 814 319 814 q 378 814 378 814 q 378 814 378 814 q 378 814 378 814 q 378 814 378 814 q 378 814 378 814 q 378 814 378 814 q 378 786 378 801 q 378 758 378 772 q 352 758 378 758 q 287 758 327 758 q 203 758 247 758 q 118 758 158 758 q 53 758 78 758 q 28 758 28 758 q 28 758 28 758 q 28 758 28 758 q 28 758 28 758 q 28 758 28 758 q 28 758 28 758 q 28 758 28 758 q 28 758 28 758 q 28 758 28 758 q 28 758 28 758 q 28 758 28 758 q 28 758 28 758 q 28 758 28 758 q 28 758 28 758 q 28 734 28 758 q 28 673 28 710 q 28 592 28 635 q 28 512 28 550 q 28 450 28 474 q 28 426 28 426 l -28 426 m 764 426 l 708 426 l 708 647 q 698 661 708 649 q 671 689 687 673 q 638 722 655 706 q 610 748 622 738 q 596 758 598 758 q 596 758 596 758 q 596 758 596 758 q 596 758 596 758 q 572 758 596 758 q 513 758 548 758 q 442 758 477 758 q 382 758 406 758 q 358 758 358 758 q 358 786 358 772 q 358 814 358 801 q 358 814 358 814 q 358 814 358 814 q 358 814 358 814 q 358 814 358 814 q 358 814 358 814 q 394 814 363 814 q 472 814 426 814 q 568 814 518 814 q 663 814 619 814 q 736 814 708 814 q 764 814 764 814 q 764 814 764 814 q 764 814 764 814 q 764 814 764 814 q 764 814 764 814 q 764 786 764 814 q 764 714 764 758 q 764 620 764 669 q 764 527 764 571 q 764 455 764 483 q 764 426 764 426 m 338 397 q 338 423 338 397 q 338 483 338 449 q 338 543 338 517 q 338 569 338 569 q 338 569 338 569 q 338 569 338 569 q 338 574 338 574 q 343 575 339 575 q 358 575 351 575 q 373 575 365 575 q 388 575 380 575 q 392 574 392 575 q 393 569 393 574 q 393 569 393 569 q 393 569 393 569 q 393 543 393 569 q 393 483 393 517 q 393 423 393 449 q 393 397 393 397 q 393 397 393 397 q 393 397 393 397 q 393 397 393 397 q 393 397 393 397 q 393 397 393 397 q 393 397 393 397 q 393 397 393 397 q 392 392 393 393 q 388 392 392 392 q 366 392 376 392 q 343 392 355 392 q 338 392 339 392 q 338 397 338 393 q 338 397 338 397 q 338 397 338 397 q 338 397 338 397 q 338 397 338 397 q 338 397 338 397 q 338 397 338 397 q 338 397 338 397 z "},"Q":{"ha":736,"x_min":-28,"x_max":764,"o":"m -28 426 q -28 455 -28 426 q -28 527 -28 483 q -28 620 -28 571 q -28 714 -28 669 q -28 786 -28 758 q -28 814 -28 814 q -28 814 -28 814 q -28 814 -28 814 q -28 814 -28 814 q -28 814 -28 814 q 0 814 -28 814 q 73 814 28 814 q 168 814 117 814 q 264 814 218 814 q 342 814 310 814 q 378 814 373 814 q 378 814 378 814 q 378 814 378 814 q 378 814 378 814 q 378 814 378 814 q 378 814 378 814 q 378 786 378 801 q 378 758 378 772 q 354 758 378 758 q 294 758 330 758 q 224 758 259 758 q 164 758 188 758 q 140 758 140 758 q 140 758 140 758 q 140 758 140 758 q 140 758 140 758 q 126 748 138 758 q 98 722 115 738 q 65 689 81 706 q 39 661 49 673 q 28 647 28 649 l 28 426 l -28 426 m -28 274 l -28 565 l 28 565 q 28 543 28 565 q 28 492 28 522 q 28 441 28 463 q 28 419 28 419 q 28 419 28 419 q 28 419 28 419 q 28 419 28 419 q 28 419 28 419 q 28 398 28 419 q 28 347 28 376 q 28 295 28 317 q 28 274 28 274 l -28 274 m 764 426 l 708 426 l 708 647 q 698 661 708 649 q 671 689 687 673 q 638 722 655 706 q 610 748 622 738 q 596 758 598 758 q 596 758 596 758 q 596 758 596 758 q 596 758 596 758 q 572 758 596 758 q 513 758 548 758 q 442 758 477 758 q 382 758 406 758 q 358 758 358 758 q 358 786 358 772 q 358 814 358 801 q 358 814 358 814 q 358 814 358 814 q 358 814 358 814 q 358 814 358 814 q 358 814 358 814 q 394 814 363 814 q 472 814 426 814 q 568 814 518 814 q 663 814 619 814 q 736 814 708 814 q 764 814 764 814 q 764 814 764 814 q 764 814 764 814 q 764 814 764 814 q 764 814 764 814 q 764 786 764 814 q 764 714 764 758 q 764 620 764 669 q 764 527 764 571 q 764 455 764 483 q 764 426 764 426 m 381 -79 q 404 -79 381 -79 q 465 -79 428 -79 q 544 -78 503 -78 q 624 -78 586 -78 q 685 -78 661 -78 q 708 -78 708 -78 q 709 -78 708 -78 q 709 -78 709 -78 q 709 -78 709 -78 q 710 -78 710 -78 l 708 551 l 764 551 l 764 -140 q 764 -140 764 -140 q 764 -140 764 -140 q 764 -140 764 -140 q 764 -140 764 -140 q 764 -140 764 -140 q 764 -140 764 -140 q 732 -140 764 -140 q 651 -140 701 -140 q 544 -140 601 -140 q 438 -140 488 -140 q 357 -140 388 -140 q 325 -140 325 -140 q 325 -140 325 -140 q 325 -140 325 -140 q 325 -140 325 -140 q 325 -140 325 -140 q 325 -140 325 -140 q 325 -119 325 -140 q 325 -70 325 -98 q 325 -21 325 -42 q 325 0 325 0 q 300 0 325 0 q 234 0 274 0 q 149 0 194 0 q 63 0 103 0 q -2 0 23 0 q -28 0 -28 0 q -28 0 -28 0 q -28 0 -28 0 q -28 0 -28 0 q -28 0 -28 0 l -28 388 l 28 388 l 28 167 q 39 153 28 165 q 65 125 49 141 q 98 92 81 108 q 126 66 115 76 q 140 56 138 56 q 165 56 140 56 q 225 56 189 56 q 296 56 260 56 q 356 56 332 56 q 381 56 381 56 q 381 -23 381 5 q 381 -62 381 -51 q 381 -77 381 -74 q 381 -79 381 -79 q 381 -79 381 -79 q 381 -79 381 -79 q 381 -79 381 -79 m 742 90 q 718 90 742 90 q 661 90 695 90 q 593 90 627 90 q 536 90 559 90 q 513 90 513 90 q 513 104 513 90 q 513 131 513 117 q 513 144 513 144 q 513 144 513 144 q 513 144 513 144 q 513 144 513 144 q 513 144 513 144 q 513 144 513 144 q 513 144 513 144 q 513 144 513 144 q 513 144 513 144 q 536 144 513 144 q 593 144 559 144 q 661 144 627 144 q 718 144 695 144 q 742 144 742 144 q 742 144 742 144 q 742 144 742 144 q 742 144 742 144 q 742 144 742 144 q 742 144 742 144 q 742 144 742 144 q 742 142 742 144 q 742 135 742 139 q 742 126 742 131 q 742 119 742 122 q 742 117 742 117 q 742 113 742 117 q 742 103 742 109 q 742 94 742 98 q 742 90 742 90 q 742 90 742 90 q 742 90 742 90 q 742 90 742 90 q 742 90 742 90 q 742 90 742 90 m 340 400 q 340 417 340 400 q 340 458 340 433 q 340 506 340 482 q 340 547 340 531 q 340 564 340 564 q 340 564 340 564 q 340 564 340 564 q 341 568 340 567 q 342 569 341 569 q 346 569 343 569 q 361 569 353 569 q 375 569 368 569 q 390 569 383 569 q 394 569 393 569 q 395 568 395 569 q 396 564 396 567 q 396 564 396 564 q 396 564 396 564 q 396 547 396 564 q 396 506 396 531 q 396 458 396 482 q 396 417 396 433 q 396 400 396 400 q 396 389 396 400 q 396 362 396 378 q 396 326 396 345 q 396 291 396 308 q 396 264 396 274 q 396 253 396 253 q 396 253 396 253 q 396 253 396 253 q 395 249 396 250 q 394 248 395 248 q 390 247 393 247 q 368 247 379 247 q 346 247 358 247 q 342 248 343 247 q 341 249 341 248 q 340 253 340 250 q 340 253 340 253 q 340 253 340 253 q 340 264 340 253 q 340 291 340 274 q 340 326 340 308 q 340 362 340 345 q 340 389 340 378 q 340 400 340 400 m 764 288 l 708 288 q 708 309 708 288 q 708 360 708 331 q 708 411 708 390 q 708 433 708 433 q 708 433 708 433 q 708 433 708 433 q 708 433 708 433 q 708 433 708 433 q 708 455 708 433 q 708 506 708 477 q 708 557 708 535 q 708 579 708 579 l 764 579 l 764 288 z "},"R":{"ha":736,"x_min":-28,"x_max":764,"o":"m -28 261 l -28 553 l 28 553 q 28 531 28 553 q 28 480 28 509 q 28 429 28 451 q 28 407 28 407 q 28 407 28 407 q 28 407 28 407 q 28 407 28 407 q 28 407 28 407 q 28 385 28 407 q 28 334 28 363 q 28 283 28 305 q 28 261 28 261 l -28 261 m 611 388 q 611 388 611 388 q 611 388 611 388 q 626 399 611 388 q 660 427 640 411 q 694 455 679 443 q 708 467 708 467 l 708 536 l 735 536 l 764 536 q 764 506 764 536 q 764 432 764 476 q 764 343 764 388 q 764 269 764 299 q 764 239 764 239 l 735 239 l 708 239 l 708 308 q 694 320 708 308 q 660 348 679 332 q 626 376 640 364 q 611 388 611 388 q 611 388 611 388 q 611 388 611 388 m -28 388 l 28 388 q 28 364 28 388 q 28 302 28 340 q 28 222 28 264 q 28 141 28 179 q 28 80 28 103 q 28 56 28 56 q 28 56 28 56 q 28 56 28 56 q 28 56 28 56 q 28 56 28 56 q 28 56 28 56 q 28 56 28 56 q 28 56 28 56 q 28 56 28 56 q 28 56 28 56 q 28 56 28 56 q 28 56 28 56 q 28 56 28 56 q 28 56 28 56 q 53 56 28 56 q 118 56 78 56 q 203 56 158 56 q 287 56 247 56 q 352 56 327 56 q 378 56 378 56 q 378 28 378 42 q 378 0 378 14 q 378 0 378 0 q 378 0 378 0 q 378 0 378 0 q 378 0 378 0 q 378 0 378 0 q 349 0 378 0 q 273 0 319 0 q 175 0 227 0 q 77 0 123 0 q 1 0 31 0 q -28 0 -28 0 q -28 0 -28 0 q -28 0 -28 0 q -28 0 -28 0 q -28 0 -28 0 q -28 28 -28 0 q -28 100 -28 56 q -28 194 -28 144 q -28 287 -28 243 q -28 359 -28 331 q -28 388 -28 388 m -28 426 q -28 455 -28 426 q -28 527 -28 483 q -28 620 -28 571 q -28 714 -28 669 q -28 786 -28 758 q -28 814 -28 814 q -28 814 -28 814 q -28 814 -28 814 q -28 814 -28 814 q -28 814 -28 814 q 1 814 -28 814 q 77 814 31 814 q 175 814 123 814 q 273 814 227 814 q 349 814 319 814 q 378 814 378 814 q 378 814 378 814 q 378 814 378 814 q 378 814 378 814 q 378 814 378 814 q 378 814 378 814 q 378 786 378 801 q 378 758 378 772 q 352 758 378 758 q 287 758 327 758 q 203 758 247 758 q 118 758 158 758 q 53 758 78 758 q 28 758 28 758 q 28 758 28 758 q 28 758 28 758 q 28 758 28 758 q 28 758 28 758 q 28 758 28 758 q 28 758 28 758 q 28 758 28 758 q 28 758 28 758 q 28 758 28 758 q 28 758 28 758 q 28 758 28 758 q 28 758 28 758 q 28 758 28 758 q 28 734 28 758 q 28 673 28 710 q 28 592 28 635 q 28 512 28 550 q 28 450 28 474 q 28 426 28 426 l -28 426 m 764 426 l 708 426 l 708 647 q 698 661 708 649 q 671 689 687 673 q 638 722 655 706 q 610 748 622 738 q 596 758 598 758 q 596 758 596 758 q 596 758 596 758 q 596 758 596 758 q 572 758 596 758 q 513 758 548 758 q 442 758 477 758 q 382 758 406 758 q 358 758 358 758 q 358 786 358 772 q 358 814 358 801 q 358 814 358 814 q 358 814 358 814 q 358 814 358 814 q 358 814 358 814 q 358 814 358 814 q 394 814 363 814 q 472 814 426 814 q 568 814 518 814 q 663 814 619 814 q 736 814 708 814 q 764 814 764 814 q 764 814 764 814 q 764 814 764 814 q 764 814 764 814 q 764 814 764 814 q 764 786 764 814 q 764 714 764 758 q 764 620 764 669 q 764 527 764 571 q 764 455 764 483 q 764 426 764 426 m 340 411 q 340 437 340 411 q 340 497 340 463 q 340 557 340 531 q 340 583 340 583 q 340 583 340 583 q 340 583 340 583 q 341 588 340 588 q 346 589 342 589 q 361 589 353 589 q 375 589 368 589 q 390 589 383 589 q 395 588 394 589 q 396 583 396 588 q 396 583 396 583 q 396 583 396 583 q 396 557 396 583 q 396 497 396 531 q 396 437 396 463 q 396 411 396 411 q 396 411 396 411 q 396 411 396 411 q 396 411 396 411 q 396 411 396 411 q 396 411 396 411 q 396 411 396 411 q 396 411 396 411 q 395 406 396 407 q 390 406 394 406 q 368 406 379 406 q 346 406 358 406 q 341 406 342 406 q 340 411 340 407 q 340 411 340 411 q 340 411 340 411 q 340 411 340 411 q 340 411 340 411 q 340 411 340 411 q 340 411 340 411 q 340 411 340 411 m 340 296 q 344 296 340 296 q 355 296 349 296 q 368 296 361 296 q 382 296 376 296 q 393 296 389 296 q 397 296 397 296 q 397 257 397 285 q 397 196 397 230 q 397 130 397 162 q 397 76 397 97 q 397 56 397 56 q 397 56 397 56 q 397 56 397 56 q 397 56 397 56 q 420 56 397 56 q 478 56 442 56 q 553 56 513 56 q 628 56 592 56 q 686 56 663 56 q 708 56 708 56 q 708 56 708 56 q 708 56 708 56 q 708 56 708 56 q 708 77 708 56 q 708 125 708 99 q 708 160 708 150 q 708 175 708 167 q 708 193 708 182 q 708 220 708 203 q 708 263 708 237 q 708 263 708 263 q 708 263 708 263 q 708 263 708 263 q 708 277 708 263 q 708 311 708 292 q 708 345 708 331 q 708 360 708 360 l 764 360 q 764 284 764 326 q 764 197 764 243 q 764 101 764 151 q 764 0 764 51 q 764 0 764 0 q 764 0 764 0 q 764 0 764 0 q 764 0 764 0 q 764 0 764 0 q 764 0 764 0 q 764 0 764 0 q 764 0 764 0 q 734 0 764 0 q 657 0 704 0 q 556 0 610 0 q 455 0 503 0 q 375 0 406 0 q 340 0 343 0 q 340 0 340 0 q 340 0 340 0 q 340 0 340 0 q 340 0 340 0 q 340 0 340 0 q 340 0 340 0 q 340 0 340 0 q 340 8 340 0 q 340 28 340 17 q 340 47 340 39 q 340 56 340 56 q 340 56 340 56 q 340 56 340 56 q 340 56 340 56 q 340 111 340 83 q 340 164 340 138 q 340 214 340 190 q 340 258 340 238 q 340 296 340 279 z "},"S":{"ha":683,"x_min":-28,"x_max":711,"o":"m 711 388 q 711 315 711 356 q 711 231 711 274 q 711 147 711 188 q 711 72 711 106 q 711 19 711 39 q 711 0 711 0 q 711 0 711 0 q 711 0 711 0 q 711 0 711 0 q 711 0 711 0 q 684 0 711 0 q 614 0 656 0 q 522 0 571 0 q 431 0 474 0 q 361 0 388 0 q 333 0 333 0 q 333 0 333 0 q 333 0 333 0 q 333 0 333 0 q 333 0 333 0 q 333 0 333 0 q 333 28 333 14 q 333 56 333 42 q 356 56 337 56 q 404 56 376 56 q 461 56 432 56 q 512 56 490 56 q 543 56 535 56 q 543 56 543 56 q 543 56 543 56 q 543 56 543 56 q 543 56 543 56 q 557 66 545 56 q 585 92 569 76 q 618 125 602 108 q 645 153 634 141 q 656 167 656 165 l 656 388 l 711 388 m -28 426 q -28 499 -28 458 q -28 583 -28 539 q -28 667 -28 626 q -28 742 -28 708 q -28 794 -28 775 q -28 814 -28 814 q -28 814 -28 814 q -28 814 -28 814 q -28 814 -28 814 q -28 814 -28 814 q 0 814 -28 814 q 70 814 27 814 q 161 814 113 814 q 252 814 210 814 q 323 814 295 814 q 350 814 350 814 q 350 814 350 814 q 350 814 350 814 q 350 814 350 814 q 350 814 350 814 q 350 814 350 814 q 350 786 350 801 q 350 758 350 772 q 327 758 347 758 q 280 758 308 758 q 223 758 251 758 q 171 758 194 758 q 140 758 149 758 q 140 758 140 758 q 140 758 140 758 q 140 758 140 758 q 140 758 140 758 q 126 748 138 758 q 98 722 115 738 q 65 689 81 706 q 39 661 49 673 q 28 647 28 649 l 28 426 l -28 426 m -28 346 l 28 346 q 28 317 28 346 q 28 244 28 288 q 28 157 28 201 q 28 85 28 114 q 28 56 28 56 q 28 56 28 56 q 28 56 28 56 q 28 56 28 56 q 28 56 28 56 q 28 56 28 56 q 28 56 28 56 q 28 56 28 56 q 28 56 28 56 q 28 56 28 56 q 28 56 28 56 q 28 56 28 56 q 60 56 28 56 q 141 56 93 56 q 237 56 189 56 q 317 56 285 56 q 350 56 350 56 q 350 28 350 42 q 350 0 350 14 q 350 0 350 0 q 350 0 350 0 q 350 0 350 0 q 350 0 350 0 q 350 0 350 0 q 323 0 350 0 q 252 0 295 0 q 161 0 210 0 q 70 0 113 0 q 0 0 27 0 q -28 0 -28 0 q -28 0 -28 0 q -28 0 -28 0 q -28 0 -28 0 q -28 0 -28 0 q -28 25 -28 0 q -28 89 -28 50 q -28 173 -28 128 q -28 257 -28 217 q -28 321 -28 296 q -28 346 -28 346 m 711 468 l 656 468 q 656 497 656 468 q 656 570 656 526 q 656 657 656 613 q 656 729 656 700 q 656 758 656 758 q 656 758 656 758 q 656 758 656 758 q 656 758 656 758 q 656 758 656 758 q 656 758 656 758 q 656 758 656 758 q 656 758 656 758 q 656 758 656 758 q 656 758 656 758 q 656 758 656 758 q 656 758 656 758 q 623 758 656 758 q 542 758 590 758 q 447 758 494 758 q 366 758 399 758 q 333 758 333 758 q 333 786 333 772 q 333 814 333 801 q 333 814 333 814 q 333 814 333 814 q 333 814 333 814 q 333 814 333 814 q 333 814 333 814 q 361 814 333 814 q 431 814 388 814 q 522 814 474 814 q 614 814 571 814 q 684 814 656 814 q 711 814 711 814 q 711 814 711 814 q 711 814 711 814 q 711 814 711 814 q 711 814 711 814 q 711 789 711 814 q 711 725 711 764 q 711 641 711 685 q 711 557 711 597 q 711 493 711 518 q 711 468 711 468 m 711 676 l 711 163 l 656 163 q 656 226 656 163 q 656 426 656 290 q 656 430 656 426 q 656 433 656 433 q 656 437 656 433 q 656 440 656 440 q 656 622 656 567 q 656 676 656 676 l 711 676 m -28 136 l -28 650 l 28 650 q 28 586 28 650 q 28 386 28 523 q 28 383 28 386 q 28 379 28 379 q 28 376 28 379 q 28 372 28 372 q 28 191 28 247 q 28 136 28 136 l -28 136 m 1 318 l 1 419 l 28 419 q 28 413 28 419 q 28 400 28 406 q 28 393 28 393 q 57 389 28 393 q 128 378 85 385 q 214 366 171 372 q 285 356 256 360 q 314 351 314 351 q 314 348 314 351 q 312 339 313 345 q 310 324 311 333 q 307 309 308 315 q 306 300 306 303 q 306 297 306 297 q 277 301 306 297 q 208 311 249 306 q 125 323 167 317 q 56 333 84 329 q 28 338 28 338 q 28 333 28 338 q 28 323 28 328 q 28 318 28 318 l 1 318 m 682 506 l 682 404 l 656 404 q 656 411 656 404 q 656 424 656 417 q 656 431 656 431 q 627 435 656 431 q 555 445 598 439 q 470 458 513 451 q 398 468 427 464 q 369 472 369 472 q 370 475 369 472 q 371 485 370 478 q 374 500 372 491 q 376 515 375 509 q 377 524 377 521 q 378 526 378 526 q 406 522 378 526 q 475 512 434 518 q 558 500 517 506 q 627 490 599 494 q 656 486 656 486 q 656 491 656 486 q 656 501 656 496 q 656 506 656 506 l 682 506 z "},"T":{"ha":736,"x_min":-28,"x_max":764,"o":"m 764 426 l 708 426 q 708 450 708 426 q 708 512 708 474 q 708 592 708 550 q 708 673 708 635 q 708 734 708 710 q 708 758 708 758 q 708 758 708 758 q 708 758 708 758 q 708 758 708 758 q 708 758 708 758 q 708 758 708 758 q 708 758 708 758 q 708 758 708 758 q 708 758 708 758 q 708 758 708 758 q 708 758 708 758 q 708 758 708 758 q 708 758 708 758 q 708 758 708 758 q 683 758 708 758 q 618 758 658 758 q 533 758 578 758 q 449 758 489 758 q 384 758 409 758 q 358 758 358 758 q 358 786 358 772 q 358 814 358 801 q 358 814 358 814 q 358 814 358 814 q 358 814 358 814 q 358 814 358 814 q 358 814 358 814 q 388 814 358 814 q 463 814 417 814 q 561 814 509 814 q 659 814 613 814 q 735 814 706 814 q 764 814 764 814 q 764 814 764 814 q 764 814 764 814 q 764 814 764 814 q 764 814 764 814 q 764 786 764 814 q 764 714 764 758 q 764 620 764 669 q 764 527 764 571 q 764 455 764 483 q 764 426 764 426 m -28 426 q -28 455 -28 426 q -28 527 -28 483 q -28 620 -28 571 q -28 714 -28 669 q -28 786 -28 758 q -28 814 -28 814 q -28 814 -28 814 q -28 814 -28 814 q -28 814 -28 814 q -28 814 -28 814 q 1 814 -28 814 q 77 814 31 814 q 175 814 123 814 q 273 814 227 814 q 349 814 319 814 q 378 814 378 814 q 378 814 378 814 q 378 814 378 814 q 378 814 378 814 q 378 814 378 814 q 378 814 378 814 q 378 786 378 801 q 378 758 378 772 q 352 758 378 758 q 287 758 327 758 q 203 758 247 758 q 118 758 158 758 q 53 758 78 758 q 28 758 28 758 q 28 758 28 758 q 28 758 28 758 q 28 758 28 758 q 28 758 28 758 q 28 758 28 758 q 28 758 28 758 q 28 758 28 758 q 28 758 28 758 q 28 758 28 758 q 28 758 28 758 q 28 758 28 758 q 28 758 28 758 q 28 758 28 758 q 28 734 28 758 q 28 673 28 710 q 28 592 28 635 q 28 512 28 550 q 28 450 28 474 q 28 426 28 426 l -28 426 m 764 0 q 764 0 764 0 q 764 0 764 0 q 652 0 706 0 q 549 0 599 0 q 451 0 499 0 q 354 0 403 0 q 354 0 354 0 q 354 0 354 0 q 354 0 354 0 q 354 0 354 0 q 354 0 354 0 q 354 28 354 14 q 354 56 354 42 q 380 56 354 56 q 438 56 405 56 q 497 56 472 56 q 522 56 522 56 q 522 56 522 56 q 522 56 522 56 q 522 56 522 56 q 522 56 522 56 q 522 56 522 56 q 522 56 522 56 q 522 56 522 56 q 522 56 522 56 q 522 56 522 56 q 522 56 522 56 q 522 56 522 56 q 522 56 522 56 q 517 136 519 96 q 511 217 514 176 q 506 298 509 258 q 501 379 503 338 q 496 460 499 419 q 490 540 493 500 q 497 540 490 540 q 510 540 503 540 q 517 540 517 540 q 517 540 517 540 q 517 540 517 540 q 523 540 517 540 q 536 540 530 540 q 543 540 543 540 q 544 525 543 540 q 549 486 546 510 q 554 433 551 462 q 560 375 557 403 q 567 324 564 347 q 582 324 574 324 q 599 324 590 324 q 617 324 608 324 q 638 324 627 324 q 658 324 648 324 q 676 324 667 324 q 693 324 685 324 q 708 324 701 324 q 708 379 708 351 q 708 433 708 406 q 708 488 708 460 q 708 543 708 515 l 764 543 l 764 0 m -28 0 l -28 543 l 28 543 q 28 488 28 515 q 28 433 28 460 q 28 379 28 406 q 28 324 28 351 q 43 324 35 324 q 60 324 51 324 q 78 324 69 324 q 99 324 88 324 q 119 324 109 324 q 138 324 128 324 q 155 324 147 324 q 169 324 163 324 q 176 375 172 347 q 182 433 179 403 q 188 486 185 462 q 192 525 190 510 q 193 540 193 540 q 200 540 193 540 q 213 540 206 540 q 219 540 219 540 q 219 540 219 540 q 219 540 219 540 q 226 540 219 540 q 239 540 233 540 q 246 540 246 540 q 240 460 243 500 q 235 379 238 419 q 230 298 233 338 q 225 217 227 258 q 219 136 222 176 q 214 56 217 96 q 214 56 214 56 q 214 56 214 56 q 214 56 214 56 q 214 56 214 56 q 214 56 214 56 q 214 56 214 56 q 214 56 214 56 q 214 56 214 56 q 214 56 214 56 q 214 56 214 56 q 214 56 214 56 q 214 56 214 56 q 239 56 214 56 q 298 56 265 56 q 357 56 331 56 q 382 56 382 56 q 382 28 382 42 q 382 0 382 14 q 382 0 382 0 q 382 0 382 0 q 382 0 382 0 q 382 0 382 0 q 382 0 382 0 q 285 0 333 0 q 187 0 237 0 q 84 0 137 0 q -28 0 31 0 q -28 0 -28 0 q -28 0 -28 0 z "},"U":{"ha":736,"x_min":-28,"x_max":764,"o":"m -28 388 l 28 388 l 28 167 q 39 153 28 165 q 65 125 49 141 q 98 92 81 108 q 126 66 115 76 q 140 56 138 56 q 140 56 140 56 q 140 56 140 56 q 140 56 140 56 q 164 56 140 56 q 224 56 188 56 q 294 56 259 56 q 354 56 330 56 q 378 56 378 56 q 378 28 378 42 q 378 0 378 14 q 378 0 378 0 q 378 0 378 0 q 378 0 378 0 q 378 0 378 0 q 378 0 378 0 q 342 0 373 0 q 264 0 310 0 q 168 0 218 0 q 73 0 117 0 q 0 0 28 0 q -28 0 -28 0 q -28 0 -28 0 q -28 0 -28 0 q -28 0 -28 0 q -28 0 -28 0 q -28 28 -28 0 q -28 100 -28 56 q -28 194 -28 144 q -28 287 -28 243 q -28 359 -28 331 q -28 388 -28 388 m 764 388 q 764 359 764 388 q 764 287 764 331 q 764 194 764 243 q 764 100 764 144 q 764 28 764 56 q 764 0 764 0 q 764 0 764 0 q 764 0 764 0 q 764 0 764 0 q 764 0 764 0 q 736 0 764 0 q 663 0 708 0 q 568 0 619 0 q 472 0 518 0 q 394 0 426 0 q 358 0 363 0 q 358 0 358 0 q 358 0 358 0 q 358 0 358 0 q 358 0 358 0 q 358 0 358 0 q 358 28 358 14 q 358 56 358 42 q 382 56 358 56 q 442 56 406 56 q 513 56 477 56 q 572 56 548 56 q 596 56 596 56 q 596 56 596 56 q 596 56 596 56 q 596 56 596 56 q 610 66 598 56 q 638 92 622 76 q 671 125 655 108 q 698 153 687 141 q 708 167 708 165 l 708 388 l 764 388 m 764 553 l 764 261 l 708 261 q 708 283 708 261 q 708 334 708 305 q 708 385 708 363 q 708 407 708 407 q 708 407 708 407 q 708 407 708 407 q 708 407 708 407 q 708 407 708 407 q 708 429 708 407 q 708 480 708 451 q 708 531 708 509 q 708 553 708 553 l 764 553 m -28 553 l 28 553 q 28 531 28 553 q 28 480 28 509 q 28 429 28 451 q 28 407 28 407 q 28 407 28 407 q 28 407 28 407 q 28 407 28 407 q 28 407 28 407 q 28 385 28 407 q 28 334 28 363 q 28 283 28 305 q 28 261 28 261 l -28 261 l -28 553 m 764 426 l 708 426 q 708 450 708 426 q 708 512 708 474 q 708 592 708 550 q 708 673 708 635 q 708 734 708 710 q 708 758 708 758 q 708 758 708 758 q 708 758 708 758 q 708 758 708 758 q 708 758 708 758 q 708 758 708 758 q 708 758 708 758 q 708 758 708 758 q 708 758 708 758 q 708 758 708 758 q 708 758 708 758 q 708 758 708 758 q 708 758 708 758 q 708 758 708 758 q 683 758 708 758 q 618 758 658 758 q 533 758 578 758 q 449 758 489 758 q 384 758 409 758 q 358 758 358 758 q 358 786 358 772 q 358 814 358 801 q 358 814 358 814 q 358 814 358 814 q 358 814 358 814 q 358 814 358 814 q 358 814 358 814 q 388 814 358 814 q 463 814 417 814 q 561 814 509 814 q 659 814 613 814 q 735 814 706 814 q 764 814 764 814 q 764 814 764 814 q 764 814 764 814 q 764 814 764 814 q 764 814 764 814 q 764 786 764 814 q 764 714 764 758 q 764 620 764 669 q 764 527 764 571 q 764 455 764 483 q 764 426 764 426 m -28 426 q -28 455 -28 426 q -28 527 -28 483 q -28 620 -28 571 q -28 714 -28 669 q -28 786 -28 758 q -28 814 -28 814 q -28 814 -28 814 q -28 814 -28 814 q -28 814 -28 814 q -28 814 -28 814 q 1 814 -28 814 q 77 814 31 814 q 175 814 123 814 q 273 814 227 814 q 349 814 319 814 q 378 814 378 814 q 378 814 378 814 q 378 814 378 814 q 378 814 378 814 q 378 814 378 814 q 378 814 378 814 q 378 786 378 801 q 378 758 378 772 q 352 758 378 758 q 287 758 327 758 q 203 758 247 758 q 118 758 158 758 q 53 758 78 758 q 28 758 28 758 q 28 758 28 758 q 28 758 28 758 q 28 758 28 758 q 28 758 28 758 q 28 758 28 758 q 28 758 28 758 q 28 758 28 758 q 28 758 28 758 q 28 758 28 758 q 28 758 28 758 q 28 758 28 758 q 28 758 28 758 q 28 758 28 758 q 28 734 28 758 q 28 673 28 710 q 28 592 28 635 q 28 512 28 550 q 28 450 28 474 q 28 426 28 426 l -28 426 m 346 764 q 357 764 346 764 q 379 764 368 764 q 390 764 390 764 q 393 764 392 764 q 395 763 394 764 q 396 761 396 763 q 396 758 396 760 q 396 758 396 758 q 396 758 396 758 q 396 758 396 758 q 396 758 396 758 q 396 758 396 758 q 396 758 396 758 q 396 722 396 758 q 396 628 396 685 q 396 506 396 570 q 396 383 396 441 q 396 289 396 326 q 396 253 396 253 q 395 249 396 250 q 394 248 395 248 q 390 247 393 247 q 379 247 390 247 q 357 247 368 247 q 346 247 346 247 q 342 248 343 247 q 341 249 341 248 q 340 253 340 250 q 340 289 340 253 q 340 383 340 326 q 340 506 340 441 q 340 628 340 570 q 340 722 340 685 q 340 758 340 758 q 340 758 340 758 q 340 758 340 758 q 340 758 340 758 q 340 758 340 758 q 340 758 340 758 q 340 758 340 758 q 340 761 340 760 q 341 763 340 763 q 343 764 342 764 q 346 764 344 764 z "},"V":{"ha":736,"x_min":-28,"x_max":764,"o":"m -28 560 l 28 560 q 28 538 28 560 q 28 487 28 516 q 28 436 28 458 q 28 414 28 414 q 28 414 28 414 q 28 414 28 414 q 28 414 28 414 q 28 414 28 414 q 28 392 28 414 q 28 341 28 370 q 28 290 28 312 q 28 268 28 268 l -28 268 l -28 560 m 764 289 l 763 0 q 763 0 763 0 q 763 0 763 0 q 763 0 763 0 q 763 0 763 0 q 722 0 742 0 q 681 0 701 0 q 643 0 661 0 q 610 0 625 0 q 585 0 596 0 q 569 0 575 0 q 562 0 569 0 q 542 0 555 0 q 512 0 530 0 q 472 0 494 0 q 420 0 449 0 q 358 0 392 0 q 358 0 358 0 q 358 0 358 0 q 358 0 358 0 q 358 28 358 14 q 358 56 358 42 q 382 56 358 56 q 435 56 405 56 q 489 56 466 56 q 513 56 513 56 q 513 56 513 56 q 513 56 513 56 q 513 56 513 56 q 513 56 513 56 q 533 75 513 56 q 583 125 553 95 q 641 184 612 154 q 689 234 669 214 q 708 256 708 255 q 708 256 708 256 q 708 256 708 256 q 708 256 708 256 q 708 256 708 256 l 708 289 l 764 289 m -28 289 l 28 289 l 28 256 q 28 256 28 256 q 28 256 28 256 q 28 256 28 256 q 28 256 28 256 q 47 234 28 255 q 95 184 67 214 q 153 125 124 154 q 203 75 183 95 q 224 56 223 56 q 224 56 224 56 q 224 56 224 56 q 224 56 224 56 q 224 56 224 56 q 247 56 224 56 q 301 56 270 56 q 355 56 331 56 q 378 56 378 56 q 378 28 378 42 q 378 0 378 14 q 378 0 378 0 q 378 0 378 0 q 378 0 378 0 q 316 0 344 0 q 265 0 288 0 q 224 0 242 0 q 194 0 206 0 q 175 0 181 0 q 167 0 168 0 q 151 0 162 0 q 126 0 140 0 q 93 0 111 0 q 55 0 75 0 q 15 0 35 0 q -26 0 -6 0 q -26 0 -26 0 q -26 0 -26 0 q -26 0 -26 0 q -26 0 -26 0 l -28 289 m 764 560 l 764 268 l 708 268 q 708 290 708 268 q 708 341 708 312 q 708 392 708 370 q 708 414 708 414 q 708 414 708 414 q 708 414 708 414 q 708 414 708 414 q 708 414 708 414 q 708 436 708 414 q 708 487 708 458 q 708 538 708 516 q 708 560 708 560 l 764 560 m 764 426 l 708 426 q 708 450 708 426 q 708 512 708 474 q 708 592 708 550 q 708 673 708 635 q 708 734 708 710 q 708 758 708 758 q 708 758 708 758 q 708 758 708 758 q 708 758 708 758 q 708 758 708 758 q 708 758 708 758 q 708 758 708 758 q 708 758 708 758 q 708 758 708 758 q 708 758 708 758 q 708 758 708 758 q 708 758 708 758 q 708 758 708 758 q 708 758 708 758 q 683 758 708 758 q 618 758 658 758 q 533 758 578 758 q 449 758 489 758 q 384 758 409 758 q 358 758 358 758 q 358 786 358 772 q 358 814 358 801 q 358 814 358 814 q 358 814 358 814 q 358 814 358 814 q 358 814 358 814 q 358 814 358 814 q 388 814 358 814 q 463 814 417 814 q 561 814 509 814 q 659 814 613 814 q 735 814 706 814 q 764 814 764 814 q 764 814 764 814 q 764 814 764 814 q 764 814 764 814 q 764 814 764 814 q 764 786 764 814 q 764 714 764 758 q 764 620 764 669 q 764 527 764 571 q 764 455 764 483 q 764 426 764 426 m -28 426 q -28 455 -28 426 q -28 527 -28 483 q -28 620 -28 571 q -28 714 -28 669 q -28 786 -28 758 q -28 814 -28 814 q -28 814 -28 814 q -28 814 -28 814 q -28 814 -28 814 q -28 814 -28 814 q 1 814 -28 814 q 77 814 31 814 q 175 814 123 814 q 273 814 227 814 q 349 814 319 814 q 378 814 378 814 q 378 814 378 814 q 378 814 378 814 q 378 814 378 814 q 378 814 378 814 q 378 814 378 814 q 378 786 378 801 q 378 758 378 772 q 352 758 378 758 q 287 758 327 758 q 203 758 247 758 q 118 758 158 758 q 53 758 78 758 q 28 758 28 758 q 28 758 28 758 q 28 758 28 758 q 28 758 28 758 q 28 758 28 758 q 28 758 28 758 q 28 758 28 758 q 28 758 28 758 q 28 758 28 758 q 28 758 28 758 q 28 758 28 758 q 28 758 28 758 q 28 758 28 758 q 28 758 28 758 q 28 734 28 758 q 28 673 28 710 q 28 592 28 635 q 28 512 28 550 q 28 450 28 474 q 28 426 28 426 l -28 426 m 346 764 q 357 764 346 764 q 379 764 368 764 q 390 764 390 764 q 393 764 392 764 q 395 763 394 764 q 396 761 396 763 q 396 758 396 760 q 396 758 396 758 q 396 758 396 758 q 396 758 396 758 q 396 758 396 758 q 396 758 396 758 q 396 758 396 758 q 396 722 396 758 q 396 628 396 685 q 396 506 396 570 q 396 383 396 441 q 396 289 396 326 q 396 253 396 253 q 395 249 396 250 q 394 248 395 248 q 390 247 393 247 q 379 247 390 247 q 357 247 368 247 q 346 247 346 247 q 342 248 343 247 q 341 249 341 248 q 340 253 340 250 q 340 289 340 253 q 340 383 340 326 q 340 506 340 441 q 340 628 340 570 q 340 722 340 685 q 340 758 340 758 q 340 758 340 758 q 340 758 340 758 q 340 758 340 758 q 340 758 340 758 q 340 758 340 758 q 340 758 340 758 q 340 761 340 760 q 341 763 340 763 q 343 764 342 764 q 346 764 344 764 z "},"W":{"ha":875,"x_min":-28,"x_max":903,"o":"m -28 553 l 28 553 q 28 531 28 553 q 28 480 28 509 q 28 429 28 451 q 28 407 28 407 q 28 407 28 407 q 28 407 28 407 q 28 407 28 407 q 28 407 28 407 q 28 385 28 407 q 28 334 28 363 q 28 283 28 305 q 28 261 28 261 l -28 261 l -28 553 m 903 553 l 903 261 l 847 261 q 847 283 847 261 q 847 334 847 305 q 847 385 847 363 q 847 407 847 407 q 847 407 847 407 q 847 407 847 407 q 847 407 847 407 q 847 407 847 407 q 847 429 847 407 q 847 480 847 451 q 847 531 847 509 q 847 553 847 553 l 903 553 m -28 413 q -28 441 -28 413 q -28 516 -28 470 q -28 613 -28 562 q -28 710 -28 665 q -28 785 -28 756 q -28 814 -28 814 q -28 814 -28 814 q -28 814 -28 814 q -28 814 -28 814 q 6 814 -28 814 q 93 814 40 814 q 207 814 147 814 q 322 814 267 814 q 413 814 376 814 q 451 814 449 814 q 451 814 451 814 q 451 814 451 814 q 451 814 451 814 q 451 814 451 814 q 451 814 451 814 q 451 814 451 814 q 451 814 451 814 q 451 786 451 799 q 451 758 451 774 q 451 758 451 758 q 451 758 451 758 q 421 758 451 758 q 342 758 390 758 q 240 758 294 758 q 137 758 185 758 q 58 758 89 758 q 28 758 28 758 q 28 758 28 758 q 28 758 28 758 q 28 758 28 758 q 28 758 28 758 q 28 758 28 758 q 28 758 28 758 q 28 758 28 758 q 28 758 28 758 q 28 758 28 758 q 28 758 28 758 q 28 723 28 758 q 28 637 28 688 q 28 534 28 585 q 28 448 28 483 q 28 413 28 413 l -28 413 m 903 413 l 847 413 q 847 448 847 413 q 847 534 847 483 q 847 637 847 585 q 847 723 847 688 q 847 758 847 758 q 847 758 847 758 q 847 758 847 758 q 847 758 847 758 q 847 758 847 758 q 847 758 847 758 q 847 758 847 758 q 847 758 847 758 q 847 758 847 758 q 847 758 847 758 q 847 758 847 758 q 817 758 847 758 q 738 758 786 758 q 635 758 690 758 q 533 758 581 758 q 454 758 485 758 q 424 758 424 758 q 424 758 424 758 q 424 758 424 758 q 424 786 424 774 q 424 814 424 799 q 424 814 424 814 q 424 814 424 814 q 424 814 424 814 q 424 814 424 814 q 424 814 424 814 q 424 814 424 814 q 424 814 424 814 q 463 814 427 814 q 553 814 499 814 q 668 814 608 814 q 782 814 728 814 q 869 814 835 814 q 903 814 903 814 q 903 814 903 814 q 903 814 903 814 q 903 814 903 814 q 903 785 903 814 q 903 710 903 756 q 903 613 903 665 q 903 516 903 562 q 903 441 903 470 q 903 413 903 413 m 438 0 q 425 58 428 28 q 425 119 422 89 q 438 178 428 150 q 442 178 438 178 q 446 178 446 178 q 454 165 446 178 q 475 135 463 153 q 500 99 488 117 q 521 68 513 81 q 529 56 529 56 q 529 56 529 56 q 529 56 529 56 q 529 56 529 56 q 550 56 529 56 q 601 56 571 56 q 663 56 632 56 q 714 56 693 56 q 735 56 735 56 q 735 56 735 56 q 735 56 735 56 q 735 56 735 56 q 749 66 737 56 q 777 92 760 76 q 810 125 794 108 q 836 153 826 141 q 847 167 847 165 l 847 388 l 903 388 q 903 277 903 333 q 903 155 903 222 q 903 0 903 88 q 903 0 903 0 q 903 0 903 0 q 869 0 903 0 q 783 0 835 0 q 670 0 730 0 q 558 0 610 0 q 471 0 505 0 q 438 0 438 0 q 438 0 438 0 q 438 0 438 0 q 438 0 438 0 q 438 0 438 0 q 438 0 438 0 q 438 0 438 0 q 438 0 438 0 q 438 0 438 0 q 438 0 438 0 m 438 0 q 438 0 438 0 q 438 0 438 0 q 438 0 438 0 q 438 0 438 0 q 438 0 438 0 q 438 0 438 0 q 438 0 438 0 q 438 0 438 0 q 438 0 438 0 q 404 0 438 0 q 317 0 370 0 q 205 0 265 0 q 92 0 145 0 q 6 0 40 0 q -28 0 -28 0 q -28 0 -28 0 q -28 0 -28 0 q -28 155 -28 88 q -28 277 -28 222 q -28 388 -28 333 l 28 388 l 28 167 q 39 153 28 165 q 65 125 49 141 q 98 92 81 108 q 126 66 115 76 q 140 56 138 56 q 140 56 140 56 q 140 56 140 56 q 140 56 140 56 q 161 56 140 56 q 213 56 182 56 q 274 56 243 56 q 325 56 304 56 q 346 56 346 56 q 346 56 346 56 q 346 56 346 56 q 346 56 346 56 q 354 68 346 56 q 375 99 363 81 q 400 135 388 117 q 421 165 413 153 q 429 178 429 178 q 433 178 429 178 q 438 178 438 178 q 450 119 447 150 q 450 58 453 89 q 438 0 447 28 m 371 758 q 365 733 371 758 q 351 668 360 708 q 333 583 342 628 q 314 499 323 539 q 300 434 306 459 q 294 408 294 408 q 294 408 294 408 q 294 408 294 408 q 294 408 294 408 q 294 408 294 408 q 294 408 294 408 q 294 408 294 408 q 282 411 294 408 q 256 418 269 415 q 243 421 243 421 q 243 421 243 421 q 243 421 243 421 q 243 421 243 421 q 248 445 243 421 q 262 508 253 469 q 280 590 270 547 q 298 671 290 633 q 311 734 306 710 q 317 758 317 758 q 317 758 317 758 q 317 758 317 758 q 317 758 317 758 q 317 758 317 758 q 317 758 317 758 q 317 758 317 758 q 317 758 317 758 q 325 765 317 758 q 343 777 334 771 q 351 783 351 783 q 351 783 351 783 q 351 783 351 783 q 351 783 351 783 q 356 777 351 783 q 366 765 361 771 q 371 758 371 758 q 371 758 371 758 q 371 758 371 758 q 371 758 371 758 q 371 758 371 758 q 371 758 371 758 q 371 758 371 758 q 371 758 371 758 q 371 758 371 758 m 506 758 q 506 758 506 758 q 506 758 506 758 q 506 758 506 758 q 506 758 506 758 q 506 758 506 758 q 506 758 506 758 q 506 758 506 758 q 506 758 506 758 q 510 765 506 758 q 520 777 515 771 q 525 783 525 783 q 525 783 525 783 q 525 783 525 783 q 525 783 525 783 q 534 777 525 783 q 551 765 542 771 q 560 758 560 758 q 560 758 560 758 q 560 758 560 758 q 560 758 560 758 q 560 758 560 758 q 560 758 560 758 q 560 758 560 758 q 560 758 560 758 q 565 734 560 758 q 578 671 570 710 q 597 590 587 633 q 615 508 606 547 q 628 445 623 469 q 633 421 633 421 q 633 421 633 421 q 633 421 633 421 q 633 421 633 421 q 620 418 633 421 q 595 411 608 415 q 582 408 582 408 q 582 408 582 408 q 582 408 582 408 q 582 408 582 408 q 582 408 582 408 q 582 408 582 408 q 582 408 582 408 q 576 434 582 408 q 562 499 571 459 q 544 583 553 539 q 525 668 534 628 q 511 733 517 708 q 506 758 506 758 z "},"X":{"ha":736,"x_min":-28,"x_max":764,"o":"m 764 663 l 764 149 l 708 149 q 708 213 708 149 q 708 413 708 276 q 708 416 708 413 q 708 419 708 419 q 708 423 708 419 q 708 426 708 426 q 708 608 708 553 q 708 663 708 663 l 764 663 m -28 663 l 28 663 q 28 608 28 663 q 28 426 28 553 q 28 423 28 426 q 28 419 28 419 q 28 416 28 419 q 28 413 28 413 q 28 213 28 276 q 28 149 28 149 l -28 149 l -28 663 m -28 388 l 28 388 q 28 364 28 388 q 28 302 28 340 q 28 222 28 264 q 28 141 28 179 q 28 80 28 103 q 28 56 28 56 q 28 56 28 56 q 28 56 28 56 q 28 56 28 56 q 28 56 28 56 q 28 56 28 56 q 28 56 28 56 q 28 56 28 56 q 28 56 28 56 q 28 56 28 56 q 28 56 28 56 q 28 56 28 56 q 28 56 28 56 q 28 56 28 56 q 53 56 28 56 q 118 56 78 56 q 203 56 158 56 q 287 56 247 56 q 352 56 327 56 q 378 56 378 56 q 378 28 378 42 q 378 0 378 14 q 378 0 378 0 q 378 0 378 0 q 378 0 378 0 q 378 0 378 0 q 378 0 378 0 q 349 0 378 0 q 273 0 319 0 q 175 0 227 0 q 77 0 123 0 q 1 0 31 0 q -28 0 -28 0 q -28 0 -28 0 q -28 0 -28 0 q -28 0 -28 0 q -28 0 -28 0 q -28 28 -28 0 q -28 100 -28 56 q -28 194 -28 144 q -28 287 -28 243 q -28 359 -28 331 q -28 388 -28 388 m 764 388 q 764 359 764 388 q 764 287 764 331 q 764 194 764 243 q 764 100 764 144 q 764 28 764 56 q 764 0 764 0 q 764 0 764 0 q 764 0 764 0 q 764 0 764 0 q 764 0 764 0 q 735 0 764 0 q 659 0 706 0 q 561 0 613 0 q 463 0 509 0 q 388 0 417 0 q 358 0 358 0 q 358 0 358 0 q 358 0 358 0 q 358 0 358 0 q 358 0 358 0 q 358 0 358 0 q 358 28 358 14 q 358 56 358 42 q 384 56 358 56 q 449 56 409 56 q 533 56 489 56 q 618 56 578 56 q 683 56 658 56 q 708 56 708 56 q 708 56 708 56 q 708 56 708 56 q 708 56 708 56 q 708 56 708 56 q 708 56 708 56 q 708 56 708 56 q 708 56 708 56 q 708 56 708 56 q 708 56 708 56 q 708 56 708 56 q 708 56 708 56 q 708 56 708 56 q 708 56 708 56 q 708 80 708 56 q 708 141 708 103 q 708 222 708 179 q 708 302 708 264 q 708 364 708 340 q 708 388 708 388 l 764 388 m 28 333 q 20 377 23 358 q 17 413 17 397 q 20 447 17 429 q 28 486 23 465 l 28 486 q 43 478 28 486 q 80 459 58 470 q 124 436 102 447 q 161 416 147 424 q 176 408 176 408 q 176 408 176 408 q 176 408 176 408 q 176 408 176 408 q 176 408 176 408 q 161 401 176 408 q 124 382 147 393 q 80 360 102 371 q 43 341 58 349 q 28 333 28 333 l 28 333 m 708 333 l 708 333 q 693 341 708 333 q 656 360 678 349 q 612 382 634 371 q 575 401 590 393 q 560 408 560 408 q 560 408 560 408 q 560 408 560 408 q 560 408 560 408 q 560 408 560 408 q 575 416 560 408 q 612 436 590 424 q 656 459 634 447 q 693 478 678 470 q 708 486 708 486 l 708 486 q 716 447 714 465 q 719 413 719 429 q 716 377 719 397 q 708 333 714 358 m 764 426 l 708 426 q 708 450 708 426 q 708 512 708 474 q 708 592 708 550 q 708 673 708 635 q 708 734 708 710 q 708 758 708 758 q 708 758 708 758 q 708 758 708 758 q 708 758 708 758 q 708 758 708 758 q 708 758 708 758 q 708 758 708 758 q 708 758 708 758 q 708 758 708 758 q 708 758 708 758 q 708 758 708 758 q 708 758 708 758 q 708 758 708 758 q 708 758 708 758 q 683 758 708 758 q 618 758 658 758 q 533 758 578 758 q 449 758 489 758 q 384 758 409 758 q 358 758 358 758 q 358 786 358 772 q 358 814 358 801 q 358 814 358 814 q 358 814 358 814 q 358 814 358 814 q 358 814 358 814 q 358 814 358 814 q 388 814 358 814 q 463 814 417 814 q 561 814 509 814 q 659 814 613 814 q 735 814 706 814 q 764 814 764 814 q 764 814 764 814 q 764 814 764 814 q 764 814 764 814 q 764 814 764 814 q 764 786 764 814 q 764 714 764 758 q 764 620 764 669 q 764 527 764 571 q 764 455 764 483 q 764 426 764 426 m -28 426 q -28 455 -28 426 q -28 527 -28 483 q -28 620 -28 571 q -28 714 -28 669 q -28 786 -28 758 q -28 814 -28 814 q -28 814 -28 814 q -28 814 -28 814 q -28 814 -28 814 q -28 814 -28 814 q 1 814 -28 814 q 77 814 31 814 q 175 814 123 814 q 273 814 227 814 q 349 814 319 814 q 378 814 378 814 q 378 814 378 814 q 378 814 378 814 q 378 814 378 814 q 378 814 378 814 q 378 814 378 814 q 378 786 378 801 q 378 758 378 772 q 352 758 378 758 q 287 758 327 758 q 203 758 247 758 q 118 758 158 758 q 53 758 78 758 q 28 758 28 758 q 28 758 28 758 q 28 758 28 758 q 28 758 28 758 q 28 758 28 758 q 28 758 28 758 q 28 758 28 758 q 28 758 28 758 q 28 758 28 758 q 28 758 28 758 q 28 758 28 758 q 28 758 28 758 q 28 758 28 758 q 28 758 28 758 q 28 734 28 758 q 28 673 28 710 q 28 592 28 635 q 28 512 28 550 q 28 450 28 474 q 28 426 28 426 l -28 426 m 346 346 q 357 346 346 346 q 379 346 368 346 q 390 346 390 346 q 394 345 393 346 q 395 344 395 345 q 396 340 396 343 q 396 312 396 340 q 396 241 396 283 q 396 156 396 199 q 396 85 396 114 q 396 57 396 57 q 396 57 396 57 q 396 57 396 57 q 396 57 396 57 q 396 57 396 57 q 396 57 396 57 q 395 52 396 53 q 390 51 394 51 q 384 51 390 51 q 368 51 377 51 q 352 51 359 51 q 346 51 346 51 q 342 52 343 51 q 341 53 341 52 q 340 57 340 54 q 340 57 340 57 q 340 57 340 57 q 340 57 340 57 q 340 57 340 57 q 340 57 340 57 q 340 85 340 57 q 340 156 340 114 q 340 241 340 199 q 340 312 340 283 q 340 340 340 340 q 341 344 340 343 q 342 345 341 345 q 346 346 343 346 m 392 468 q 381 468 392 468 q 358 468 369 468 q 347 468 347 468 q 343 468 344 468 q 342 470 342 469 q 342 474 342 471 q 342 502 342 474 q 342 573 342 531 q 342 658 342 615 q 342 728 342 700 q 342 757 342 757 q 342 757 342 757 q 342 757 342 757 q 342 757 342 757 q 342 757 342 757 q 342 757 342 757 q 342 762 342 761 q 347 763 343 763 q 354 763 347 763 q 369 763 360 763 q 385 763 378 763 q 392 763 392 763 q 395 762 394 763 q 397 761 397 762 q 397 757 397 760 q 397 757 397 757 q 397 757 397 757 q 397 757 397 757 q 397 757 397 757 q 397 757 397 757 q 397 728 397 757 q 397 658 397 700 q 397 573 397 615 q 397 502 397 531 q 397 474 397 474 q 397 470 397 471 q 395 468 397 469 q 392 468 394 468 z "},"Y":{"ha":736,"x_min":-28,"x_max":764,"o":"m 764 388 q 764 359 764 388 q 764 287 764 331 q 764 194 764 243 q 764 100 764 144 q 764 28 764 56 q 764 0 764 0 q 764 0 764 0 q 764 0 764 0 q 764 0 764 0 q 764 0 764 0 q 736 0 764 0 q 663 0 708 0 q 568 0 619 0 q 472 0 518 0 q 394 0 426 0 q 358 0 363 0 q 358 0 358 0 q 358 0 358 0 q 358 0 358 0 q 358 0 358 0 q 358 0 358 0 q 358 28 358 14 q 358 56 358 42 q 382 56 358 56 q 442 56 406 56 q 513 56 477 56 q 572 56 548 56 q 596 56 596 56 q 596 56 596 56 q 596 56 596 56 q 596 56 596 56 q 610 66 598 56 q 638 92 622 76 q 671 125 655 108 q 698 153 687 141 q 708 167 708 165 l 708 388 l 764 388 m 764 553 l 764 261 l 708 261 q 708 283 708 261 q 708 334 708 305 q 708 385 708 363 q 708 407 708 407 q 708 407 708 407 q 708 407 708 407 q 708 407 708 407 q 708 407 708 407 q 708 429 708 407 q 708 480 708 451 q 708 531 708 509 q 708 553 708 553 l 764 553 m 764 426 l 708 426 q 708 450 708 426 q 708 512 708 474 q 708 592 708 550 q 708 673 708 635 q 708 734 708 710 q 708 758 708 758 q 708 758 708 758 q 708 758 708 758 q 708 758 708 758 q 708 758 708 758 q 708 758 708 758 q 708 758 708 758 q 708 758 708 758 q 708 758 708 758 q 708 758 708 758 q 708 758 708 758 q 708 758 708 758 q 708 758 708 758 q 683 758 708 758 q 618 758 658 758 q 533 758 578 758 q 449 758 489 758 q 384 758 409 758 q 358 758 358 758 q 358 786 358 772 q 358 814 358 801 q 358 814 358 814 q 358 814 358 814 q 358 814 358 814 q 358 814 358 814 q 358 814 358 814 q 388 814 358 814 q 463 814 417 814 q 561 814 509 814 q 659 814 613 814 q 735 814 706 814 q 764 814 764 814 q 764 814 764 814 q 764 814 764 814 q 764 814 764 814 q 764 814 764 814 q 764 786 764 814 q 764 714 764 758 q 764 620 764 669 q 764 527 764 571 q 764 455 764 483 q 764 426 764 426 m -28 426 q -28 455 -28 426 q -28 527 -28 483 q -28 620 -28 571 q -28 714 -28 669 q -28 786 -28 758 q -28 814 -28 814 q -28 814 -28 814 q -28 814 -28 814 q -28 814 -28 814 q -28 814 -28 814 q 1 814 -28 814 q 77 814 31 814 q 175 814 123 814 q 273 814 227 814 q 349 814 319 814 q 378 814 378 814 q 378 814 378 814 q 378 814 378 814 q 378 814 378 814 q 378 814 378 814 q 378 814 378 814 q 378 786 378 801 q 378 758 378 772 q 352 758 378 758 q 287 758 327 758 q 203 758 247 758 q 118 758 158 758 q 53 758 78 758 q 28 758 28 758 q 28 758 28 758 q 28 758 28 758 q 28 758 28 758 q 28 758 28 758 q 28 758 28 758 q 28 758 28 758 q 28 758 28 758 q 28 758 28 758 q 28 758 28 758 q 28 758 28 758 q 28 758 28 758 q 28 758 28 758 q 28 734 28 758 q 28 673 28 710 q 28 592 28 635 q 28 512 28 550 q 28 450 28 474 q 28 426 28 426 l -28 426 m 136 293 q 155 293 136 293 q 203 293 174 293 q 265 293 232 293 q 328 293 299 293 q 376 293 357 293 q 394 293 394 293 q 394 286 394 293 q 394 271 394 278 q 394 264 394 264 q 394 257 394 264 q 394 244 394 251 q 394 238 394 238 q 348 238 377 238 q 282 238 318 238 q 207 238 245 238 q 132 238 168 238 q 65 238 95 238 q 17 238 35 238 q 17 238 17 238 q 17 238 17 238 q 17 238 17 238 q 17 275 17 248 q 17 335 17 301 q 17 403 17 369 q 17 460 17 436 q 17 489 17 483 l 28 489 q 28 465 28 479 q 28 431 28 450 q 28 390 28 413 q 38 378 28 388 q 64 353 49 367 q 95 325 79 339 q 123 302 111 311 q 136 293 134 293 m -28 388 l 28 388 q 28 364 28 388 q 28 302 28 340 q 28 222 28 264 q 28 141 28 179 q 28 80 28 103 q 28 56 28 56 q 28 56 28 56 q 28 56 28 56 q 28 56 28 56 q 28 56 28 56 q 28 56 28 56 q 28 56 28 56 q 28 56 28 56 q 28 56 28 56 q 28 56 28 56 q 28 56 28 56 q 28 56 28 56 q 28 56 28 56 q 53 56 28 56 q 118 56 78 56 q 203 56 158 56 q 287 56 247 56 q 352 56 327 56 q 378 56 378 56 q 378 28 378 42 q 378 0 378 14 q 378 0 378 0 q 378 0 378 0 q 378 0 378 0 q 378 0 378 0 q 378 0 378 0 q 349 0 378 0 q 273 0 319 0 q 175 0 227 0 q 77 0 123 0 q 1 0 31 0 q -28 0 -28 0 q -28 0 -28 0 q -28 0 -28 0 q -28 0 -28 0 q -28 0 -28 0 q -28 28 -28 0 q -28 100 -28 56 q -28 194 -28 144 q -28 287 -28 243 q -28 359 -28 331 q -28 388 -28 388 m -28 263 l -28 554 l 28 554 q 28 532 28 554 q 28 481 28 510 q 28 430 28 452 q 28 408 28 408 q 28 408 28 408 q 28 408 28 408 q 28 408 28 408 q 28 408 28 408 q 28 386 28 408 q 28 335 28 365 q 28 284 28 306 q 28 263 28 263 l -28 263 m 347 769 q 358 769 347 769 q 381 769 369 769 q 392 769 392 769 q 395 769 394 769 q 397 769 396 769 q 397 767 397 768 q 397 764 397 766 q 397 764 397 764 q 397 764 397 764 q 397 764 397 764 q 397 764 397 764 q 397 764 397 764 q 397 742 397 764 q 397 687 397 721 q 397 615 397 653 q 397 543 397 577 q 397 488 397 510 q 397 467 397 467 q 397 463 397 464 q 395 461 397 462 q 392 461 394 461 q 381 461 392 461 q 358 461 369 461 q 347 461 347 461 q 343 461 344 461 q 342 463 342 462 q 342 467 342 464 q 342 488 342 467 q 342 543 342 510 q 342 615 342 577 q 342 687 342 653 q 342 742 342 721 q 342 764 342 764 q 342 764 342 764 q 342 764 342 764 q 342 764 342 764 q 342 764 342 764 q 342 764 342 764 q 342 767 342 766 q 342 769 342 768 q 344 769 343 769 q 347 769 345 769 z "},"Z":{"ha":683,"x_min":-28,"x_max":711,"o":"m -28 346 l 28 346 q 28 317 28 346 q 28 244 28 288 q 28 157 28 201 q 28 85 28 114 q 28 56 28 56 q 28 56 28 56 q 28 56 28 56 q 28 56 28 56 q 28 56 28 56 q 28 56 28 56 q 28 56 28 56 q 28 56 28 56 q 28 56 28 56 q 28 56 28 56 q 28 56 28 56 q 28 56 28 56 q 60 56 28 56 q 141 56 93 56 q 237 56 189 56 q 317 56 285 56 q 350 56 350 56 q 350 28 350 42 q 350 0 350 14 q 350 0 350 0 q 350 0 350 0 q 350 0 350 0 q 350 0 350 0 q 350 0 350 0 q 323 0 350 0 q 252 0 295 0 q 161 0 210 0 q 70 0 113 0 q 0 0 27 0 q -28 0 -28 0 q -28 0 -28 0 q -28 0 -28 0 q -28 0 -28 0 q -28 0 -28 0 q -28 25 -28 0 q -28 89 -28 50 q -28 173 -28 128 q -28 257 -28 217 q -28 321 -28 296 q -28 346 -28 346 m 711 468 l 656 468 q 656 497 656 468 q 656 570 656 526 q 656 657 656 613 q 656 729 656 700 q 656 758 656 758 q 656 758 656 758 q 656 758 656 758 q 656 758 656 758 q 656 758 656 758 q 656 758 656 758 q 656 758 656 758 q 656 758 656 758 q 656 758 656 758 q 656 758 656 758 q 656 758 656 758 q 656 758 656 758 q 623 758 656 758 q 542 758 590 758 q 447 758 494 758 q 366 758 399 758 q 333 758 333 758 q 333 786 333 772 q 333 814 333 801 q 333 814 333 814 q 333 814 333 814 q 333 814 333 814 q 333 814 333 814 q 333 814 333 814 q 361 814 333 814 q 431 814 388 814 q 522 814 474 814 q 614 814 571 814 q 684 814 656 814 q 711 814 711 814 q 711 814 711 814 q 711 814 711 814 q 711 814 711 814 q 711 814 711 814 q 711 789 711 814 q 711 725 711 764 q 711 641 711 685 q 711 557 711 597 q 711 493 711 518 q 711 468 711 468 m 711 346 q 711 321 711 346 q 711 257 711 296 q 711 173 711 217 q 711 89 711 128 q 711 25 711 50 q 711 0 711 0 q 711 0 711 0 q 711 0 711 0 q 711 0 711 0 q 711 0 711 0 q 684 0 711 0 q 614 0 656 0 q 522 0 571 0 q 431 0 474 0 q 361 0 388 0 q 333 0 333 0 q 333 0 333 0 q 333 0 333 0 q 333 0 333 0 q 333 0 333 0 q 333 0 333 0 q 333 28 333 14 q 333 56 333 42 q 366 56 333 56 q 447 56 399 56 q 542 56 494 56 q 623 56 590 56 q 656 56 656 56 q 656 56 656 56 q 656 56 656 56 q 656 56 656 56 q 656 56 656 56 q 656 56 656 56 q 656 56 656 56 q 656 56 656 56 q 656 56 656 56 q 656 56 656 56 q 656 56 656 56 q 656 56 656 56 q 656 85 656 56 q 656 157 656 114 q 656 244 656 201 q 656 317 656 288 q 656 346 656 346 l 711 346 m -28 468 q -28 493 -28 468 q -28 557 -28 518 q -28 641 -28 597 q -28 725 -28 685 q -28 789 -28 764 q -28 814 -28 814 q -28 814 -28 814 q -28 814 -28 814 q -28 814 -28 814 q -28 814 -28 814 q 0 814 -28 814 q 70 814 27 814 q 161 814 113 814 q 252 814 210 814 q 323 814 295 814 q 350 814 350 814 q 350 814 350 814 q 350 814 350 814 q 350 814 350 814 q 350 814 350 814 q 350 814 350 814 q 350 786 350 801 q 350 758 350 772 q 317 758 350 758 q 237 758 285 758 q 141 758 189 758 q 60 758 93 758 q 28 758 28 758 q 28 758 28 758 q 28 758 28 758 q 28 758 28 758 q 28 758 28 758 q 28 758 28 758 q 28 758 28 758 q 28 758 28 758 q 28 758 28 758 q 28 758 28 758 q 28 758 28 758 q 28 758 28 758 q 28 729 28 758 q 28 657 28 700 q 28 570 28 613 q 28 497 28 526 q 28 468 28 468 l -28 468 m 711 136 l 656 136 q 656 191 656 136 q 656 372 656 247 q 656 376 656 372 q 656 379 656 379 q 656 383 656 379 q 656 386 656 386 q 656 586 656 523 q 656 650 656 650 l 711 650 l 711 136 m -28 136 l -28 650 l 28 650 q 28 586 28 650 q 28 386 28 523 q 28 383 28 386 q 28 379 28 379 q 28 376 28 379 q 28 372 28 372 q 28 191 28 247 q 28 136 28 136 l -28 136 m 0 515 l 26 515 q 26 510 26 515 q 26 501 26 506 q 26 496 26 496 q 55 500 26 496 q 124 510 83 504 q 207 522 165 516 q 276 532 248 528 q 304 536 304 536 q 305 533 304 536 q 306 525 305 531 q 308 510 307 519 q 311 494 310 501 q 312 485 312 488 q 313 482 313 482 q 284 478 313 482 q 212 467 255 474 q 127 455 169 461 q 55 444 84 449 q 26 440 26 440 q 26 434 26 440 q 26 420 26 427 q 26 414 26 414 l 0 414 l 0 515 m 682 290 l 656 290 q 656 295 656 290 q 656 305 656 300 q 656 310 656 310 q 627 306 656 310 q 558 295 599 301 q 475 284 517 290 q 406 274 434 278 q 378 269 378 269 q 377 272 378 269 q 376 281 377 275 q 374 296 375 287 q 371 311 372 305 q 370 320 370 317 q 369 324 369 324 q 398 328 369 324 q 470 338 427 332 q 555 351 513 344 q 627 361 598 357 q 656 365 656 365 q 656 372 656 365 q 656 385 656 378 q 656 392 656 392 l 682 392 l 682 290 z "},"a":{"ha":683,"x_min":-28,"x_max":711,"o":"m -28 388 l 28 388 l 28 167 q 39 153 28 165 q 65 125 49 141 q 98 92 81 108 q 126 66 115 76 q 140 56 138 56 q 140 56 140 56 q 140 56 140 56 q 140 56 140 56 q 140 56 140 56 q 171 56 149 56 q 223 56 194 56 q 280 56 251 56 q 327 56 308 56 q 350 56 347 56 q 350 28 350 42 q 350 0 350 14 q 350 0 350 0 q 350 0 350 0 q 350 0 350 0 q 350 0 350 0 q 350 0 350 0 q 323 0 350 0 q 252 0 295 0 q 161 0 210 0 q 70 0 113 0 q 0 0 27 0 q -28 0 -28 0 q -28 0 -28 0 q -28 0 -28 0 q -28 0 -28 0 q -28 0 -28 0 q -28 19 -28 0 q -28 72 -28 39 q -28 147 -28 106 q -28 231 -28 188 q -28 315 -28 274 q -28 388 -28 356 m -28 326 q -28 351 -28 326 q -28 416 -28 376 q -28 499 -28 455 q -28 583 -28 544 q -28 647 -28 622 q -28 672 -28 672 q -28 672 -28 672 q -28 672 -28 672 q -28 672 -28 672 q -28 672 -28 672 q 0 672 -28 672 q 70 672 27 672 q 161 672 113 672 q 252 672 210 672 q 323 672 295 672 q 350 672 350 672 q 350 672 350 672 q 350 672 350 672 q 350 672 350 672 q 350 672 350 672 q 350 672 350 672 q 350 645 350 659 q 350 617 350 631 q 317 617 350 617 q 237 617 285 617 q 141 617 189 617 q 60 617 93 617 q 28 617 28 617 q 28 617 28 617 q 28 617 28 617 q 28 617 28 617 q 28 617 28 617 q 28 617 28 617 q 28 617 28 617 q 28 617 28 617 q 28 617 28 617 q 28 617 28 617 q 28 617 28 617 q 28 617 28 617 q 28 588 28 617 q 28 515 28 558 q 28 428 28 472 q 28 356 28 385 q 28 326 28 326 l -28 326 m 711 285 l 656 285 l 656 506 q 645 519 656 508 q 618 548 634 531 q 585 580 602 564 q 557 606 569 596 q 543 617 545 617 q 543 617 543 617 q 543 617 543 617 q 543 617 543 617 q 543 617 543 617 q 512 617 535 617 q 461 617 490 617 q 404 617 432 617 q 356 617 376 617 q 333 617 337 617 q 333 645 333 631 q 333 672 333 659 q 333 672 333 672 q 333 672 333 672 q 333 672 333 672 q 333 672 333 672 q 333 672 333 672 q 361 672 333 672 q 431 672 388 672 q 522 672 474 672 q 614 672 571 672 q 684 672 656 672 q 711 672 711 672 q 711 672 711 672 q 711 672 711 672 q 711 672 711 672 q 711 672 711 672 q 711 653 711 672 q 711 600 711 633 q 711 526 711 567 q 711 441 711 485 q 711 357 711 397 q 711 285 711 317 m 711 346 q 711 321 711 346 q 711 257 711 296 q 711 173 711 217 q 711 89 711 128 q 711 25 711 50 q 711 0 711 0 q 711 0 711 0 q 711 0 711 0 q 711 0 711 0 q 711 0 711 0 q 684 0 711 0 q 614 0 656 0 q 522 0 571 0 q 431 0 474 0 q 361 0 388 0 q 333 0 333 0 q 333 0 333 0 q 333 0 333 0 q 333 0 333 0 q 333 0 333 0 q 333 0 333 0 q 333 28 333 14 q 333 56 333 42 q 366 56 333 56 q 447 56 399 56 q 542 56 494 56 q 623 56 590 56 q 656 56 656 56 q 656 56 656 56 q 656 56 656 56 q 656 56 656 56 q 656 56 656 56 q 656 56 656 56 q 656 56 656 56 q 656 56 656 56 q 656 56 656 56 q 656 56 656 56 q 656 56 656 56 q 656 56 656 56 q 656 85 656 56 q 656 157 656 114 q 656 244 656 201 q 656 317 656 288 q 656 346 656 346 l 711 346 m 711 178 l 656 178 q 656 239 656 216 q 656 283 656 262 q 656 338 656 304 q 656 338 656 338 q 656 338 656 338 q 656 338 656 338 q 656 338 656 338 q 656 390 656 372 q 656 420 656 408 q 656 449 656 433 q 656 497 656 465 l 711 497 l 711 178 m 257 218 q 257 218 257 218 q 257 218 257 218 q 257 218 257 218 q 257 218 257 218 q 257 218 257 218 q 257 218 257 218 q 257 218 257 218 q 252 219 253 218 q 251 224 251 219 q 251 239 251 231 q 251 253 251 246 q 251 268 251 260 q 252 273 251 272 q 257 274 253 274 q 257 274 257 274 q 257 274 257 274 q 257 274 257 274 q 257 274 257 274 q 257 274 257 274 q 257 274 257 274 q 257 274 257 274 q 283 274 257 274 q 343 274 309 274 q 403 274 377 274 q 429 274 429 274 q 429 274 429 274 q 429 274 429 274 q 434 273 433 274 q 435 268 435 272 q 435 253 435 260 q 435 239 435 246 q 435 224 435 231 q 434 219 435 219 q 429 218 433 218 q 429 218 429 218 q 429 218 429 218 q 403 218 429 218 q 343 218 377 218 q 283 218 309 218 q 257 218 257 218 m 1 436 l 28 436 q 28 431 28 436 q 28 422 28 426 q 28 417 28 417 q 56 421 28 417 q 125 431 84 425 q 208 443 167 437 q 277 453 249 449 q 306 457 306 457 q 306 454 306 457 q 307 445 306 451 q 310 431 308 440 q 312 415 311 422 q 314 406 313 409 q 314 403 314 403 q 285 399 314 403 q 214 388 256 394 q 128 376 171 382 q 57 365 85 369 q 28 361 28 361 q 28 355 28 361 q 28 341 28 348 q 28 335 28 335 l 1 335 l 1 436 z "},"b":{"ha":736,"x_min":-28,"x_max":764,"o":"m 764 497 l 764 178 l 708 178 q 708 226 708 210 q 708 255 708 242 q 708 285 708 267 q 708 338 708 303 q 708 338 708 338 q 708 338 708 338 q 708 338 708 338 q 708 338 708 338 q 708 392 708 371 q 708 436 708 413 q 708 497 708 459 l 764 497 m 764 388 q 764 359 764 388 q 764 287 764 331 q 764 194 764 243 q 764 100 764 144 q 764 28 764 56 q 764 0 764 0 q 764 0 764 0 q 764 0 764 0 q 764 0 764 0 q 764 0 764 0 q 736 0 764 0 q 663 0 708 0 q 568 0 619 0 q 472 0 518 0 q 394 0 426 0 q 358 0 363 0 q 358 0 358 0 q 358 0 358 0 q 358 0 358 0 q 358 0 358 0 q 358 0 358 0 q 358 28 358 14 q 358 56 358 42 q 382 56 358 56 q 442 56 406 56 q 513 56 477 56 q 572 56 548 56 q 596 56 596 56 q 596 56 596 56 q 596 56 596 56 q 596 56 596 56 q 610 66 598 56 q 638 92 622 76 q 671 125 655 108 q 698 153 687 141 q 708 167 708 165 l 708 388 l 764 388 m -28 411 l -28 814 q -6 814 -28 814 q 48 814 16 814 q 113 814 81 814 q 169 814 146 814 q 193 814 192 814 q 193 814 193 814 q 193 814 193 814 q 193 814 193 814 q 193 814 193 814 q 193 814 193 814 q 193 814 193 814 q 193 814 193 814 q 193 814 193 814 q 193 814 193 814 q 193 814 193 814 q 216 814 194 814 q 269 814 238 814 q 332 814 301 814 q 383 814 363 814 q 404 814 404 814 l 404 672 q 422 672 408 672 q 454 672 435 672 q 494 672 473 672 q 547 672 522 672 q 603 672 573 672 q 672 672 633 672 q 764 672 711 672 l 764 672 l 764 399 l 708 399 l 708 506 q 708 506 708 506 q 708 506 708 506 q 698 519 708 508 q 672 548 688 531 q 639 580 656 564 q 611 606 623 596 q 596 617 599 617 q 596 617 596 617 q 596 617 596 617 q 596 617 596 617 q 553 617 582 617 q 489 617 524 617 q 422 617 454 617 q 369 617 390 617 q 349 617 349 617 q 349 617 349 617 q 349 617 349 617 q 349 617 349 617 q 349 617 349 617 l 349 758 q 349 758 349 758 q 349 758 349 758 q 325 758 349 758 q 271 758 301 758 q 217 758 240 758 q 193 758 193 758 q 168 758 193 758 q 110 758 143 758 q 53 758 78 758 q 28 758 28 758 q 28 758 28 758 q 28 758 28 758 l 28 411 l -28 411 m -28 388 l 28 388 q 28 364 28 388 q 28 302 28 340 q 28 222 28 264 q 28 141 28 179 q 28 80 28 103 q 28 56 28 56 q 28 56 28 56 q 28 56 28 56 q 28 56 28 56 q 28 56 28 56 q 28 56 28 56 q 28 56 28 56 q 28 56 28 56 q 28 56 28 56 q 28 56 28 56 q 28 56 28 56 q 28 56 28 56 q 28 56 28 56 q 28 56 28 56 q 53 56 28 56 q 118 56 78 56 q 203 56 158 56 q 287 56 247 56 q 352 56 327 56 q 378 56 378 56 q 378 28 378 42 q 378 0 378 14 q 378 0 378 0 q 378 0 378 0 q 378 0 378 0 q 378 0 378 0 q 378 0 378 0 q 349 0 378 0 q 273 0 319 0 q 175 0 227 0 q 77 0 123 0 q 1 0 31 0 q -28 0 -28 0 q -28 0 -28 0 q -28 0 -28 0 q -28 0 -28 0 q -28 0 -28 0 q -28 28 -28 0 q -28 100 -28 56 q -28 194 -28 144 q -28 287 -28 243 q -28 359 -28 331 q -28 388 -28 388 m -28 497 l 28 497 q 28 436 28 459 q 28 392 28 413 q 28 338 28 371 q 28 338 28 338 q 28 338 28 338 q 28 338 28 338 q 28 338 28 338 q 28 285 28 303 q 28 255 28 267 q 28 226 28 242 q 28 178 28 210 l -28 178 l -28 497 m 340 251 q 340 277 340 251 q 340 338 340 303 q 340 398 340 372 q 340 424 340 424 q 340 424 340 424 q 340 424 340 424 q 341 428 340 428 q 346 429 342 429 q 361 429 353 429 q 375 429 368 429 q 390 429 383 429 q 395 428 394 429 q 396 424 396 428 q 396 424 396 424 q 396 424 396 424 q 396 398 396 424 q 396 338 396 372 q 396 277 396 303 q 396 251 396 251 q 396 251 396 251 q 396 251 396 251 q 396 251 396 251 q 396 251 396 251 q 396 251 396 251 q 396 251 396 251 q 396 251 396 251 q 395 247 396 247 q 390 246 394 246 q 368 246 379 246 q 346 246 358 246 q 341 247 342 246 q 340 251 340 247 q 340 251 340 251 q 340 251 340 251 q 340 251 340 251 q 340 251 340 251 q 340 251 340 251 q 340 251 340 251 q 340 251 340 251 z "},"c":{"ha":683,"x_min":-28,"x_max":711,"o":"m -28 388 l 28 388 l 28 167 q 39 153 28 165 q 65 125 49 141 q 98 92 81 108 q 126 66 115 76 q 140 56 138 56 q 140 56 140 56 q 140 56 140 56 q 140 56 140 56 q 140 56 140 56 q 171 56 149 56 q 223 56 194 56 q 280 56 251 56 q 327 56 308 56 q 350 56 347 56 q 350 28 350 42 q 350 0 350 14 q 350 0 350 0 q 350 0 350 0 q 350 0 350 0 q 350 0 350 0 q 350 0 350 0 q 323 0 350 0 q 252 0 295 0 q 161 0 210 0 q 70 0 113 0 q 0 0 27 0 q -28 0 -28 0 q -28 0 -28 0 q -28 0 -28 0 q -28 0 -28 0 q -28 0 -28 0 q -28 19 -28 0 q -28 72 -28 39 q -28 147 -28 106 q -28 231 -28 188 q -28 315 -28 274 q -28 388 -28 356 m -28 285 q -28 357 -28 317 q -28 441 -28 397 q -28 526 -28 485 q -28 600 -28 567 q -28 653 -28 633 q -28 672 -28 672 q -28 672 -28 672 q -28 672 -28 672 q -28 672 -28 672 q -28 672 -28 672 q 0 672 -28 672 q 70 672 27 672 q 161 672 113 672 q 252 672 210 672 q 323 672 295 672 q 350 672 350 672 q 350 672 350 672 q 350 672 350 672 q 350 672 350 672 q 350 672 350 672 q 350 672 350 672 q 350 645 350 659 q 350 617 350 631 q 327 617 347 617 q 280 617 308 617 q 223 617 251 617 q 171 617 194 617 q 140 617 149 617 q 140 617 140 617 q 140 617 140 617 q 140 617 140 617 q 140 617 140 617 q 126 606 138 617 q 98 580 115 596 q 65 548 81 564 q 39 519 49 531 q 28 506 28 508 l 28 285 l -28 285 m -28 178 l -28 497 l 28 497 q 28 449 28 465 q 28 420 28 433 q 28 390 28 408 q 28 338 28 372 q 28 338 28 338 q 28 338 28 338 q 28 338 28 338 q 28 338 28 338 q 28 283 28 304 q 28 239 28 262 q 28 178 28 216 l -28 178 m 388 360 q 388 364 388 363 q 389 365 388 365 q 393 365 390 365 q 422 365 393 365 q 492 365 450 365 q 577 365 535 365 q 648 365 619 365 q 676 365 676 365 q 676 365 676 365 q 676 365 676 365 q 676 365 676 365 q 676 365 676 365 q 676 365 676 365 q 680 365 679 365 q 682 364 681 365 q 682 360 682 363 q 682 355 682 360 q 682 344 682 351 q 682 331 682 338 q 682 320 682 324 q 682 315 682 315 q 681 310 682 311 q 676 310 681 310 q 676 310 676 310 q 676 310 676 310 q 676 310 676 310 q 676 310 676 310 q 676 310 676 310 q 648 310 676 310 q 577 310 619 310 q 492 310 535 310 q 422 310 450 310 q 393 310 393 310 q 389 310 390 310 q 388 311 388 310 q 388 315 388 313 q 388 326 388 315 q 388 349 388 338 q 388 360 388 360 m 711 346 q 711 321 711 346 q 711 257 711 296 q 711 173 711 217 q 711 89 711 128 q 711 25 711 50 q 711 0 711 0 q 711 0 711 0 q 711 0 711 0 q 711 0 711 0 q 711 0 711 0 q 684 0 711 0 q 614 0 656 0 q 522 0 571 0 q 431 0 474 0 q 361 0 388 0 q 333 0 333 0 q 333 0 333 0 q 333 0 333 0 q 333 0 333 0 q 333 0 333 0 q 333 0 333 0 q 333 28 333 14 q 333 56 333 42 q 366 56 333 56 q 447 56 399 56 q 542 56 494 56 q 623 56 590 56 q 656 56 656 56 q 656 56 656 56 q 656 56 656 56 q 656 56 656 56 q 656 56 656 56 q 656 56 656 56 q 656 56 656 56 q 656 56 656 56 q 656 56 656 56 q 656 56 656 56 q 656 56 656 56 q 656 56 656 56 q 656 85 656 56 q 656 157 656 114 q 656 244 656 201 q 656 317 656 288 q 656 346 656 346 l 711 346 m 711 326 l 656 326 q 656 356 656 326 q 656 428 656 385 q 656 515 656 472 q 656 588 656 558 q 656 617 656 617 q 656 617 656 617 q 656 617 656 617 q 656 617 656 617 q 656 617 656 617 q 656 617 656 617 q 656 617 656 617 q 656 617 656 617 q 656 617 656 617 q 656 617 656 617 q 656 617 656 617 q 656 617 656 617 q 623 617 656 617 q 542 617 590 617 q 447 617 494 617 q 366 617 399 617 q 333 617 333 617 q 333 645 333 631 q 333 672 333 659 q 333 672 333 672 q 333 672 333 672 q 333 672 333 672 q 333 672 333 672 q 333 672 333 672 q 361 672 333 672 q 431 672 388 672 q 522 672 474 672 q 614 672 571 672 q 684 672 656 672 q 711 672 711 672 q 711 672 711 672 q 711 672 711 672 q 711 672 711 672 q 711 672 711 672 q 711 647 711 672 q 711 583 711 622 q 711 499 711 544 q 711 416 711 455 q 711 351 711 376 q 711 326 711 326 z "},"d":{"ha":736,"x_min":-28,"x_max":764,"o":"m -28 497 l 28 497 q 28 436 28 459 q 28 392 28 413 q 28 338 28 371 q 28 338 28 338 q 28 338 28 338 q 28 338 28 338 q 28 338 28 338 q 28 285 28 303 q 28 255 28 267 q 28 226 28 242 q 28 178 28 210 l -28 178 l -28 497 m 764 497 l 764 178 l 708 178 q 708 226 708 210 q 708 255 708 242 q 708 285 708 267 q 708 338 708 303 q 708 338 708 338 q 708 338 708 338 q 708 338 708 338 q 708 338 708 338 q 708 392 708 371 q 708 436 708 413 q 708 497 708 459 l 764 497 m -28 388 l 28 388 l 28 167 q 39 153 28 165 q 65 125 49 141 q 98 92 81 108 q 126 66 115 76 q 140 56 138 56 q 140 56 140 56 q 140 56 140 56 q 140 56 140 56 q 164 56 140 56 q 224 56 188 56 q 294 56 259 56 q 354 56 330 56 q 378 56 378 56 q 378 28 378 42 q 378 0 378 14 q 378 0 378 0 q 378 0 378 0 q 378 0 378 0 q 378 0 378 0 q 378 0 378 0 q 342 0 373 0 q 264 0 310 0 q 168 0 218 0 q 73 0 117 0 q 0 0 28 0 q -28 0 -28 0 q -28 0 -28 0 q -28 0 -28 0 q -28 0 -28 0 q -28 0 -28 0 q -28 28 -28 0 q -28 100 -28 56 q -28 194 -28 144 q -28 287 -28 243 q -28 359 -28 331 q -28 388 -28 388 m 764 411 l 708 411 l 708 758 q 708 758 708 758 q 708 758 708 758 q 683 758 708 758 q 626 758 658 758 q 568 758 593 758 q 543 758 543 758 q 519 758 543 758 q 465 758 496 758 q 411 758 435 758 q 388 758 388 758 q 388 758 388 758 q 388 758 388 758 l 388 617 q 388 617 388 617 q 388 617 388 617 q 388 617 388 617 q 388 617 388 617 q 367 617 388 617 q 314 617 346 617 q 247 617 282 617 q 183 617 212 617 q 140 617 154 617 q 140 617 140 617 q 140 617 140 617 q 140 617 140 617 q 125 606 138 617 q 97 580 113 596 q 65 548 81 564 q 38 519 49 531 q 28 506 28 508 q 28 506 28 506 q 28 506 28 506 l 28 399 l -28 399 l -28 672 l -28 672 q 64 672 26 672 q 133 672 103 672 q 189 672 163 672 q 242 672 215 672 q 282 672 263 672 q 315 672 301 672 q 332 672 328 672 l 332 814 q 353 814 332 814 q 405 814 374 814 q 467 814 435 814 q 520 814 498 814 q 543 814 542 814 q 543 814 543 814 q 543 814 543 814 q 543 814 543 814 q 543 814 543 814 q 543 814 543 814 q 543 814 543 814 q 543 814 543 814 q 543 814 543 814 q 543 814 543 814 q 543 814 543 814 q 567 814 544 814 q 623 814 590 814 q 688 814 656 814 q 742 814 720 814 q 764 814 764 814 l 764 411 m 764 388 q 764 359 764 388 q 764 287 764 331 q 764 194 764 243 q 764 100 764 144 q 764 28 764 56 q 764 0 764 0 q 764 0 764 0 q 764 0 764 0 q 764 0 764 0 q 764 0 764 0 q 735 0 764 0 q 659 0 706 0 q 561 0 613 0 q 463 0 509 0 q 388 0 417 0 q 358 0 358 0 q 358 0 358 0 q 358 0 358 0 q 358 0 358 0 q 358 0 358 0 q 358 0 358 0 q 358 28 358 14 q 358 56 358 42 q 384 56 358 56 q 449 56 409 56 q 533 56 489 56 q 618 56 578 56 q 683 56 658 56 q 708 56 708 56 q 708 56 708 56 q 708 56 708 56 q 708 56 708 56 q 708 56 708 56 q 708 56 708 56 q 708 56 708 56 q 708 56 708 56 q 708 56 708 56 q 708 56 708 56 q 708 56 708 56 q 708 56 708 56 q 708 56 708 56 q 708 56 708 56 q 708 80 708 56 q 708 141 708 103 q 708 222 708 179 q 708 302 708 264 q 708 364 708 340 q 708 388 708 388 l 764 388 m 340 251 q 340 277 340 251 q 340 338 340 303 q 340 398 340 372 q 340 424 340 424 q 340 424 340 424 q 340 424 340 424 q 341 428 340 428 q 346 429 342 429 q 361 429 353 429 q 375 429 368 429 q 390 429 383 429 q 395 428 394 429 q 396 424 396 428 q 396 424 396 424 q 396 424 396 424 q 396 398 396 424 q 396 338 396 372 q 396 277 396 303 q 396 251 396 251 q 396 251 396 251 q 396 251 396 251 q 396 251 396 251 q 396 251 396 251 q 396 251 396 251 q 396 251 396 251 q 396 251 396 251 q 395 247 396 247 q 390 246 394 246 q 368 246 379 246 q 346 246 358 246 q 341 247 342 246 q 340 251 340 247 q 340 251 340 251 q 340 251 340 251 q 340 251 340 251 q 340 251 340 251 q 340 251 340 251 q 340 251 340 251 q 340 251 340 251 z "},"e":{"ha":683,"x_min":-28,"x_max":711,"o":"m -28 285 q -28 357 -28 317 q -28 441 -28 397 q -28 526 -28 485 q -28 600 -28 567 q -28 653 -28 633 q -28 672 -28 672 q -28 672 -28 672 q -28 672 -28 672 q -28 672 -28 672 q -28 672 -28 672 q 0 672 -28 672 q 70 672 27 672 q 161 672 113 672 q 252 672 210 672 q 323 672 295 672 q 350 672 350 672 q 350 672 350 672 q 350 672 350 672 q 350 672 350 672 q 350 672 350 672 q 350 672 350 672 q 350 645 350 659 q 350 617 350 631 q 327 617 347 617 q 280 617 308 617 q 223 617 251 617 q 171 617 194 617 q 140 617 149 617 q 140 617 140 617 q 140 617 140 617 q 140 617 140 617 q 140 617 140 617 q 126 606 138 617 q 98 580 115 596 q 65 548 81 564 q 39 519 49 531 q 28 506 28 508 l 28 285 l -28 285 m -28 496 l 28 496 q 28 435 28 458 q 28 391 28 412 q 28 336 28 369 q 28 336 28 336 q 28 336 28 336 q 28 336 28 336 q 28 336 28 336 q 28 283 28 301 q 28 253 28 265 q 28 225 28 241 q 28 176 28 208 l -28 176 l -28 496 m -28 388 l 28 388 l 28 167 q 39 153 28 165 q 65 125 49 141 q 98 92 81 108 q 126 66 115 76 q 140 56 138 56 q 140 56 140 56 q 140 56 140 56 q 140 56 140 56 q 140 56 140 56 q 171 56 149 56 q 223 56 194 56 q 280 56 251 56 q 327 56 308 56 q 350 56 347 56 q 350 28 350 42 q 350 0 350 14 q 350 0 350 0 q 350 0 350 0 q 350 0 350 0 q 350 0 350 0 q 350 0 350 0 q 323 0 350 0 q 252 0 295 0 q 161 0 210 0 q 70 0 113 0 q 0 0 27 0 q -28 0 -28 0 q -28 0 -28 0 q -28 0 -28 0 q -28 0 -28 0 q -28 0 -28 0 q -28 19 -28 0 q -28 72 -28 39 q -28 147 -28 106 q -28 231 -28 188 q -28 315 -28 274 q -28 388 -28 356 m 711 285 l 656 285 l 656 506 q 645 519 656 508 q 618 548 634 531 q 585 580 602 564 q 557 606 569 596 q 543 617 545 617 q 543 617 543 617 q 543 617 543 617 q 543 617 543 617 q 543 617 543 617 q 512 617 535 617 q 461 617 490 617 q 404 617 432 617 q 356 617 376 617 q 333 617 337 617 q 333 645 333 631 q 333 672 333 659 q 333 672 333 672 q 333 672 333 672 q 333 672 333 672 q 333 672 333 672 q 333 672 333 672 q 361 672 333 672 q 431 672 388 672 q 522 672 474 672 q 614 672 571 672 q 684 672 656 672 q 711 672 711 672 q 711 672 711 672 q 711 672 711 672 q 711 672 711 672 q 711 672 711 672 q 711 653 711 672 q 711 600 711 633 q 711 526 711 567 q 711 441 711 485 q 711 357 711 397 q 711 285 711 317 m 711 346 q 711 321 711 346 q 711 257 711 296 q 711 173 711 217 q 711 89 711 128 q 711 25 711 50 q 711 0 711 0 q 711 0 711 0 q 711 0 711 0 q 711 0 711 0 q 711 0 711 0 q 684 0 711 0 q 614 0 656 0 q 522 0 571 0 q 431 0 474 0 q 361 0 388 0 q 333 0 333 0 q 333 0 333 0 q 333 0 333 0 q 333 0 333 0 q 333 0 333 0 q 333 0 333 0 q 333 28 333 14 q 333 56 333 42 q 366 56 333 56 q 447 56 399 56 q 542 56 494 56 q 623 56 590 56 q 656 56 656 56 q 656 56 656 56 q 656 56 656 56 q 656 56 656 56 q 656 56 656 56 q 656 56 656 56 q 656 56 656 56 q 656 56 656 56 q 656 56 656 56 q 656 56 656 56 q 656 56 656 56 q 656 56 656 56 q 656 85 656 56 q 656 157 656 114 q 656 244 656 201 q 656 317 656 288 q 656 346 656 346 l 711 346 m 431 446 q 431 446 431 446 q 431 446 431 446 q 431 446 431 446 q 431 446 431 446 q 431 446 431 446 q 431 446 431 446 q 431 446 431 446 q 435 445 435 446 q 436 440 436 444 q 436 425 436 433 q 436 411 436 418 q 436 396 436 403 q 435 391 436 392 q 431 390 435 390 q 431 390 431 390 q 431 390 431 390 q 431 390 431 390 q 431 390 431 390 q 431 390 431 390 q 431 390 431 390 q 431 390 431 390 q 405 390 431 390 q 344 390 378 390 q 284 390 310 390 q 258 390 258 390 q 258 390 258 390 q 258 390 258 390 q 253 391 254 390 q 253 396 253 392 q 253 411 253 403 q 253 425 253 418 q 253 440 253 433 q 253 445 253 444 q 258 446 254 446 q 258 446 258 446 q 258 446 258 446 q 284 446 258 446 q 344 446 310 446 q 405 446 378 446 q 431 446 431 446 m 682 226 l 656 226 q 656 231 656 226 q 656 241 656 236 q 656 246 656 246 q 627 242 656 246 q 558 232 599 238 q 475 220 517 226 q 406 210 434 214 q 378 206 378 206 q 377 208 378 206 q 376 217 377 211 q 374 232 375 223 q 371 247 372 241 q 370 257 370 253 q 369 260 369 260 q 398 264 369 260 q 470 274 427 268 q 555 287 513 281 q 627 297 598 293 q 656 301 656 301 q 656 308 656 301 q 656 321 656 315 q 656 328 656 328 l 682 328 l 682 226 z "},"f":{"ha":531,"x_min":-28,"x_max":558,"o":"m 333 535 q 334 539 333 538 q 335 540 334 540 q 339 540 336 540 q 360 540 339 540 q 414 540 382 540 q 478 540 446 540 q 531 540 510 540 q 553 540 553 540 q 553 540 553 540 q 553 540 553 540 q 553 540 553 540 q 553 540 553 540 q 553 540 553 540 q 558 540 557 540 q 558 535 558 539 q 558 530 558 535 q 558 519 558 526 q 558 506 558 513 q 558 495 558 499 q 558 490 558 490 q 558 485 558 486 q 553 485 557 485 q 553 485 553 485 q 553 485 553 485 q 553 485 553 485 q 553 485 553 485 q 553 485 553 485 q 531 485 553 485 q 478 485 510 485 q 414 485 446 485 q 360 485 382 485 q 339 485 339 485 q 335 485 336 485 q 334 486 334 485 q 333 490 333 488 q 333 501 333 490 q 333 524 333 513 q 333 535 333 535 m -28 426 q -28 490 -28 458 q -28 553 -28 522 q -28 618 -28 585 q -28 682 -28 650 q -28 748 -28 715 q -28 814 -28 781 q -28 814 -28 814 q -28 814 -28 814 q 3 814 -28 814 q 78 814 33 814 q 169 814 124 814 q 244 814 214 814 q 275 814 275 814 q 275 814 275 814 q 275 814 275 814 q 275 814 275 814 q 275 814 275 814 q 275 814 275 814 q 275 786 275 801 q 275 758 275 772 q 261 758 273 758 q 233 758 249 758 q 198 758 216 758 q 164 758 179 758 q 140 758 149 758 q 140 758 140 758 q 140 758 140 758 q 140 758 140 758 q 126 748 138 758 q 98 722 115 738 q 65 689 81 706 q 39 661 49 673 q 28 647 28 649 l 28 426 l -28 426 m 558 426 l 503 426 q 503 460 503 426 q 503 543 503 494 q 503 642 503 592 q 503 725 503 691 q 503 758 503 758 q 503 758 503 758 q 503 758 503 758 q 503 758 503 758 q 503 758 503 758 q 503 758 503 758 q 503 758 503 758 q 503 758 503 758 q 503 758 503 758 q 503 758 503 758 q 503 758 503 758 q 503 758 503 758 q 478 758 503 758 q 416 758 453 758 q 342 758 379 758 q 281 758 306 758 q 256 758 256 758 q 256 786 256 772 q 256 814 256 801 q 256 814 256 814 q 256 814 256 814 q 256 814 256 814 q 256 814 256 814 q 256 814 256 814 q 286 814 256 814 q 362 814 317 814 q 452 814 407 814 q 528 814 497 814 q 558 814 558 814 q 558 814 558 814 q 558 814 558 814 q 558 814 558 814 q 558 786 558 814 q 558 714 558 758 q 558 620 558 669 q 558 527 558 571 q 558 455 558 483 q 558 426 558 426 m 256 0 q 256 0 256 0 q 256 0 256 0 q 256 0 256 0 q 256 0 256 0 q 256 0 256 0 q 225 0 254 0 q 154 0 196 0 q 70 0 112 0 q 0 0 28 0 q -28 0 -28 0 q -28 0 -28 0 q -28 0 -28 0 q -28 0 -28 0 q -28 103 -28 51 q -28 205 -28 156 q -28 296 -28 253 q -28 372 -28 339 l 28 372 l 28 56 q 28 56 28 56 q 28 56 28 56 q 28 56 28 56 q 28 56 28 56 q 28 56 28 56 q 28 56 28 56 q 51 56 28 56 q 105 56 74 56 q 159 56 135 56 q 182 56 182 56 q 206 56 182 56 q 261 56 230 56 q 316 56 292 56 q 340 56 340 56 q 340 56 340 56 q 340 56 340 56 q 340 56 340 56 q 340 56 340 56 q 340 75 340 56 q 340 124 340 95 q 340 183 340 153 q 340 232 340 212 q 340 251 340 251 q 340 251 340 251 q 340 251 340 251 q 340 251 340 251 q 340 251 340 251 q 340 251 340 251 q 365 251 340 251 q 422 251 390 251 q 478 251 453 251 q 503 251 503 251 q 503 251 503 251 q 503 251 503 251 q 503 251 503 251 q 503 269 503 251 q 503 314 503 288 q 503 367 503 340 q 503 411 503 393 q 503 429 503 429 q 503 429 503 429 q 503 429 503 429 l 558 429 q 558 378 558 403 q 558 311 558 353 q 558 196 558 269 q 558 0 558 122 q 558 0 558 0 q 558 0 558 0 q 528 0 558 0 q 453 0 498 0 q 364 0 409 0 q 288 0 319 0 q 256 0 257 0 q 256 0 256 0 q 256 0 256 0 q 256 0 256 0 q 256 0 256 0 q 256 0 256 0 m -28 497 l 28 497 q 28 436 28 459 q 28 392 28 413 q 28 338 28 371 q 28 338 28 338 q 28 338 28 338 q 28 338 28 338 q 28 338 28 338 q 28 285 28 303 q 28 255 28 267 q 28 226 28 242 q 28 178 28 210 l -28 178 l -28 497 z "},"g":{"ha":736,"x_min":-28,"x_max":764,"o":"m 764 285 l 708 285 l 708 506 q 698 519 708 508 q 671 548 687 531 q 638 580 655 564 q 610 606 622 596 q 596 617 598 617 q 596 617 596 617 q 596 617 596 617 q 596 617 596 617 q 572 617 596 617 q 513 617 548 617 q 442 617 477 617 q 382 617 406 617 q 358 617 358 617 q 358 645 358 631 q 358 672 358 659 q 358 672 358 672 q 358 672 358 672 q 358 672 358 672 q 358 672 358 672 q 358 672 358 672 q 394 672 363 672 q 472 672 426 672 q 568 672 518 672 q 663 672 619 672 q 736 672 708 672 q 764 672 764 672 q 764 672 764 672 q 764 672 764 672 q 764 672 764 672 q 764 672 764 672 q 764 644 764 672 q 764 572 764 616 q 764 478 764 528 q 764 385 764 429 q 764 313 764 341 q 764 285 764 285 m -28 285 q -28 313 -28 285 q -28 385 -28 341 q -28 478 -28 429 q -28 572 -28 528 q -28 644 -28 616 q -28 672 -28 672 q -28 672 -28 672 q -28 672 -28 672 q -28 672 -28 672 q -28 672 -28 672 q 0 672 -28 672 q 73 672 28 672 q 168 672 117 672 q 264 672 218 672 q 342 672 310 672 q 378 672 373 672 q 378 672 378 672 q 378 672 378 672 q 378 672 378 672 q 378 672 378 672 q 378 672 378 672 q 378 645 378 659 q 378 617 378 631 q 354 617 378 617 q 294 617 330 617 q 224 617 259 617 q 164 617 188 617 q 140 617 140 617 q 140 617 140 617 q 140 617 140 617 q 140 617 140 617 q 126 606 138 617 q 98 580 115 596 q 65 548 81 564 q 39 519 49 531 q 28 506 28 508 l 28 285 l -28 285 m 342 294 q 342 320 342 294 q 342 381 342 347 q 342 441 342 415 q 342 467 342 467 q 342 467 342 467 q 342 467 342 467 q 342 472 342 471 q 347 472 343 472 q 362 472 355 472 q 377 472 369 472 q 392 472 384 472 q 397 472 396 472 q 397 467 397 471 q 397 467 397 467 q 397 467 397 467 q 397 441 397 467 q 397 381 397 415 q 397 320 397 347 q 397 294 397 294 q 397 294 397 294 q 397 294 397 294 q 397 294 397 294 q 397 294 397 294 q 397 294 397 294 q 397 294 397 294 q 397 294 397 294 q 397 290 397 290 q 392 289 396 289 q 370 289 381 289 q 347 289 359 289 q 342 290 343 289 q 342 294 342 290 q 342 294 342 294 q 342 294 342 294 q 342 294 342 294 q 342 294 342 294 q 342 294 342 294 q 342 294 342 294 q 342 294 342 294 m 764 246 q 764 218 764 246 q 764 145 764 190 q 764 52 764 101 q 764 -41 764 3 q 764 -114 764 -85 q 764 -142 764 -142 q 764 -142 764 -142 q 764 -142 764 -142 q 764 -142 764 -142 q 764 -142 764 -142 q 736 -142 764 -142 q 663 -142 708 -142 q 568 -142 619 -142 q 472 -142 518 -142 q 394 -142 426 -142 q 358 -142 363 -142 q 358 -142 358 -142 q 358 -142 358 -142 q 358 -142 358 -142 q 358 -142 358 -142 q 358 -142 358 -142 q 358 -114 358 -128 q 358 -86 358 -99 q 382 -86 358 -86 q 442 -86 406 -86 q 513 -86 477 -86 q 572 -86 548 -86 q 596 -86 596 -86 q 596 -86 596 -86 q 596 -86 596 -86 q 596 -86 596 -86 q 610 -76 598 -86 q 638 -49 622 -65 q 671 -17 655 -33 q 698 11 687 -1 q 708 25 708 23 l 708 246 l 764 246 m 764 107 l 708 107 q 708 168 708 145 q 708 212 708 191 q 708 267 708 233 q 708 267 708 267 q 708 267 708 267 q 708 267 708 267 q 708 267 708 267 q 708 319 708 301 q 708 350 708 338 q 708 378 708 362 q 708 426 708 394 l 764 426 l 764 107 m 136 146 q 155 146 136 146 q 203 146 174 146 q 265 146 232 146 q 328 146 299 146 q 376 146 357 146 q 394 146 394 146 q 394 139 394 146 q 394 124 394 131 q 394 117 394 117 q 394 110 394 117 q 394 97 394 103 q 394 90 394 90 q 348 90 377 90 q 282 90 318 90 q 207 90 245 90 q 132 90 168 90 q 65 90 95 90 q 17 90 35 90 q 17 90 17 90 q 17 90 17 90 q 17 90 17 90 q 17 127 17 101 q 17 188 17 154 q 17 256 17 222 q 17 313 17 289 q 17 342 17 336 l 28 342 q 28 317 28 332 q 28 284 28 303 q 28 243 28 265 q 38 231 28 241 q 64 206 49 220 q 95 178 79 192 q 123 155 111 164 q 136 146 134 146 m -28 246 l 28 246 q 28 222 28 246 q 28 160 28 198 q 28 80 28 122 q 28 0 28 38 q 28 -62 28 -38 q 28 -86 28 -86 q 28 -86 28 -86 q 28 -86 28 -86 q 28 -86 28 -86 q 28 -86 28 -86 q 28 -86 28 -86 q 28 -86 28 -86 q 28 -86 28 -86 q 28 -86 28 -86 q 28 -86 28 -86 q 28 -86 28 -86 q 28 -86 28 -86 q 28 -86 28 -86 q 53 -86 28 -86 q 118 -86 78 -86 q 203 -86 158 -86 q 287 -86 247 -86 q 352 -86 327 -86 q 378 -86 378 -86 q 378 -114 378 -99 q 378 -142 378 -128 q 378 -142 378 -142 q 378 -142 378 -142 q 378 -142 378 -142 q 378 -142 378 -142 q 378 -142 378 -142 q 349 -142 378 -142 q 273 -142 319 -142 q 175 -142 227 -142 q 77 -142 123 -142 q 1 -142 31 -142 q -28 -142 -28 -142 q -28 -142 -28 -142 q -28 -142 -28 -142 q -28 -142 -28 -142 q -28 -142 -28 -142 q -28 -114 -28 -142 q -28 -41 -28 -85 q -28 52 -28 3 q -28 145 -28 101 q -28 218 -28 190 q -28 246 -28 246 m -28 106 l -28 425 l 28 425 q 28 377 28 393 q 28 348 28 360 q 28 318 28 336 q 28 265 28 300 q 28 265 28 265 q 28 265 28 265 q 28 265 28 265 q 28 265 28 265 q 28 211 28 232 q 28 167 28 190 q 28 106 28 144 l -28 106 z "},"h":{"ha":736,"x_min":-28,"x_max":764,"o":"m 764 388 q 764 359 764 388 q 764 287 764 331 q 764 194 764 243 q 764 100 764 144 q 764 28 764 56 q 764 0 764 0 q 764 0 764 0 q 764 0 764 0 q 764 0 764 0 q 764 0 764 0 q 735 0 764 0 q 659 0 706 0 q 561 0 613 0 q 463 0 509 0 q 388 0 417 0 q 358 0 358 0 q 358 0 358 0 q 358 0 358 0 q 358 0 358 0 q 358 0 358 0 q 358 0 358 0 q 358 28 358 14 q 358 56 358 42 q 384 56 358 56 q 449 56 409 56 q 533 56 489 56 q 618 56 578 56 q 683 56 658 56 q 708 56 708 56 q 708 56 708 56 q 708 56 708 56 q 708 56 708 56 q 708 56 708 56 q 708 56 708 56 q 708 56 708 56 q 708 56 708 56 q 708 56 708 56 q 708 56 708 56 q 708 56 708 56 q 708 56 708 56 q 708 56 708 56 q 708 56 708 56 q 708 80 708 56 q 708 141 708 103 q 708 222 708 179 q 708 302 708 264 q 708 364 708 340 q 708 388 708 388 l 764 388 m -28 388 l 28 388 q 28 364 28 388 q 28 302 28 340 q 28 222 28 264 q 28 141 28 179 q 28 80 28 103 q 28 56 28 56 q 28 56 28 56 q 28 56 28 56 q 28 56 28 56 q 28 56 28 56 q 28 56 28 56 q 28 56 28 56 q 28 56 28 56 q 28 56 28 56 q 28 56 28 56 q 28 56 28 56 q 28 56 28 56 q 28 56 28 56 q 28 56 28 56 q 53 56 28 56 q 118 56 78 56 q 203 56 158 56 q 287 56 247 56 q 352 56 327 56 q 378 56 378 56 q 378 28 378 42 q 378 0 378 14 q 378 0 378 0 q 378 0 378 0 q 378 0 378 0 q 378 0 378 0 q 378 0 378 0 q 349 0 378 0 q 273 0 319 0 q 175 0 227 0 q 77 0 123 0 q 1 0 31 0 q -28 0 -28 0 q -28 0 -28 0 q -28 0 -28 0 q -28 0 -28 0 q -28 0 -28 0 q -28 28 -28 0 q -28 100 -28 56 q -28 194 -28 144 q -28 287 -28 243 q -28 359 -28 331 q -28 388 -28 388 m -28 411 l -28 814 q -6 814 -28 814 q 48 814 16 814 q 113 814 81 814 q 169 814 146 814 q 193 814 192 814 q 193 814 193 814 q 193 814 193 814 q 193 814 193 814 q 193 814 193 814 q 193 814 193 814 q 193 814 193 814 q 193 814 193 814 q 193 814 193 814 q 193 814 193 814 q 193 814 193 814 q 216 814 194 814 q 269 814 238 814 q 332 814 301 814 q 383 814 363 814 q 404 814 404 814 l 404 672 q 422 672 408 672 q 454 672 435 672 q 494 672 473 672 q 547 672 522 672 q 603 672 573 672 q 672 672 633 672 q 764 672 711 672 l 764 672 l 764 399 l 708 399 l 708 506 q 708 506 708 506 q 708 506 708 506 q 698 519 708 508 q 672 548 688 531 q 639 580 656 564 q 611 606 623 596 q 596 617 599 617 q 596 617 596 617 q 596 617 596 617 q 596 617 596 617 q 553 617 582 617 q 489 617 524 617 q 422 617 454 617 q 369 617 390 617 q 349 617 349 617 q 349 617 349 617 q 349 617 349 617 q 349 617 349 617 q 349 617 349 617 l 349 758 q 349 758 349 758 q 349 758 349 758 q 325 758 349 758 q 271 758 301 758 q 217 758 240 758 q 193 758 193 758 q 168 758 193 758 q 110 758 143 758 q 53 758 78 758 q 28 758 28 758 q 28 758 28 758 q 28 758 28 758 l 28 411 l -28 411 m -28 497 l 28 497 q 28 436 28 459 q 28 392 28 413 q 28 338 28 371 q 28 338 28 338 q 28 338 28 338 q 28 338 28 338 q 28 338 28 338 q 28 285 28 303 q 28 255 28 267 q 28 226 28 242 q 28 178 28 210 l -28 178 l -28 497 m 764 178 l 708 178 q 708 239 708 216 q 708 283 708 262 q 708 338 708 304 q 708 338 708 338 q 708 338 708 338 q 708 338 708 338 q 708 338 708 338 q 708 390 708 372 q 708 420 708 408 q 708 449 708 433 q 708 497 708 465 l 764 497 l 764 178 m 346 46 q 343 46 344 46 q 341 47 342 46 q 340 48 340 47 q 340 51 340 49 q 340 51 340 51 q 340 51 340 51 q 340 51 340 51 q 340 51 340 51 q 340 51 340 51 q 340 73 340 51 q 340 128 340 94 q 340 200 340 162 q 340 272 340 238 q 340 327 340 306 q 340 349 340 349 q 341 352 340 351 q 342 354 341 353 q 346 354 343 354 q 357 354 346 354 q 379 354 368 354 q 390 354 390 354 q 394 354 393 354 q 395 352 395 353 q 396 349 396 351 q 396 327 396 349 q 396 272 396 306 q 396 200 396 238 q 396 128 396 162 q 396 73 396 94 q 396 51 396 51 q 396 51 396 51 q 396 51 396 51 q 396 51 396 51 q 396 51 396 51 q 396 51 396 51 q 396 48 396 49 q 395 47 396 47 q 393 46 394 46 q 390 46 392 46 q 379 46 390 46 q 357 46 368 46 q 346 46 346 46 z "},"i":{"ha":376,"x_min":-28,"x_max":404,"o":"m 404 346 q 404 284 404 317 q 404 214 404 250 q 404 140 404 177 q 404 67 404 103 q 404 0 404 32 q 382 0 404 0 q 328 0 360 0 q 264 0 296 0 q 209 0 231 0 q 188 0 188 0 q 188 0 188 0 q 188 0 188 0 q 188 0 188 0 q 188 0 188 0 q 183 28 183 10 q 188 56 183 45 q 220 56 202 56 q 259 56 238 56 q 302 56 279 56 q 349 56 325 56 q 349 56 349 56 q 349 56 349 56 q 349 56 349 56 q 349 56 349 56 q 349 56 349 56 q 349 56 349 56 q 349 56 349 56 q 349 56 349 56 q 349 85 349 56 q 349 157 349 114 q 349 244 349 201 q 349 317 349 288 q 349 346 349 346 l 404 346 m -28 346 l 28 346 q 28 317 28 346 q 28 244 28 288 q 28 157 28 201 q 28 85 28 114 q 28 56 28 56 q 28 56 28 56 q 28 56 28 56 q 28 56 28 56 q 28 56 28 56 q 28 56 28 56 q 28 56 28 56 q 28 56 28 56 q 28 56 28 56 q 75 56 52 56 q 118 56 97 56 q 156 56 138 56 q 189 56 174 56 q 194 28 194 45 q 189 0 194 10 q 189 0 189 0 q 189 0 189 0 q 189 0 189 0 q 189 0 189 0 q 167 0 189 0 q 113 0 145 0 q 48 0 81 0 q -6 0 16 0 q -28 0 -28 0 q -28 67 -28 32 q -28 140 -28 103 q -28 214 -28 177 q -28 284 -28 250 q -28 346 -28 317 m -28 497 l 28 497 q 28 436 28 459 q 28 392 28 413 q 28 338 28 371 q 28 338 28 338 q 28 338 28 338 q 28 338 28 338 q 28 338 28 338 q 28 285 28 303 q 28 255 28 267 q 28 226 28 242 q 28 178 28 210 l -28 178 l -28 497 m 404 497 l 404 178 l 349 178 q 349 226 349 210 q 349 255 349 242 q 349 285 349 267 q 349 338 349 303 q 349 338 349 338 q 349 338 349 338 q 349 338 349 338 q 349 338 349 338 q 349 392 349 371 q 349 436 349 413 q 349 497 349 459 l 404 497 m 404 468 l 349 468 q 349 497 349 468 q 349 570 349 526 q 349 657 349 613 q 349 729 349 700 q 349 758 349 758 q 349 758 349 758 q 349 758 349 758 q 349 758 349 758 q 349 758 349 758 q 349 758 349 758 q 349 758 349 758 q 349 758 349 758 q 349 758 349 758 q 302 758 325 758 q 259 758 279 758 q 220 758 238 758 q 188 758 202 758 q 183 786 183 769 q 188 814 183 803 q 188 814 188 814 q 188 814 188 814 q 188 814 188 814 q 188 814 188 814 q 209 814 188 814 q 264 814 231 814 q 328 814 296 814 q 382 814 360 814 q 404 814 404 814 q 404 747 404 782 q 404 674 404 711 q 404 600 404 637 q 404 530 404 564 q 404 468 404 497 m -28 468 q -28 530 -28 497 q -28 600 -28 564 q -28 674 -28 637 q -28 747 -28 711 q -28 814 -28 782 q -6 814 -28 814 q 48 814 16 814 q 113 814 81 814 q 167 814 145 814 q 189 814 189 814 q 189 814 189 814 q 189 814 189 814 q 189 814 189 814 q 189 814 189 814 q 194 786 194 803 q 189 758 194 769 q 156 758 174 758 q 118 758 138 758 q 75 758 97 758 q 28 758 52 758 q 28 758 28 758 q 28 758 28 758 q 28 758 28 758 q 28 758 28 758 q 28 758 28 758 q 28 758 28 758 q 28 758 28 758 q 28 758 28 758 q 28 729 28 758 q 28 657 28 700 q 28 570 28 613 q 28 497 28 526 q 28 468 28 468 l -28 468 m 404 426 l 349 426 q 349 469 349 447 q 349 510 349 491 q 349 540 349 528 q 349 551 349 551 q 349 551 349 551 q 349 551 349 551 q 349 553 349 551 q 349 562 349 556 q 349 583 349 569 q 349 621 349 597 q 349 621 349 621 q 349 621 349 621 q 325 621 349 621 q 269 621 301 621 q 213 621 237 621 q 189 621 189 621 q 189 629 189 621 q 189 647 189 637 q 189 666 189 658 q 189 674 189 674 q 210 674 199 674 q 240 674 222 674 q 283 674 258 674 q 343 674 308 674 q 358 674 348 674 q 376 674 367 674 q 389 674 385 674 q 394 674 392 674 q 399 674 397 674 q 404 674 401 674 q 404 619 404 652 q 404 549 404 585 q 404 479 404 512 q 404 426 404 447 m -28 426 q -28 479 -28 447 q -28 549 -28 512 q -28 619 -28 585 q -28 674 -28 652 q -23 674 -25 674 q -18 674 -20 674 q -12 674 -15 674 q 0 674 -9 674 q 19 674 9 674 q 33 674 28 674 q 76 674 57 674 q 110 674 95 674 q 137 674 125 674 q 159 674 149 674 q 175 674 168 674 q 189 674 183 674 q 189 666 189 674 q 189 647 189 658 q 189 629 189 637 q 189 621 189 621 q 173 621 189 621 q 132 621 156 621 q 84 621 108 621 q 44 621 60 621 q 28 621 28 621 q 28 621 28 621 q 28 621 28 621 q 28 583 28 597 q 28 562 28 569 q 28 553 28 556 q 28 551 28 551 q 28 551 28 551 q 28 551 28 551 q 28 540 28 551 q 28 510 28 528 q 28 469 28 491 q 28 426 28 447 l -28 426 z "},"j":{"ha":376,"x_min":-28,"x_max":404,"o":"m -28 497 l 28 497 q 28 436 28 459 q 28 392 28 413 q 28 338 28 371 q 28 338 28 338 q 28 338 28 338 q 28 338 28 338 q 28 338 28 338 q 28 285 28 303 q 28 255 28 267 q 28 226 28 242 q 28 178 28 210 l -28 178 l -28 497 m 404 497 l 404 178 l 349 178 q 349 226 349 210 q 349 255 349 242 q 349 285 349 267 q 349 338 349 303 q 349 338 349 338 q 349 338 349 338 q 349 338 349 338 q 349 338 349 338 q 349 392 349 371 q 349 436 349 413 q 349 497 349 459 l 404 497 m 404 426 l 349 426 q 349 469 349 447 q 349 510 349 491 q 349 540 349 528 q 349 551 349 551 q 349 551 349 551 q 349 551 349 551 q 349 553 349 551 q 349 562 349 556 q 349 583 349 569 q 349 621 349 597 q 349 621 349 621 q 349 621 349 621 q 325 621 349 621 q 269 621 301 621 q 213 621 237 621 q 189 621 189 621 q 189 629 189 621 q 189 647 189 637 q 189 666 189 658 q 189 674 189 674 q 210 674 199 674 q 240 674 222 674 q 283 674 258 674 q 343 674 308 674 q 358 674 348 674 q 376 674 367 674 q 389 674 385 674 q 394 674 392 674 q 399 674 397 674 q 404 674 401 674 q 404 619 404 652 q 404 549 404 585 q 404 479 404 512 q 404 426 404 447 m -28 426 q -28 479 -28 447 q -28 549 -28 512 q -28 619 -28 585 q -28 674 -28 652 q -23 674 -25 674 q -18 674 -20 674 q -12 674 -15 674 q 0 674 -9 674 q 19 674 9 674 q 33 674 28 674 q 76 674 57 674 q 110 674 95 674 q 137 674 125 674 q 159 674 149 674 q 175 674 168 674 q 189 674 183 674 q 189 666 189 674 q 189 647 189 658 q 189 629 189 637 q 189 621 189 621 q 173 621 189 621 q 132 621 156 621 q 84 621 108 621 q 44 621 60 621 q 28 621 28 621 q 28 621 28 621 q 28 621 28 621 q 28 583 28 597 q 28 562 28 569 q 28 553 28 556 q 28 551 28 551 q 28 551 28 551 q 28 551 28 551 q 28 540 28 551 q 28 510 28 528 q 28 469 28 491 q 28 426 28 447 l -28 426 m 404 468 l 349 468 q 349 497 349 468 q 349 570 349 526 q 349 657 349 613 q 349 729 349 700 q 349 758 349 758 q 349 758 349 758 q 349 758 349 758 q 349 758 349 758 q 349 758 349 758 q 349 758 349 758 q 349 758 349 758 q 349 758 349 758 q 349 758 349 758 q 302 758 325 758 q 259 758 279 758 q 220 758 238 758 q 188 758 202 758 q 183 786 183 769 q 188 814 183 803 q 188 814 188 814 q 188 814 188 814 q 188 814 188 814 q 188 814 188 814 q 209 814 188 814 q 264 814 231 814 q 328 814 296 814 q 382 814 360 814 q 404 814 404 814 q 404 747 404 782 q 404 674 404 711 q 404 600 404 637 q 404 530 404 564 q 404 468 404 497 m -28 468 q -28 530 -28 497 q -28 600 -28 564 q -28 674 -28 637 q -28 747 -28 711 q -28 814 -28 782 q -6 814 -28 814 q 48 814 16 814 q 113 814 81 814 q 167 814 145 814 q 189 814 189 814 q 189 814 189 814 q 189 814 189 814 q 189 814 189 814 q 189 814 189 814 q 194 786 194 803 q 189 758 194 769 q 156 758 174 758 q 118 758 138 758 q 75 758 97 758 q 28 758 52 758 q 28 758 28 758 q 28 758 28 758 q 28 758 28 758 q 28 758 28 758 q 28 758 28 758 q 28 758 28 758 q 28 758 28 758 q 28 758 28 758 q 28 729 28 758 q 28 657 28 700 q 28 570 28 613 q 28 497 28 526 q 28 468 28 468 l -28 468 m 404 190 l 404 26 q 404 9 404 26 q 404 -33 404 -8 q 404 -83 404 -58 q 404 -125 404 -108 q 404 -142 404 -142 q 383 -142 404 -142 q 330 -142 362 -142 q 267 -142 299 -142 q 212 -142 235 -142 q 188 -142 190 -142 q 188 -142 188 -142 q 188 -142 188 -142 q 188 -142 188 -142 q 188 -142 188 -142 q 188 -142 188 -142 q 188 -142 188 -142 q 188 -142 188 -142 q 188 -142 188 -142 q 188 -142 188 -142 q 188 -142 188 -142 q 188 -142 188 -142 q 163 -142 185 -142 q 109 -142 141 -142 q 46 -142 77 -142 q -7 -142 15 -142 q -28 -142 -28 -142 l -28 190 l 28 190 l 28 -86 q 28 -86 28 -86 q 28 -86 28 -86 q 28 -86 28 -86 q 49 -86 28 -86 q 101 -86 70 -86 q 163 -86 132 -86 q 215 -86 194 -86 q 236 -86 236 -86 q 250 -76 238 -86 q 278 -49 262 -65 q 311 -17 295 -33 q 338 11 327 -1 q 349 25 349 23 l 349 190 l 404 190 z "},"k":{"ha":736,"x_min":-28,"x_max":764,"o":"m 340 296 q 344 296 340 296 q 355 296 349 296 q 368 296 361 296 q 382 296 376 296 q 393 296 389 296 q 397 296 397 296 q 397 257 397 285 q 397 196 397 230 q 397 130 397 162 q 397 76 397 97 q 397 56 397 56 q 397 56 397 56 q 397 56 397 56 q 397 56 397 56 q 420 56 397 56 q 478 56 442 56 q 553 56 513 56 q 628 56 592 56 q 686 56 663 56 q 708 56 708 56 q 708 56 708 56 q 708 56 708 56 q 708 56 708 56 q 708 77 708 56 q 708 125 708 99 q 708 160 708 150 q 708 175 708 167 q 708 193 708 182 q 708 220 708 203 q 708 263 708 237 q 708 263 708 263 q 708 263 708 263 q 708 263 708 263 q 708 277 708 263 q 708 311 708 292 q 708 345 708 331 q 708 360 708 360 l 764 360 q 764 284 764 326 q 764 197 764 243 q 764 101 764 151 q 764 0 764 51 q 764 0 764 0 q 764 0 764 0 q 764 0 764 0 q 764 0 764 0 q 764 0 764 0 q 764 0 764 0 q 764 0 764 0 q 764 0 764 0 q 734 0 764 0 q 657 0 704 0 q 556 0 610 0 q 455 0 503 0 q 375 0 406 0 q 340 0 343 0 q 340 0 340 0 q 340 0 340 0 q 340 0 340 0 q 340 0 340 0 q 340 0 340 0 q 340 0 340 0 q 340 0 340 0 q 340 8 340 0 q 340 28 340 17 q 340 47 340 39 q 340 56 340 56 q 340 56 340 56 q 340 56 340 56 q 340 56 340 56 q 340 111 340 83 q 340 164 340 138 q 340 214 340 190 q 340 258 340 238 q 340 296 340 279 m -28 388 l 28 388 q 28 364 28 388 q 28 302 28 340 q 28 222 28 264 q 28 141 28 179 q 28 80 28 103 q 28 56 28 56 q 28 56 28 56 q 28 56 28 56 q 28 56 28 56 q 28 56 28 56 q 28 56 28 56 q 28 56 28 56 q 28 56 28 56 q 28 56 28 56 q 28 56 28 56 q 28 56 28 56 q 28 56 28 56 q 28 56 28 56 q 28 56 28 56 q 53 56 28 56 q 118 56 78 56 q 203 56 158 56 q 287 56 247 56 q 352 56 327 56 q 378 56 378 56 q 378 28 378 42 q 378 0 378 14 q 378 0 378 0 q 378 0 378 0 q 378 0 378 0 q 378 0 378 0 q 378 0 378 0 q 349 0 378 0 q 273 0 319 0 q 175 0 227 0 q 77 0 123 0 q 1 0 31 0 q -28 0 -28 0 q -28 0 -28 0 q -28 0 -28 0 q -28 0 -28 0 q -28 0 -28 0 q -28 28 -28 0 q -28 100 -28 56 q -28 194 -28 144 q -28 287 -28 243 q -28 359 -28 331 q -28 388 -28 388 m -28 400 l -28 814 q -6 814 -28 814 q 48 814 15 814 q 113 814 80 814 q 168 814 145 814 q 193 814 191 814 q 193 814 193 814 q 193 814 193 814 q 193 814 193 814 q 193 814 193 814 q 193 814 193 814 q 193 814 193 814 q 193 814 193 814 q 193 814 193 814 q 193 814 193 814 q 193 814 193 814 q 216 814 195 814 q 267 814 237 814 q 327 814 297 814 q 376 814 356 814 q 396 814 396 814 l 396 672 q 454 672 425 672 q 513 672 483 672 q 571 672 542 672 q 590 672 571 672 q 639 672 610 672 q 696 672 667 672 q 744 672 725 672 q 764 672 764 672 q 764 672 764 672 q 764 672 764 672 q 764 672 764 672 q 764 672 764 672 l 764 399 l 708 399 l 708 617 q 708 617 708 617 q 708 617 708 617 q 708 617 708 617 q 708 617 708 617 q 708 617 708 617 q 708 617 708 617 q 708 617 708 617 q 686 617 708 617 q 628 617 663 617 q 552 617 592 617 q 477 617 513 617 q 418 617 441 617 q 396 617 396 617 q 396 617 396 617 q 396 617 396 617 q 396 617 396 617 q 396 599 396 617 q 396 555 396 581 q 396 502 396 528 q 396 458 396 476 q 396 440 396 440 q 382 440 396 440 q 368 440 368 440 q 354 440 368 440 q 340 440 340 440 q 340 473 340 440 q 340 552 340 505 q 340 647 340 599 q 340 726 340 694 q 340 758 340 758 l 340 758 q 340 758 340 758 q 340 758 340 758 q 318 758 340 758 q 267 758 296 758 q 215 758 238 758 q 193 758 193 758 q 168 758 193 758 q 110 758 143 758 q 53 758 78 758 q 28 758 28 758 q 28 758 28 758 q 28 758 28 758 l 28 400 l -28 400 m 611 350 q 611 350 611 350 q 611 350 611 350 q 626 362 611 350 q 660 390 640 374 q 694 417 679 406 q 708 429 708 429 l 708 499 l 735 499 l 764 499 q 764 469 764 499 q 764 394 764 439 q 764 306 764 350 q 764 231 764 261 q 764 201 764 201 l 735 201 l 708 201 l 708 271 q 694 283 708 271 q 660 310 679 294 q 626 338 640 326 q 611 350 611 350 q 611 350 611 350 q 611 350 611 350 m -28 497 l 28 497 q 28 436 28 459 q 28 392 28 413 q 28 338 28 371 q 28 338 28 338 q 28 338 28 338 q 28 338 28 338 q 28 338 28 338 q 28 285 28 303 q 28 255 28 267 q 28 226 28 242 q 28 178 28 210 l -28 178 l -28 497 z "}}}
